<ttFont>
<head>
    <!-- Most of this table will be recalculated by the compiler -->
    <tableVersion value="1.0"/>
    <fontRevision value="2.004"/>
    <checkSumAdjustment value="0xd1c534df"/>
    <magicNumber value="0x5f0f3cf5"/>
    <flags value="00000000 00000011"/>
    <unitsPerEm value="1000"/>
    <created value="Thu Oct  8 09:57:08 2009"/>
    <modified value="Thu Oct  8 09:57:08 2009"/>
    <xMin value="-483"/>
    <yMin value="-292"/>
    <xMax value="1562"/>
    <yMax value="1124"/>
    <macStyle value="00000000 00000000"/>
    <lowestRecPPEM value="3"/>
    <fontDirectionHint value="2"/>
    <indexToLocFormat value="0"/>
    <glyphDataFormat value="0"/>
  </head>
          <CharString index="0">
            797 hmoveto
            36 -20 vlineto
            -67 -7 10 28 -11 hvcurveto
            -243 616 rlineto
            16 -6 -3 7 -19 hhcurveto
            -19 -3 -7 -16 -6 hvcurveto
            -231 -585 rlineto
            -25 -10 -17 -44 -90 hhcurveto
            -36 vlineto
            3 34 35 1 34 40 74 -4 6 hhcurveto
            36 vlineto
            -44 -28 20 28 8 1 2 4 10 hvcurveto
            48 123 rlineto
            284 hlineto
            58 -146 rlineto
            2 -5 3 -7 -5 vvcurveto
            -28 -54 0 -27 111 callgsubr
            47 75 -3 -1 11 hvcurveto
            -278 263 rmoveto
            -256 hlineto
            128 325 rlineto
            return
          </CharString>
          <CharString index="1">
            hstemhm
            hintmask 11100000
            -107 callsubr
            return
          </CharString>
          <CharString index="2">
            104 callsubr
            4 -2 10 -15 -13 -2 -6 -10 -3 vhcurveto
            -81 -31 -76 -15 -36 hhcurveto
            -47 -45 21 38 -30 hvcurveto
            -37 47 -1 61 39 vvcurveto
            310 hlineto
            21 7 0 22 88 -49 108 -149 -131 -100 -104 -123 -127 111 -102 133 135 50 108 22 147 callsubr
            -267 hlineto
            141 11 90 23 38 hhcurveto
            123 4 -139 -25 1 hvcurveto
            return
          </CharString>
          <CharString index="3">
            45 callsubr
            125 -107 108 -138 -138 -107 -108 -125 -124 110 -99 135 135 110 99 124 vhcurveto
            -91 9 rmoveto
            -48 -3 -53 -29 -41 vhcurveto
            -38 -27 -46 -20 -49 hhcurveto
            -37 -54 12 49 -33 hvcurveto
            -27 41 -3 52 46 vvcurveto
            43 1 59 35 43 vhcurveto
            29 25 42 22 51 hhcurveto
            59 42 -28 -31 22 hvcurveto
            28 -39 3 -50 -48 vvcurveto
            return
          </CharString>
          <CharString index="4">
            -20 11 callsubr
            hintmask 01100111
            544 90 rmoveto
            -106 callgsubr
            hintmask 10000000
            -48 callgsubr
            hintmask 01000001
            -67 callsubr
            hintmask 10000110
            -69 callsubr
            return
          </CharString>
          <CharString index="5">
            728 263 rmoveto
            -34 hlineto
            -151 -26 -23 -76 -185 hhcurveto
            -158 hlineto
            -47 -1 8 31 hvcurveto
            260 101 vlineto
            101 15 -30 -87 hvcurveto
            34 270 -34 hlineto
            -87 -15 -30 -101 vhcurveto
            -101 233 hlineto
            31 1 8 47 vhcurveto
            150 hlineto
            return
          </CharString>
          <CharString index="6">
            -20 -106 callsubr
            hintmask 00011000
            return
          </CharString>
          <CharString index="7">
            rmoveto
            -28 hlineto
            -86 -2 -71 -47 -66 hhcurveto
            -66 -71 47 86 -2 hvcurveto
            -28 hlineto
            -105 2 77 -73 88 hhcurveto
            88 77 73 105 2 hvcurveto
            return
          </CharString>
          <CharString index="8">
            rmoveto
            23 -19 28 -40 -15 -54 -3 -43 -47 vhcurveto
            22 -30 -42 14 -44 hhcurveto
            -103 -75 -69 -78 -39 20 -36 28 -26 hvcurveto
            -8 -9 -22 -33 -39 vvcurveto
            -13 3 -47 39 -29 vhcurveto
            hintmask 1011000101010000
            -45 -15 -52 -33 -52 vvcurveto
            -73 110 -55 135 127 118 50 80 30 -12 54 -55 30 vhcurveto
            31 -59 -59 0 -97 hhcurveto
            -22 -36 0 1 -8 hvcurveto
            -32 7 -18 30 29 vvcurveto
            25 7 8 6 8 vhcurveto
            -9 15 36 -22 58 hhcurveto
            103 75 69 78 39 -18 31 -24 26 hvcurveto
            32 45 39 1 17 hhcurveto
            -4 -4 -5 -4 -16 vvcurveto
            -20 15 -12 17 14 18 10 23 vhcurveto
            -194 -106 rmoveto
            -16 0 -40 -20 -26 vhcurveto
            -17 -14 -27 -18 -36 hhcurveto
            hintmask 1000100011000000
            -98 0 96 21 16 0 40 20 26 hvcurveto
            17 14 27 18 36 hhcurveto
            98 0 -96 -21 hvcurveto
            117 -370 rmoveto
            -53 -79 -46 -105 vhcurveto
            hintmask 0100000100010000
            -105 -79 47 52 35 32 43 64 1 hvcurveto
            58 hlineto
            89 125 0 -79 hvcurveto
            return
          </CharString>
          <CharString index="9">
            -40 callsubr
            -18 12 -25 32 18 12 12 0 -21 0 -63 -58 -53 vhcurveto
            -3 -3 -2 -3 -3 vvcurveto
            -5 5 -7 5 10 64 60 90 vhcurveto
            endchar
          </CharString>
          <CharString index="10">
            786 647 rmoveto
            36 vlineto
            -3 -41 -40 -1 -41 hhcurveto
            23 callgsubr
            103 0 -45 -27 hvcurveto
            -424 vlineto
            -384 517 rlineto
            14 -11 -1 1 -20 hhcurveto
            -173 -36 30 hlineto
            43 25 -5 -1 5 hvcurveto
            -533 vlineto
            -27 0 -45 -103 120 callgsubr
            41 40 1 41 hhcurveto
            41 40 -1 -3 41 hvcurveto
            36 vlineto
            -103 0 45 27 hvcurveto
            505 vlineto
            444 -598 rlineto
            -14 10 1 -1 12 hhcurveto
            19 0 9 19 hvcurveto
            547 vlineto
            27 0 45 103 vhcurveto
            return
          </CharString>
          <CharString index="11">
            -1 callgsubr
            hintmask 1110011010000000
            -102 callsubr
            hintmask 1010010100000000
            -75 callsubr
            hintmask 0001100000000000
            return
          </CharString>
          <CharString index="12">
            rmoveto
            -60 140 rlineto
            15 -6 -8 17 -24 hhcurveto
            -18 -24 -15 -25 -14 6 -8 8 -9 hvcurveto
            97 -119 rlineto
            -156 18 rmoveto
            -60 140 rlineto
            15 -6 -8 17 -24 hhcurveto
            -18 -24 -15 -25 -14 6 -8 8 -9 hvcurveto
            97 -119 rlineto
            endchar
          </CharString>
          <CharString index="13">
            rmoveto
            -92 callgsubr
            return
          </CharString>
          <CharString index="14">
            -20 41 callsubr
            hintmask 11001100
            -103 callgsubr
            hintmask 00110000
            return
          </CharString>
          <CharString index="15">
            71 callgsubr
            268 70 hintmask 11100110
            -105 callsubr
            hintmask 00011000
            return
          </CharString>
          <CharString index="16">
            1121 647 rmoveto
            36 vlineto
            -1 -10 -54 -3 -29 hhcurveto
            -42 -43 2 2 -42 hvcurveto
            -36 vlineto
            57 -1 27 -24 -26 vvcurveto
            -4 0 -2 -5 -13 vhcurveto
            -165 -462 -175 490 rlineto
            -4 11 0 3 0 vvcurveto
            28 57 0 26 vhcurveto
            36 vlineto
            -149 -4 rlineto
            23 callgsubr
            53 17 -2 -13 11 hvcurveto
            7 -8 13 -37 8 -23 -161 -449 rcurveline
            -174 486 rlineto
            -5 13 0 2 3 vvcurveto
            28 57 0 26 vhcurveto
            36 vlineto
            -149 -4 rlineto
            23 callgsubr
            62 18 0 -37 13 hvcurveto
            217 -607 rlineto
            -17 6 5 -6 16 hhcurveto
            18 3 10 13 5 hvcurveto
            183 511 183 -511 rlineto
            -13 5 3 -10 18 hhcurveto
            17 4 7 16 6 hvcurveto
            207 578 rlineto
            36 13 24 30 66 hhcurveto
            return
          </CharString>
          <CharString index="17">
            786 hmoveto
            36 -24 vlineto
            -77 -2 10 35 hvcurveto
            521 -96 callgsubr
            -229 -334 229 -96 callgsubr
            -521 -53 callsubr
            150 4 151 -49 callsubr
            256 334 -256 -53 callsubr
            150 4 rlineto
            return
          </CharString>
          <CharString index="18">
            164 29 -54 -140 18 hvcurveto
            34 hlineto
            -30 230 rlineto
            -611 -72 callsubr
            return
          </CharString>
          <CharString index="19">
            817 91 rmoveto
            7 0 12 -17 -15 -1 -9 -10 -1 vhcurveto
            -58 -5 -33 -25 -31 hhcurveto
            -57 -8 59 91 -12 hvcurveto
            -11 80 -3 16 -29 33 -10 11 -28 26 -54 17 rrcurveto
            90 21 90 59 81 vvcurveto
            100 -132 81 -155 vhcurveto
            -337 -36 callsubr
            hlineto
            return
          </CharString>
          <CharString index="20">
            4 3 0 1 3 hvcurveto
            -12 -21 -21 -16 -24 -5 rrcurveto
            39 -60 -71 22 -73 hhcurveto
            -97 -94 -38 -69 -69 hvcurveto
            -69 -68 -39 -93 -97 vvcurveto
            -95 40 -91 68 -67 vhcurveto
            -68 69 94 -37 97 hhcurveto
            97 93 37 68 70 hvcurveto
            68 67 40 91 95 vvcurveto
            -107 17 rmoveto
            -87 -18 -88 -52 -69 vhcurveto
            -60 -46 -70 -38 -75 hhcurveto
            -75 -70 38 60 -46 hvcurveto
            -52 69 -18 88 87 vvcurveto
            81 19 82 51 62 vhcurveto
            58 47 70 34 74 hhcurveto
            74 70 -34 -58 47 hvcurveto
            51 -62 19 -82 -81 vvcurveto
            return
          </CharString>
          <CharString index="21">
            -43 -10 0 -65 vhcurveto
            -36 vlineto
            return
          </CharString>
          <CharString index="22">
            -11 callsubr
            526 vlineto
            33 0 13 94 vhcurveto
            35 36 hlineto
            -175 -4 -152 4 rlineto
            -36 24 vlineto
            77 2 -10 -35 hvcurveto
            -521 10 callsubr
            return
          </CharString>
          <CharString index="23">
            -154 -54 callgsubr
            75 0 -3 -89 hvcurveto
            -150 vlineto
            -69 0 -93 167 22 73 0 84 48 vhcurveto
            1 -84 hlineto
            return
          </CharString>
          <CharString index="24">
            vlineto
            -34 -2 -11 -77 vhcurveto
            -24 return
          </CharString>
          <CharString index="25">
            rmoveto
            -20 20 rlineto
            hintmask 00100000
            -31 -29 -29 -15 -28 hhcurveto
            hintmask 00010000
            -26 -30 15 5 -8 hvcurveto
            hintmask 00000100
            17 -36 -21 9 -22 hhcurveto
            hintmask 00010000
            -41 -15 -16 -64 -63 hvcurveto
            hintmask 00100000
            20 -20 rlineto
            hintmask 00000100
            31 29 29 15 28 hhcurveto
            hintmask 00001000
            26 30 -15 -5 8 hvcurveto
            hintmask 00100000
            -17 36 21 -9 22 hhcurveto
            hintmask 00001000
            41 15 16 64 63 hvcurveto
            endchar
          </CharString>
          <CharString index="26">
            819 hmoveto
            36 vlineto
            -54 -23 2 50 -38 hvcurveto
            -251 328 203 173 49 42 51 15 48 1 rlinecurve
            36 vlineto
            -2 -28 -29 -2 -28 hhcurveto
            -138 4 -18 callgsubr
            14 23 -5 -24 -7 -4 -11 -5 -5 hvcurveto
            -355 -304 rlineto
            311 -96 callgsubr
            -521 -53 callsubr
            150 4 151 -49 callsubr
            165 vlineto
            135 115 204 -266 rlineto
            6 -8 9 -11 -13 vvcurveto
            -27 -35 0 -18 111 callgsubr
            35 66 -3 -1 14 hvcurveto
            return
          </CharString>
          <CharString index="27">
            744 234 rmoveto
            11 -1 8 -16 -6 -10 0 -13 -1 vhcurveto
            -161 -8 -136 -63 -99 hhcurveto
            -107 -183 65 260 271 194 55 94 99 118 -66 -172 26 hvcurveto
            34 callgsubr
            18 0 6 20 hvcurveto
            234 vlineto
            17 0 9 -14 -4 -5 0 -12 -8 vhcurveto
            -53 -76 rlineto
            42 -42 -69 46 -96 hhcurveto
            -210 -173 -162 -199 return
          </CharString>
          <CharString index="28">
            rmoveto
            -20 20 rlineto
            hintmask 0000100000000000
            -31 -29 -29 -15 -28 99 callsubr
            -26 -30 15 5 -8 hvcurveto
            hintmask 0000000100000000
            17 -36 -21 9 -22 99 callsubr
            -41 -15 -16 -64 -63 hvcurveto
            hintmask 0000100000000000
            20 -20 rlineto
            hintmask 0000000100000000
            31 29 29 15 28 146 callgsubr
            26 30 -15 -5 8 hvcurveto
            hintmask 0000100000000000
            -17 36 21 -9 22 146 callgsubr
            41 15 16 64 63 hvcurveto
            endchar
          </CharString>
          <CharString index="29">
            rmoveto
            -51 -44 -2 -23 -23 -44 2 51 49 38 4 29 29 38 -4 -49 vhcurveto
            42 -1 rmoveto
            50 -49 39 -60 -63 -46 -42 -45 -50 49 -39 60 63 46 42 45 vhcurveto
            return
          </CharString>
          <CharString index="30">
            169 rmoveto
            66 -39 56 -58 34 vhcurveto
            -62 36 rlineto
            78 38 50 47 69 vvcurveto
            97 -101 52 -97 -110 -90 -72 -95 -47 22 -34 18 -20 vhcurveto
            18 -21 7 -4 59 -35 rrcurveto
            hintmask 10100100
            -56 -24 -99 -54 -105 vvcurveto
            -111 115 -62 114 127 104 81 108 vhcurveto
            -84 346 rmoveto
            -89 -106 -45 0 vhcurveto
            0 -4 1 -7 4 vhcurveto
            -121 70 rlineto
            hintmask 11011000
            -26 15 -28 27 37 vvcurveto
            63 73 37 72 78 69 -49 -71 vhcurveto
            24 -381 rmoveto
            -75 -83 -47 -86 vhcurveto
            hintmask 00100100
            -92 -79 59 82 74 55 57 72 33 hvcurveto
            56 -32 2 0 79 -47 rrcurveto
            26 -15 50 -30 -59 vvcurveto
            endchar
          </CharString>
          <CharString index="31">
            -147 -67 callgsubr
            -259 -65 callsubr
            36 vlineto
            -6 callsubr
            return
          </CharString>
          <CharString index="32">
            -89 callsubr
            627 hlineto
            hintmask 0000000010000000
            return
          </CharString>
          <CharString index="33">
            rmoveto
            25 -24 15 -18 -24 -8 -17 -15 -6 vhcurveto
            -60 -140 29 -18 97 119 rlineto
            8 9 6 8 14 vvcurveto
            185 hmoveto
            25 -24 15 -18 -24 -8 -17 -15 -6 vhcurveto
            -60 -140 29 -18 97 119 rlineto
            8 9 6 8 14 vvcurveto
            endchar
          </CharString>
          <CharString index="34">
            20 29 0 -1 10 hvcurveto
            22 -4 0 -11 -23 vvcurveto
            -519 vlineto
            -33 0 -13 -104 vhcurveto
            -42 -36 hlineto
            4 49 93 0 52 hhcurveto
            52 92 0 -4 49 hvcurveto
            36 -42 vlineto
            -104 0 13 33 148 callgsubr
            23 0 11 22 4 vhcurveto
            hintmask 00100000
            1 10 29 0 20 hhcurveto
            56 43 0 -20 35 hvcurveto
            45 -27 7 -64 1 -5 9 -78 rcurveline
            return
          </CharString>
          <CharString index="35">
            -64 callsubr
            -517 -77 callgsubr
            return
          </CharString>
          <CharString index="36">
            50 vlineto
            -155 -11 rlineto
            -35 vlineto
            22 28 0 -10 13 hvcurveto
            11 -8 1 -18 -16 vvcurveto
            -183 vlineto
            -78 -1 -56 -63 -71 hhcurveto
            -38 -27 5 18 -17 hvcurveto
            -14 15 -2 23 42 vvcurveto
            319 vlineto
            -155 -11 rlineto
            -35 vlineto
            22 28 0 -10 13 hvcurveto
            12 -9 0 -20 -17 vvcurveto
            -217 vlineto
            -40 14 -38 30 -22 vhcurveto
            return
          </CharString>
          <CharString index="37">
            -57 callsubr
            hintmask 10000100
            -51 callsubr
            return
          </CharString>
          <CharString index="38">
            -96 -84 -27 -45 -51 -48 34 49 55 48 77 180 7 vhcurveto
            return
          </CharString>
          <CharString index="39">
            -36 vlineto
            148 4 149 -49 callsubr
            247 133 vlineto
            18 52 0 -41 44 hvcurveto
            35 -31 0 -25 -67 vvcurveto
            -65 0 -41 46 -38 vhcurveto
            return
          </CharString>
          <CharString index="40">
            -41 4 27 -38 46 hhcurveto
            0 99 0 95 vvcurveto
            -187 51 rmoveto
            return
          </CharString>
          <CharString index="41">
            48 vstem
            683 342 rmoveto
            188 -153 153 -188 -189 -153 -153 -188 -189 153 -153 189 188 153 153 189 vhcurveto
            -48 hmoveto
            -163 -131 -131 -162 -163 -131 131 163 162 131 131 163 162 131 -131 -162 vhcurveto
            return
          </CharString>
          <CharString index="42">
            -43 callgsubr
            -7 callgsubr
            vhcurveto
            return
          </CharString>
          <CharString index="43">
            -36 24 hlineto
            77 2 -10 -35 hvcurveto
            return
          </CharString>
          <CharString index="44">
            -20 73 callgsubr
            -38 103 86 103 -101 79 -4 79 hintmask 0100100000001000
            590 76 callgsubr
            349 vlineto
            hintmask 0001000000010000
            -154 -54 callgsubr
            hintmask 1010100010001000
            -68 callgsubr
            hintmask 1011000010010000
            -84 callsubr
            hintmask 0100000000000000
            hintmask 0000011101100000
            6 callgsubr
            return
          </CharString>
          <CharString index="45">
            28 -18 30 -40 -28 -9 -10 -9 -7 vhcurveto
            32 0 82 79 70 vhcurveto
            7 6 2 3 5 vvcurveto
            6 -7 9 -7 -12 -90 -77 -123 -59 24 -50 49 38 19 30 27 vhcurveto
            return
          </CharString>
          <CharString index="46">
            rmoveto
            -10 16 -140 -66 -140 66 -12 -16 151 -117 rlineto
            endchar
          </CharString>
          <CharString index="47">
            -143 -67 callgsubr
            -259 -6 callgsubr
            5 68 4 41 hhcurveto
            30 callsubr
            return
          </CharString>
          <CharString index="48">
            27 callsubr
            61 -16 124 -121 99 vhcurveto
            74 100 -25 20 -75 -101 rlineto
            49 -74 -74 13 -57 hhcurveto
            -205 -163 -165 -200 -109 52 -101 85 -68 hvcurveto
            -74 -99 25 -19 74 98 rlineto
            -46 76 67 -14 63 hhcurveto
            205 163 162 196 hvcurveto
            -189 269 rmoveto
            -381 -508 rlineto
            -49 57 -22 78 105 vvcurveto
            303 202 33 71 64 63 -22 -46 52 vhcurveto
            94 -268 rmoveto
            -86 -13 -80 -54 -70 vhcurveto
            -44 -34 -72 -51 -100 hhcurveto
            -91 -62 43 24 -26 hvcurveto
            380 508 rlineto
            64 -73 8 -106 -65 vvcurveto
            return
          </CharString>
          <CharString index="49">
            47 11 32 49 53 vvcurveto
            -112 -252 rmoveto
            -52 -2 -54 -32 -42 vhcurveto
            -36 -28 -45 -19 -46 hhcurveto
            -46 -45 19 36 -28 hvcurveto
            -31 42 -3 54 52 vvcurveto
            49 4 52 30 38 vhcurveto
            hintmask 01000000
            36 29 44 19 46 hhcurveto
            46 45 -19 -36 28 hvcurveto
            31 -38 3 -52 -49 vvcurveto
            return
          </CharString>
          <CharString index="50">
            hintmask 10100010
            274 hmoveto
            36 vlineto
            -58 -10 0 42 hvcurveto
            363 vlineto
            hintmask 01000010
            -45 callsubr
            return
          </CharString>
          <CharString index="51">
            rmoveto
            78 -64 78 -110 23 vhcurveto
            105 38 38 75 61 vvcurveto
            79 -91 59 -111 -111 -85 -54 -80 -34 22 -19 30 31 20 23 28 29 -20 21 -31 2 vhcurveto
            44 35 69 11 37 hhcurveto
            45 63 -22 -87 -42 -14 -46 -26 -31 hvcurveto
            -33 -38 -28 -2 -50 -3 -25 -2 -2 0 -5 -1 rrcurveto
            0 -10 -2 -11 vvcurveto
            -14 9 0 17 vhcurveto
            54 hlineto
            return
          </CharString>
          <CharString index="52">
            36 -24 148 callsubr
            35 hvcurveto
            return
          </CharString>
          <CharString index="53">
            -43 -1 48 -58 69 hhcurveto
            54 60 40 62 13 hvcurveto
            3 20 -28 11 -5 -19 -11 -39 -33 -19 -31 2 return
          </CharString>
          <CharString index="54">
            -77 callgsubr
            hlineto
            return
          </CharString>
          <CharString index="55">
            36 vlineto
            -65 -10 0 43 hvcurveto
            return
          </CharString>
          <CharString index="56">
            -14 callgsubr
            35 36 -1 -3 35 vhcurveto
            return
          </CharString>
          <CharString index="57">
            -74 0 11 34 hvcurveto
            147 vlineto
            84 39 101 95 vhcurveto
            -9 -7 -8 -13 -16 vvcurveto
            -33 26 -13 19 24 22 16 30 vhcurveto
            return
          </CharString>
          <CharString index="58">
            -4 rlineto
            -55 callsubr
            return
          </CharString>
          <CharString index="59">
            1137 -20 28 -8 36 -28 28 301 36 274 36 -8 28 hstemhm
            84 103 267 83 38 83 244 34 96 34 -3 34 hintmask 0101100011010000
            1097 263 rmoveto
            -34 hlineto
            -150 -26 -19 -77 -177 hhcurveto
            -135 hlineto
            -47 -1 8 31 hvcurveto
            262 120 vlineto
            101 23 -24 -93 hvcurveto
            34 270 -34 hlineto
            -93 -23 -24 -101 vhcurveto
            -120 235 hlineto
            31 1 8 47 vhcurveto
            130 hlineto
            hintmask 0000100000100000
            155 24 -57 -137 17 -19 callsubr
            -417 hlineto
            -10 -22 0 9 -49 hvcurveto
            hintmask 1000011100000000
            11 -56 -16 0 -16 hhcurveto
            -198 -168 -161 -204 -200 168 -158 198 11 23 0 10 53 hvcurveto
            hintmask 0100000000010000
            8 37 25 2 20 hhcurveto
            433 hlineto
            -477 191 rmoveto
            hintmask 0010011110000000
            -154 -31 -29 -90 -148 -119 155 191 182 121 139 146 90 31 -29 -154 vhcurveto
            endchar
          </CharString>
          <CharString index="60">
            -25 35 41 -6 54 hhcurveto
            60 50 35 52 26 hvcurveto
            -87 vlineto
            151 10 rlineto
            36 vlineto
            -22 -28 0 9 -13 hvcurveto
            -12 9 0 20 17 vvcurveto
            262 vlineto
            68 12 58 44 65 vvcurveto
            return
          </CharString>
          <CharString index="61">
            1014 0 36 274 36 262 36 3 36 hstemhm
            268 34 -1 89 77 89 207 34 112 34 -3 34 hintmask 1111001101000000
            974 263 rmoveto
            -34 hlineto
            -150 -26 -18 -77 -174 hhcurveto
            -118 hlineto
            -47 -1 8 31 hvcurveto
            235 96 vlineto
            99 12 -32 -85 145 callgsubr
            -12 -31 -99 vhcurveto
            -96 262 hlineto
            31 1 8 47 vhcurveto
            116 hlineto
            hintmask 1101101010000000
            150 22 -59 -135 17 102 callgsubr
            50 hlineto
            12 9 0 -1 12 hvcurveto
            -221 -543 rlineto
            -54 -22 -46 -13 -50 hhcurveto
            -36 vlineto
            3 34 34 1 34 hhcurveto
            40 40 -1 -3 40 hvcurveto
            36 vlineto
            -57 1 -14 30 16 vvcurveto
            7 2 3 4 11 vhcurveto
            84 206 rlineto
            180 -230 hlineto
            hintmask 1110011001000000
            -44 -10 0 -67 vhcurveto
            -36 539 vlineto
            -462 346 rmoveto
            -166 hlineto
            122 298 rlineto
            44 -1 0 -26 -17 vvcurveto
            endchar
          </CharString>
          <CharString index="62">
            26 callgsubr
            63 9 -6 -49 hvcurveto
            -260 vlineto
            return
          </CharString>
          <CharString index="63">
            -74 callgsubr
            endchar
          </CharString>
          <CharString index="64">
            -13 0 -11 -16 hvcurveto
            -295 vlineto
            -17 0 -12 16 9 1 2 12 10 vhcurveto
            55 43 61 8 35 hhcurveto
            60 27 -48 -8 5 hvcurveto
            18 -33 6 -38 -58 vvcurveto
            -30 0 -59 -30 -44 vhcurveto
            -36 -25 -43 -24 -49 hhcurveto
            -65 -67 36 66 -25 hvcurveto
            38 -3 19 25 27 vvcurveto
            43 -37 8 -13 vhcurveto
            return
          </CharString>
          <CharString index="65">
            -20 hstemhm
            46 91 224 95 hintmask 1100100100000000
            -9 callsubr
            hintmask 1101000110000000
            -18 -8 -10 -16 -20 vvcurveto
            -27 19 -20 28 27 21 17 32 89 -139 0 -28 76 callsubr
            -126 107 -100 131 149 35 118 12 vhcurveto
            hintmask 0000011000000000
            return
          </CharString>
          <CharString index="66">
            vlineto
            -14 callgsubr
            38 37 -1 -3 38 vhcurveto
            -52 callsubr
            return
          </CharString>
          <CharString index="67">
            rmoveto
            45 -17 37 -35 -26 -17 -20 -23 return
          </CharString>
          <CharString index="68">
            -100 callsubr
            -55 50 rmoveto
            -19 -30 -86 43 -68 30 -21 12 rlinecurve
            -18 8 -10 5 -3 19 rrcurveto
            25 -4 19 23 26 hhcurveto
            12 8 -6 -8 9 hvcurveto
            endchar
          </CharString>
          <CharString index="69">
            805 338 rmoveto
            97 -39 93 -69 68 vhcurveto
            -8 8 -8 7 -8 7 rrcurveto
            44 13 29 47 51 vvcurveto
            36 -23 33 119 callsubr
            -28 70 callsubr
            return
          </CharString>
          <CharString index="70">
            569 -10 28 -23 38 385 28 return
          </CharString>
          <CharString index="71">
            -64 callsubr
            -521 -83 callsubr
            return
          </CharString>
          <CharString index="72">
            877 -10 28 73 28 104 28 -23 26 164 28 hstemhm
            39 84 306 79 259 70 hintmask 01010010
            837 120 rmoveto
            4 -2 10 -15 -13 -2 -6 -9 -3 vhcurveto
            -72 -24 -59 -25 -47 hhcurveto
            -19 -145 6 200 hvcurveto
            301 hlineto
            hintmask 11101101
            22 6 0 23 88 -45 107 -140 -84 -67 -47 -52 -33 hvcurveto
            61 -44 -70 38 -80 hhcurveto
            -129 -106 -101 -126 -125 104 -104 132 68 76 30 71 49 hvcurveto
            -94 73 90 -7 35 hhcurveto
            123 48 107 23 147 callsubr
            hintmask 10011001
            -257 hlineto
            129 9 85 35 47 hhcurveto
            110 5 -135 -29 1 hvcurveto
            -338 -31 rmoveto
            -205 -145 0 -9 vhcurveto
            hintmask 00101110
            -26 -126 11 194 185 125 10 27 30 124 -15 -180 hvcurveto
            endchar
          </CharString>
          <CharString index="73">
            569 -10 28 -18 139 callsubr
            -28 28 245 28 hstemhm
            49 75 0 75 -43 75 0 76 108 83 -52 83 hintmask 0110110101000000
            529 174 rmoveto
            112 -74 95 -93 34 vhcurveto
            95 30 41 62 53 vvcurveto
            78 -82 66 -107 -85 -100 -48 -103 vhcurveto
            -122 -75 -36 75 -316 110 callgsubr
            36 35 1 36 hhcurveto
            hintmask 0110101001000000
            19 20 -3 -1 4 hvcurveto
            554 vlineto
            115 91 7 19 46 60 -31 -84 -73 -52 -52 -82 -5 vhcurveto
            -11 -1 -9 0 -13 vvcurveto
            hintmask 1001000010100000
            -13 9 -1 6 vhcurveto
            113 -8 57 -104 -117 vvcurveto
            -130 -77 -26 -35 -6 -23 0 15 -20 vhcurveto
            3 1 19 10 24 vvcurveto
            23 -19 15 -19 -17 -21 -11 -28 -43 42 -34 62 101 93 77 107 vhcurveto
            endchar
          </CharString>
          <CharString index="74">
            -47 -26 -51 -40 -65 hhcurveto
            -56 -40 33 29 -20 hvcurveto
            -20 30 -12 40 64 vvcurveto
            23 0 75 41 47 vhcurveto
            45 40 49 9 29 hhcurveto
            48 43 -22 -36 28 hvcurveto
            12 -16 0 -1 -19 vvcurveto
            return
          </CharString>
          <CharString index="75">
            -30 callsubr
            -20 return
          </CharString>
          <CharString index="76">
            -38 -8 -90 -67 -3 -24 0 10 -23 vhcurveto
            2 1 23 12 30 vvcurveto
            27 -20 20 -27 -29 -19 -20 -28 -54 60 -26 61 return
          </CharString>
          <CharString index="77">
            843 0 36 191 36 450 return
          </CharString>
          <CharString index="78">
            601 rmoveto
            -102 callgsubr
            189 hmoveto
            -102 callgsubr
            return
          </CharString>
          <CharString index="79">
            816 0 71 604 28 hstem
            70 107 460 107 vstem
            757 168 rmoveto
            -34 hlineto
            -1 -3 -9 -47 -8 -23 rrcurveto
            -16 -6 -3 -8 -62 hhcurveto
            -85 hlineto
            17 56 29 39 56 75 rrcurveto
            49 66 44 66 81 vvcurveto
            135 -145 114 -192 -192 -145 -114 -135 -88 48 -65 70 -94 vhcurveto
            29 -38 32 -45 16 -53 rrcurveto
            -85 hlineto
            -60 -4 8 11 -5 hvcurveto
            -8 19 -12 59 0 vvcurveto
            -34 hlineto
            36 -168 rlineto
            180 hlineto
            21 7 0 22 72 -37 85 -21 49 hvcurveto
            -38 88 -28 65 74 vvcurveto
            142 113 78 117 118 112 -79 -141 -75 -30 -69 -34 -78 vhcurveto
            -22 -50 -38 -88 -72 vvcurveto
            -23 6 0 23 vhcurveto
            179 hlineto
            endchar
          </CharString>
          <CharString index="80">
            25 -18 18 -25 -26 -18 -18 -26 -47 47 -35 54 vhcurveto
            hintmask 00110000
            85 49 89 30 14 hvcurveto
            194 418 rlineto
            61 28 51 1 16 hhcurveto
            return
          </CharString>
          <CharString index="81">
            46 callgsubr
            217 34 158 34 -3 34 return
          </CharString>
          <CharString index="82">
            -78 callsubr
            3 226 -104 callgsubr
          </CharString>
          <CharString index="83">
            -150 -67 callgsubr
            -512 110 callgsubr
            37 37 1 37 hhcurveto
            37 37 -1 -3 37 hvcurveto
            -52 callsubr
            95 vlineto
            72 56 109 -135 rlineto
            11 -13 12 -15 -13 vvcurveto
            -16 -18 -2 -10 vhcurveto
            -36 vlineto
            1 13 71 3 29 hhcurveto
            29 29 -2 -2 29 hvcurveto
            return
          </CharString>
          <CharString index="84">
            54 -34 54 -48 54 -34 54 hstemhm
            return
          </CharString>
          <CharString index="85">
            hmoveto
            36 vlineto
            -37 -22 3 35 -29 hvcurveto
            -161 197 123 95 33 27 69 2 rlinecurve
            36 vlineto
            -2 -21 -26 -2 -21 hhcurveto
            -40 -40 138 callgsubr
            13 -2 5 -8 -8 vvcurveto
            -16 -19 -19 -12 -9 vhcurveto
            return
          </CharString>
          <CharString index="86">
            3 vlineto
            -21 81 -34 77 -46 69 46 69 34 77 21 80 rrcurveto
            3 vlineto
            7 -5 5 -7 vhcurveto
            -4 hlineto
            -5 -5 -3 -4 -1 hvcurveto
            -33 -86 -52 -78 -68 -61 rrcurveto
            -2 -3 -2 -3 -3 vvcurveto
            -4 2 -3 2 -2 vhcurveto
            68 -62 52 -77 33 -86 rrcurveto
            -5 1 5 -3 5 hhcurveto
            4 hlineto
            7 5 5 7 hvcurveto
            return
          </CharString>
          <CharString index="87">
            -103 callsubr
            hintmask 00011010
            return
          </CharString>
          <CharString index="88">
            hvcurveto
            34 hlineto
            -30 230 rlineto
            return
          </CharString>
          <CharString index="89">
            rmoveto
            -46 callgsubr
            return
          </CharString>
          <CharString index="90">
            45 callsubr
            125 -107 108 -138 -138 -107 -108 -125 -113 91 -92 119 -16 vhcurveto
            -37 -31 -37 -51 -41 vvcurveto
            -54 callsubr
            -73 3 -21 53 26 51 11 22 16 20 18 15 rrcurveto
            132 3 107 98 122 vvcurveto
            -91 9 rmoveto
            -48 -3 -53 -29 -41 vhcurveto
            -38 -27 -46 -20 -49 hhcurveto
            -37 -54 12 49 -33 hvcurveto
            -27 41 -3 52 46 vvcurveto
            43 1 59 35 43 vhcurveto
            29 25 42 22 51 hhcurveto
            59 42 -28 -31 22 hvcurveto
            28 -39 3 -50 -48 vvcurveto
            return
          </CharString>
          <CharString index="91">
            329 rmoveto
            248 -110 87 -117 vhcurveto
            hintmask 1111011010000000
            -33 -69 -5 -56 -57 hvcurveto
            -34 -33 -40 -39 -90 vvcurveto
            -127 101 -94 117 80 43 53 45 23 vhcurveto
            -15 callsubr
            -130 -75 -52 -63 -39 -37 13 46 -28 vhcurveto
            -23 37 0 42 55 vvcurveto
            58 0 40 29 40 vhcurveto
            35 24 33 21 52 hhcurveto
            51 30 -32 -26 16 hvcurveto
            hintmask 0000000100000000
            27 -42 3 -70 -35 vvcurveto
            endchar
          </CharString>
          <CharString index="92">
            -20 vlineto
            -248 -123 -38 -60 -22 -53 2 31 -27 vhcurveto
            41 4 3 34 9 vvcurveto
            25 -17 22 -30 -30 -18 -20 -29 -68 57 -42 97 143 135 135 214 vhcurveto
            -99 101 rmoveto
            return
          </CharString>
          <CharString index="93">
            640 474 rmoveto
            37 -23 35 119 callsubr
            -29 70 callsubr
            7 1 -16 -21 -28 -14 -31 -6 rlinecurve
            return
          </CharString>
          <CharString index="94">
            204 rmoveto
            127 -101 94 -117 -80 -44 -53 -45 -22 vhcurveto
            82 7 74 38 61 vhcurveto
            54 34 54 37 64 hhcurveto
            30 40 -8 -27 20 hvcurveto
            -25 -2 -21 -17 -29 vvcurveto
            hintmask 1001010010000000
            -25 17 -22 30 30 18 20 29 58 -42 52 -99 -144 -147 -132 -215 -259 122 -78 110 vhcurveto
            hintmask 1110001101000000
            122 106 93 131 hvcurveto
            -96 hmoveto
            -57 0 -42 -27 -39 vhcurveto
            -35 -24 -32 -19 -49 hhcurveto
            -50 -39 29 44 -21 hvcurveto
            -15 30 -8 50 60 vvcurveto
            97 58 75 80 46 31 -18 -37 25 vhcurveto
            24 -38 1 -42 -58 vvcurveto
            endchar
          </CharString>
          <CharString index="95">
            -399 8 callgsubr
            return
          </CharString>
          <CharString index="96">
            651 263 rmoveto
            -34 hlineto
            -98 -11 -15 -129 -189 hhcurveto
            -100 hlineto
            -47 -1 8 31 hvcurveto
            return
          </CharString>
          <CharString index="97">
            78 56 -54 -107 -124 -72 -37 -58 -40 -88 11 59 -42 hvcurveto
            47 2 11 33 21 vvcurveto
            32 -24 23 -31 -28 -28 -17 -41 -94 104 -61 121 139 96 93 100 vhcurveto
            endchar
          </CharString>
          <CharString index="98">
            -26 callgsubr
            hintmask 0010000000000000
            13 48 0 -15 36 hvcurveto
            return
          </CharString>
          <CharString index="99">
            -83 -78 -84 -117 -121 80 -81 81 81 64 89 112 return
          </CharString>
          <CharString index="100">
            768 0 36 -32 32 274 32 305 36 hstemhm
            161 91 0 107 231 107 hintmask 10011000
            697 495 rmoveto
            99 -112 89 -147 vhcurveto
            -380 94 callsubr
            hlineto
            hintmask 01000000
            150 4 rlineto
            hintmask 10110110
            151 -49 callsubr
            229 182 vlineto
            145 114 84 101 hvcurveto
            -107 hmoveto
            -44 0 -109 -177 vhcurveto
            -161 266 hlineto
            31 1 8 47 vhcurveto
            113 hlineto
            167 10 -94 -58 hvcurveto
            endchar
          </CharString>
          <CharString index="101">
            -65 -10 0 43 hvcurveto
            180 vlineto
            return
          </CharString>
          <CharString index="102">
            rmoveto
            22 -80 268 vlineto
            12 0 4 -16 -8 -3 0 -8 -7 vhcurveto
            -239 -276 rlineto
            -22 212 -49 vlineto
            -20 0 -7 -58 vhcurveto
            -20 -22 hlineto
            108 2 109 -2 rlineto
            22 -20 vlineto
            -58 0 7 20 hvcurveto
            49 vlineto
            -6 565 rmoveto
            14 -11 10 -13 -9 -7 -4 -6 -4 vhcurveto
            -456 -643 rlineto
            -2 -4 -2 -5 -5 vvcurveto
            -13 11 -11 13 8 7 4 6 5 vhcurveto
            455 643 rlineto
            3 4 2 5 5 vvcurveto
            -50 -543 rmoveto
            -190 hlineto
            190 220 rlineto
            endchar
          </CharString>
          <CharString index="103">
            -31 callsubr
            vhcurveto
            hintmask 0000000010000000
            81 68 63 95 hvcurveto
            return
          </CharString>
          <CharString index="104">
            354 84 callsubr
            245 28 130 callgsubr
            100 92 hintmask 11110000
            398 631 rmoveto
            43 -43 30 -55 -79 -90 -56 -105 vhcurveto
            -112 -86 -36 86 -316 -6 callgsubr
            5 68 4 41 hhcurveto
            30 callsubr
            hintmask 01101100
            -74 0 11 34 hvcurveto
            314 125 36 -129 112 vlineto
            91 54 42 43 24 callgsubr
            endchar
          </CharString>
          <CharString index="105">
            508 -10 28 164 26 206 32 hstem
            39 70 268 91 vstem
            468 217 rmoveto
            127 -111 102 -133 -135 -50 -108 -22 -4 2 -10 15 13 2 6 10 3 vhcurveto
            81 31 76 15 36 hhcurveto
            47 45 -21 -38 30 hvcurveto
            37 -47 1 -61 -39 vvcurveto
            -310 hlineto
            -21 -7 0 -22 -88 49 -108 149 131 100 104 123 hvcurveto
            -92 -35 rmoveto
            -141 -11 -90 -23 -38 hhcurveto
            -123 -4 139 25 -1 hvcurveto
            endchar
          </CharString>
          <CharString index="106">
            -46 rmoveto
            487 vlineto
            -158 -54 callgsubr
            74 9 -7 -49 hvcurveto
            -386 vlineto
            return
          </CharString>
          <CharString index="107">
            144 rmoveto
            -24 hlineto
            -22 6 -58 -4 -23 hvcurveto
            -6 -24 14 3 -26 hhcurveto
            -216 hlineto
            164 79 rlineto
            73 37 78 46 89 vvcurveto
            117 -143 23 -92 -60 -141 -14 -104 -22 12 -23 29 26 16 19 23 22 -14 11 -18 7 vhcurveto
            37 29 57 8 43 hhcurveto
            64 94 -23 -84 -75 -90 -62 -51 -31 hvcurveto
            -181 -110 rlineto
            -13 -8 -16 -4 -21 vvcurveto
            hintmask 10001000
            -5 1 -7 -4 vvcurveto
            417 hlineto
            endchar
          </CharString>
          <CharString index="108">
            699 -10 rmoveto
            17 18 -16 16 -10 10 -217 217 rcurveline
            216 216 10 9 17 17 -17 17 rlinecurve
            -18 18 -16 -16 -10 -10 -217 -216 rcurveline
            -217 217 -9 9 -17 17 -17 -17 rlinecurve
            -18 -18 17 -16 10 -10 217 -217 rcurveline
            -217 -217 -10 -9 -17 -17 17 -17 rlinecurve
            18 -18 16 16 10 10 217 217 rcurveline
            217 -217 10 -9 17 -17 17 17 rlinecurve
            return
          </CharString>
          <CharString index="109">
            319 rmoveto
            110 -13 79 -46 70 vhcurveto
            46 -31 -62 40 -80 hhcurveto
            -232 0 -273 -72 -72 0 -267 232 232 0 267 72 hvcurveto
            -91 13 rmoveto
            -74 0 -74 -13 -63 vhcurveto
            -91 -20 -68 -22 -40 hhcurveto
            -46 -61 27 82 -20 hvcurveto
            -14 59 0 82 74 vvcurveto
            73 0 76 15 55 vhcurveto
            79 21 64 21 41 hhcurveto
            54 52 -33 -58 18 hvcurveto
            16 -54 1 -72 -87 vvcurveto
            endchar
          </CharString>
          <CharString index="110">
            323 0 155 callsubr
            -36 47 return
          </CharString>
          <CharString index="111">
            442 rmoveto
            -62 callsubr
            return
          </CharString>
          <CharString index="112">
            225 531 rmoveto
            -102 callgsubr
            223 hmoveto
            -102 callgsubr
            return
          </CharString>
          <CharString index="113">
            95 hintmask 00100000
            -45 callgsubr
            return
          </CharString>
          <CharString index="114">
            0 -36 -36 -111 0 -84 hvcurveto
            -17 -34 34 hlineto
            120 150 0 70 return
          </CharString>
          <CharString index="115">
            rmoveto
            -20 20 rlineto
            hintmask 00001000
            -31 -29 -29 -15 -28 hhcurveto
            hintmask 00000100
            -26 -30 15 5 -8 hvcurveto
            hintmask 00000001
            17 -36 -21 9 -22 hhcurveto
            hintmask 00000100
            -41 -15 -16 -64 -63 hvcurveto
            hintmask 00001000
            20 -20 rlineto
            hintmask 00000001
            31 29 29 15 28 hhcurveto
            hintmask 00000010
            26 30 -15 -5 8 hvcurveto
            hintmask 00001000
            -17 36 21 -9 22 hhcurveto
            hintmask 00000010
            41 15 16 64 63 hvcurveto
            endchar
          </CharString>
          <CharString index="116">
            3 14 0 44 29 vvcurveto
            370 vlineto
            18 0 29 2 6 vhcurveto
            21 4 24 0 47 hhcurveto
            return
          </CharString>
          <CharString index="117">
            -77 callgsubr
            565 hlineto
            return
          </CharString>
          <CharString index="118">
            hstemhm
            45 84 228 79 74 34 return
          </CharString>
          <CharString index="119">
            36 299 36 272 36 return
          </CharString>
          <CharString index="120">
            75 hintmask 0011000010000000
            243 -1 callsubr
            return
          </CharString>
          <CharString index="121">
            877 -20 33 658 32 return
          </CharString>
          <CharString index="122">
            600 -204 28 12 86 -43 36 480 36 return
          </CharString>
          <CharString index="123">
            -130 124 callsubr
            return
          </CharString>
          <CharString index="124">
            631 -10 46 -41 23 27 46 247 46 0 46 -36 46 return
          </CharString>
          <CharString index="125">
            843 -20 36 631 36 return
          </CharString>
          <CharString index="126">
            323 127 callsubr
            104 122 callsubr
            -35 -22 -27 -31 -24 16 -33 42 61 callgsubr
          </CharString>
          <CharString index="127">
            95 451 -100 callsubr
            return
          </CharString>
          <CharString index="128">
            -34 hlineto
            -1 -90 -41 -99 -96 -3 rrcurveto
            -28 vlineto
            return
          </CharString>
          <CharString index="129">
            12 callgsubr
            60 36 return
          </CharString>
          <CharString index="130">
            hmoveto
            36 -52 vlineto
            -39 -47 4 46 hvcurveto
            350 vlineto
            15 -1 19 -20 -14 -17 -13 -6 -13 vhcurveto
            -21 -51 -56 -3 -54 hhcurveto
            -36 vlineto
            48 53 1 17 43 hvcurveto
            -330 vlineto
            -37 -47 -6 -36 vhcurveto
            -55 -36 hlineto
            hintmask 01000000
            180 3 rlineto
            hintmask 10000000
            endchar
          </CharString>
          <CharString index="131">
            hstemhm
            39 61 -24 80 195 80 -61 61 37 61 return
          </CharString>
          <CharString index="132">
            843 130 callsubr
            return
          </CharString>
          <CharString index="133">
            843 -20 36 0 36 562 33 0 33 -33 36 return
          </CharString>
          <CharString index="134">
            806 338 rmoveto
            return
          </CharString>
          <CharString index="135">
            508 -200 34 72 34 hstem
            220 68 26 92 vstem
            406 -130 rmoveto
            50 -60 20 -58 vhcurveto
            66 -68 -100 vlineto
            43 51 7 callsubr
            hvcurveto
            endchar
          </CharString>
          <CharString index="136">
            16 callsubr
            -72 3 -21 53 return
          </CharString>
          <CharString index="137">
            130 -4 rlineto
            36 -20 vlineto
            return
          </CharString>
          <CharString index="138">
            8 18 12 16 14 13 rrcurveto
            200 5 158 160 193 vvcurveto
            -107 16 rmoveto
            -246 -144 -95 -117 -117 -144 95 246 232 147 85 114 114 147 -85 -232 vhcurveto
            return
          </CharString>
          <CharString index="139">
            hmoveto
            -52 callsubr
            364 vlineto
            -132 -9 -11 -1 -5 0 -2 -1 rlinecurve
            -1 -2 -2 0 -14 hhcurveto
            -159 109 hlineto
            99 103 37 69 34 34 -7 -21 26 vhcurveto
            -36 -8 -3 -28 -12 vvcurveto
            return
          </CharString>
          <CharString index="140">
            354 -204 28 53 47 0 28 442 47 return
          </CharString>
          <CharString index="141">
            663 rmoveto
            14 -11 10 -13 -8 -7 -4 -6 -5 vhcurveto
            -455 -643 rlineto
            -3 -4 -1 -5 -5 vvcurveto
            -13 10 -11 14 8 7 4 6 4 vhcurveto
            456 643 rlineto
            2 4 2 5 5 vvcurveto
            endchar
          </CharString>
          <CharString index="142">
            115 -65 87 -80 -8 callsubr
            vhcurveto
            -356 hmoveto
            115 -65 87 -80 -8 callsubr
            vhcurveto
            return
          </CharString>
          <CharString index="143">
            93 -270 hlineto
            -112 84 -23 56 vhcurveto
            return
          </CharString>
          <CharString index="144">
            545 400 rmoveto
            23 -19 28 -40 -15 -54 -3 -43 -47 vhcurveto
            22 -30 -42 14 -44 hhcurveto
            -103 -75 -69 -78 -39 20 -36 28 -26 hvcurveto
            -8 -9 -22 -33 -39 vvcurveto
            -13 3 -47 39 -29 vhcurveto
            return
          </CharString>
          <CharString index="145">
            453 -10 28 85 28 196 24 71 24 return
          </CharString>
          <CharString index="146">
            36 267 47 63 28 206 36 -36 47 return
          </CharString>
          <CharString index="147">
            45 -17 37 -35 -26 -17 -20 -23 vhcurveto
            hintmask 01100000
            -18 12 -25 32 18 12 12 0 -21 0 -63 -58 -53 vhcurveto
            -3 -3 -2 -3 -3 vvcurveto
            -5 5 -7 5 10 64 60 90 vhcurveto
            endchar
          </CharString>
          <CharString index="148">
            hstemhm
            70 107 522 107 return
          </CharString>
          <CharString index="149">
            -20 -10 -20 -11 -17 -14 -54 -44 rcurveline
            hintmask 10010000
            14 -17 rlineto
            41 49 53 30 51 hhcurveto
            40 29 -17 -20 35 hvcurveto
            -17 29 31 -17 40 hhcurveto
            hintmask 01000000
            25 26 8 10 22 hvcurveto
            return
          </CharString>
          <CharString index="150">
            409 rmoveto
            47 -46 46 -79 14 vhcurveto
            75 23 28 45 37 vvcurveto
            47 -66 35 -80 -80 -61 -32 -48 -20 16 -12 22 22 14 14 17 17 -14 13 -22 1 vhcurveto
            26 25 return
          </CharString>
          <CharString index="151">
            28 292 28 291 36 return
          </CharString>
          <CharString index="152">
            529 213 rmoveto
            return
          </CharString>
          <CharString index="153">
            897 hmoveto
            -52 callsubr
            224 vlineto
            87 -43 51 -107 -79 -54 -43 -50 -27 vhcurveto
            71 -20 -54 22 -73 hhcurveto
            78 callsubr
            hvcurveto
            -1 97 hlineto
            return
          </CharString>
          <CharString index="154">
            rmoveto
            -4 14 -7 13 -5 13 -42 99 rcurveline
            18 -9 -9 17 -22 hhcurveto
            -21 -22 -17 -22 -1 hvcurveto
            -2 vlineto
            -19 17 -15 12 -14 vhcurveto
            28 -34 27 -35 29 -33 rrcurveto
            return
          </CharString>
          <CharString index="155">
            rmoveto
            -29 callgsubr
            return
          </CharString>
          <CharString index="156">
            631 0 39 callsubr
            return
          </CharString>
          <CharString index="157">
            rmoveto
            22 2 -19 18 -23 hhcurveto
            -23 -19 -18 -22 2 hvcurveto
            23 -241 rlineto
            34 hlineto
            return
          </CharString>
          <CharString index="158">
            hmoveto
            -55 callsubr
            521 vlineto
            34 2 11 77 vhcurveto
            24 36 return
          </CharString>
          <CharString index="159">
            22 callsubr
            611 36 return
          </CharString>
          <CharString index="160">
            -46 callgsubr
            endchar
          </CharString>
          <CharString index="161">
            581 76 callgsubr
            602 vlineto
            return
          </CharString>
          <CharString index="162">
            569 -10 31 397 27 0 31 return
          </CharString>
          <CharString index="163">
            28 74 28 85 28 74 28 vstem
            return
          </CharString>
          <CharString index="164">
            hstemhm
            360 6 callsubr
            return
          </CharString>
          <CharString index="165">
            -22 vlineto
            18 47 0 17 40 hvcurveto
            -306 vlineto
            -20 0 -7 -72 vhcurveto
            -27 return
          </CharString>
          <CharString index="166">
            hstemhm
            128 80 226 80 11 115 return
          </CharString>
          <CharString index="167">
            rmoveto
            -14 17 rlineto
            -41 -49 -53 -30 -51 hhcurveto
            -40 -29 17 20 -35 hvcurveto
            17 -29 -31 17 -40 hhcurveto
            hintmask 00100000
            -25 -26 -8 -10 -22 hvcurveto
            return
          </CharString>
          <CharString index="168">
            -58 vlineto
            -33 0 -13 -94 vhcurveto
            -35 -36 hlineto
            173 4 rlineto
            59 104 -3 -1 10 hvcurveto
            36 -35 vlineto
            -94 0 13 33 hvcurveto
            return
          </CharString>
          <CharString index="169">
            hstemhm
            70 64 318 64 -20 64 return
          </CharString>
          <CharString index="170">
            vlineto
            33 0 13 94 vhcurveto
            35 36 hlineto
            -173 -4 rlineto
            -59 -104 3 1 -10 hvcurveto
            -36 35 vlineto
            94 0 -13 -33 hvcurveto
            return
          </CharString>
          <CharString index="171">
            323 130 callsubr
            -36 47 return
          </CharString>
          <CharString index="172">
            10 8 8 10 10 -8 8 -10 hvcurveto
            return
          </CharString>
          <CharString index="173">
            843 0 36 301 36 return
          </CharString>
          <CharString index="174">
            4 94 callgsubr
            return
          </CharString>
          <CharString index="175">
            hlineto
            -80 -267 rlineto
            -2 -6 -2 -7 -6 vvcurveto
            -12 10 -12 15 18 4 15 13 4 vhcurveto
            84 282 rlineto
            return
          </CharString>
          <CharString index="176">
            hlineto
            80 266 rlineto
            2 6 2 7 6 vvcurveto
            12 -10 12 -15 -18 -4 -15 -13 -4 vhcurveto
            -84 -281 rlineto
            return
          </CharString>
          <CharString index="177">
            -29 19 -29 38 vhcurveto
            return
          </CharString>
          <CharString index="178">
            60 -29 53 292 53 -29 60 hintmask 01011000
            return
          </CharString>
          <CharString index="179">
            36 603 37 -36 36 return
          </CharString>
          <CharString index="180">
            vstem
            587 220 rmoveto
            90 -72 59 -75 -90 -59 -72 -75 -90 72 -59 75 90 59 72 75 vhcurveto
            return
          </CharString>
          <CharString index="181">
            hstemhm
            161 91 106 114 -77 107 73 107 28 107 return
          </CharString>
          <CharString index="182">
            385 115 194 -20 hstem
            return
          </CharString>
          <CharString index="183">
            -150 -93 -115 -115 return
          </CharString>
          <CharString index="184">
            877 -20 33 659 31 return
          </CharString>
          <CharString index="185">
            -82 -53 -45 -52 -28 return
          </CharString>
          <CharString index="186">
            385 181 68 hstem
            45 294 vstem
            339 181 rmoveto
            68 -294 -68 vlineto
            endchar
          </CharString>
          <CharString index="187">
            27 callsubr
            200 -164 165 -204 -205 -163 -165 -200 return
          </CharString>
          <CharString index="188">
            -29 callgsubr
            endchar
          </CharString>
          <CharString index="189">
            115 hstem
            104 115 vstem
            219 return
          </CharString>
          <CharString index="190">
            96 callsubr
            104 return
          </CharString>
          <CharString index="191">
            0 139 callsubr
            return
          </CharString>
          <CharString index="192">
            56 36 -36 47 return
          </CharString>
          <CharString index="193">
            40 -32 -64 -75 -52 -22 -42 -28 -64 7 35 -30 hvcurveto
            34 1 8 20 13 vvcurveto
            19 return
          </CharString>
          <CharString index="194">
            17 -2 12 -3 25 -7 rrcurveto
            -5 20 32 -9 23 hhcurveto
            36 6 26 13 hvcurveto
            endchar
          </CharString>
          <CharString index="195">
            585 -250 28 458 28 458 28 hstem
            254 77 cntrmask 11100000
            490 return
          </CharString>
          <CharString index="196">
            -72 callsubr
            hlineto
            return
          </CharString>
          <CharString index="197">
            -99 callgsubr
            endchar
          </CharString>
          <CharString index="198">
            706 130 callsubr
            return
          </CharString>
          <CharString index="199">
            535 -21 176 -20 hstem
            return
          </CharString>
          <CharString index="200">
            395 rmoveto
            36 vlineto
            return
          </CharString>
          <CharString index="201">
            -36 callsubr
            -36 return
          </CharString>
          <CharString index="202">
            rmoveto
            31 -26 26 -31 -35 -23 -28 -29 -35 28 -23 29 33 25 25 33 vhcurveto
            return
          </CharString>
          <CharString index="203">
            18 callsubr
            50 return
          </CharString>
          <CharString index="204">
            94 -21 176 -20 hstemhm
            return
          </CharString>
          <CharString index="205">
            86 131 callgsubr
            hstemhm
            return
          </CharString>
          <CharString index="206">
            hhcurveto
            hintmask 0000010000000000
            return
          </CharString>
          <CharString index="207">
            584 216 rmoveto
            123 -102 102 -127 -57 -58 -21 -40 -41 vhcurveto
            return
          </CharString>
          <CharString index="208">
            17 callsubr
            106 -20 return
          </CharString>
          <CharString index="209">
            155 callsubr
            -17 28 73 callgsubr
            return
          </CharString>
          <CharString index="210">
            vlineto
            -10 8 -8 10 10 8 8 10 vhcurveto
            return
          </CharString>
          <CharString index="211">
            468 120 rmoveto
            return
          </CharString>
          <CharString index="212">
            508 -232 58 164 32 -26 26 206 26 164 28 return
          </CharString>
          <CharString index="213">
            141 callsubr
            hintmask 10001000
            452 return
          </CharString>
          <CharString index="214">
            121 callsubr
            0 79 return
          </CharString>
          <CharString index="215">
            36 224 36 391 36 128 callsubr
            return
          </CharString>
          <CharString index="216">
            27 callgsubr
            endchar
          </CharString>
          <CharString index="217">
            36 96 callgsubr
            return
          </CharString>
          <CharString index="218">
            -21 579 85 32 -20 hstem
            return
          </CharString>
          <CharString index="219">
            28 355 32 0 29 hstemhm
            return
          </CharString>
          <CharString index="220">
            71 -21 133 -20 hstemhm
            return
          </CharString>
          <CharString index="221">
            569 501 -21 return
          </CharString>
          <CharString index="222">
            23 28 29 vhcurveto
            return
          </CharString>
          <CharString index="223">
            69 -69 100 -44 36 8 100 28 95 24 95 hintmask 0011000100000000
            return
          </CharString>
          <CharString index="224">
            -307 vlineto
            67 callgsubr
            14 hvcurveto
            307 return
          </CharString>
          <CharString index="225">
            -20 32 54 159 172 28 80 159 -29 29 hstemhm
            return
          </CharString>
          <CharString index="226">
            -35 -38 -19 -29 return
          </CharString>
          <CharString index="227">
            rlinecurve
            -43 -1 48 -58 69 hhcurveto
            54 60 40 62 13 hvcurveto
            return
          </CharString>
          <CharString index="228">
            102 callsubr
            149 79 return
          </CharString>
          <CharString index="229">
            28 74 28 vstem
            234 585 rmoveto
            59 -24 50 -49 return
          </CharString>
          <CharString index="230">
            -20 -20 -10 -25 -56 75 -37 87 100 69 56 60 vhcurveto
            return
          </CharString>
          <CharString index="231">
            rmoveto
            3 20 -28 11 -5 -19 -11 -39 -33 -19 -31 2 return
          </CharString>
          <CharString index="232">
            35 106 35 hstem
            -393 42 134 42 vstem
            -217 return
          </CharString>
          <CharString index="233">
            -194 36 -32 32 148 28 return
          </CharString>
          <CharString index="234">
            406 -21 194 115 hstem
            return
          </CharString>
          <CharString index="235">
            hstemhm
            70 107 473 95 -18 95 return
          </CharString>
          <CharString index="236">
            1151 1 -21 return
          </CharString>
          <CharString index="237">
            0 36 611 36 return
          </CharString>
          <CharString index="238">
            103 5 10 76 107 0 97 -76 107 hintmask 0011111010000000
            return
          </CharString>
          <CharString index="239">
            843 -20 34 68 34 -8 36 -21 34 -6 34 return
          </CharString>
          <CharString index="240">
            47 hstemhm
            49 75 0 75 return
          </CharString>
          <CharString index="241">
            631 -10 28 -18 36 return
          </CharString>
          <CharString index="242">
            105 114 vstem
            219 return
          </CharString>
          <CharString index="243">
            35 106 35 185 -20 return
          </CharString>
          <CharString index="244">
            -150 -54 callgsubr
            return
          </CharString>
          <CharString index="245">
            21 -21 483 -20 hstem
            return
          </CharString>
          <CharString index="246">
            36 359 36 return
          </CharString>
          <CharString index="247">
            28 hstemhm
            124 75 248 75 248 75 return
          </CharString>
          <CharString index="248">
            45 28 callgsubr
            return
          </CharString>
          <CharString index="249">
            -41 33 -9 15 19 28 14 34 6 0 37 return
          </CharString>
          <CharString index="250">
            hstemhm
            159 38 168 114 166 38 return
          </CharString>
          <CharString index="251">
            -229 -21 1001 -20 hstem
            return
          </CharString>
          <CharString index="252">
            -341 114 vstem
            -227 return
          </CharString>
          <CharString index="253">
            0 48 587 48 return
          </CharString>
          <CharString index="254">
            hvcurveto
            -70 134 rmoveto
            return
          </CharString>
          <CharString index="255">
            vlineto
            -77 -2 10 return
          </CharString>
          <CharString index="256">
            104 hstem
            -430 103 86 103 vstem
            -327 return
          </CharString>
          <CharString index="257">
            hlineto
            -10 -8 -6 -6 -7 8 -6 10 hvcurveto
            return
          </CharString>
          <CharString index="258">
            446 -10 32 373 36 184 -20 return
          </CharString>
          <CharString index="259">
            -1 6 21 hvcurveto
            313 vlineto
            20 1 7 return
          </CharString>
          <CharString index="260">
            93 327 -20 99 115 hstemhm
            70 91 return
          </CharString>
          <CharString index="261">
            -2 rlineto
            18 -12 vlineto
            -38 -1 5 17 hvcurveto
            return
          </CharString>
          <CharString index="262">
            36 358 36 return
          </CharString>
        <CharString name=".notdef">
          280 endchar
        </CharString>
        <CharString name="A">
          -32 callsubr
          hstem
          -107 callsubr
          endchar
        </CharString>
        <CharString name="AE">
          -46 callsubr
        </CharString>
        <CharString name="AE.dup">
          -46 callsubr
        </CharString>
        <CharString name="AEacute">
          1014 0 36 274 36 262 36 3 36 81 -21 165 -20 hstemhm
          268 34 -1 89 77 89 207 34 112 34 -3 34 hintmask 1111000011010000
          974 263 rmoveto
          -34 hlineto
          -150 -26 -18 -77 -174 hhcurveto
          -118 hlineto
          -47 -1 8 31 hvcurveto
          235 96 vlineto
          99 12 -32 -85 145 callgsubr
          -12 -31 -99 vhcurveto
          -96 262 hlineto
          31 1 8 47 vhcurveto
          116 hlineto
          hintmask 1101001010100000
          150 22 -59 -135 17 102 callgsubr
          50 hlineto
          12 9 0 -1 12 hvcurveto
          -221 -543 rlineto
          -54 -22 -46 -13 -50 hhcurveto
          -36 vlineto
          3 34 34 1 34 hhcurveto
          40 40 -1 -3 40 hvcurveto
          36 vlineto
          -57 1 -14 30 16 vvcurveto
          7 2 3 4 11 vhcurveto
          84 206 rlineto
          180 -230 hlineto
          hintmask 1110000110010000
          -44 -10 0 -67 vhcurveto
          -36 539 vlineto
          -462 346 rmoveto
          -166 hlineto
          122 298 rlineto
          44 -1 0 -26 -17 vvcurveto
          hintmask 0000110000000000
          190 260 -104 callgsubr
        </CharString>
        <CharString name="Aacute">
          -32 callsubr
          71 -21 165 -101 callsubr
          181 272 -104 callgsubr
        </CharString>
        <CharString name="Abreve">
          -32 callsubr
          50 45 -57 callgsubr
          16 callgsubr
          endchar
        </CharString>
        <CharString name="Abreveacute">
          -32 callsubr
          50 45 318 -101 callsubr
          16 callgsubr
          -55 137 -104 callgsubr
        </CharString>
        <CharString name="Abrevedotbelow">
          -32 callsubr
          50 45 133 -20 hstemhm
          365 114 hintmask 11111000
          -107 callsubr
          16 callgsubr
          hintmask 00000100
          -110 -1064 -101 callgsubr
        </CharString>
        <CharString name="Abrevegrave">
          -32 callsubr
          50 45 -57 callgsubr
          198 333 -39 callsubr
        </CharString>
        <CharString name="Abrevehookabove">
          -32 callsubr
          50 45 336 -101 callsubr
          16 callgsubr
          -59 138 -107 callgsubr
        </CharString>
        <CharString name="Abrevetilde">
          -32 callsubr
          50 45 173 54 -34 54 -48 54 -34 54 -106 callsubr
          hintmask 00010001
          16 callgsubr
          17 120 8 callsubr
        </CharString>
        <CharString name="Acaron">
          -32 callsubr
          61 -21 -57 callgsubr
          182 262 -61 callsubr
        </CharString>
        <CharString name="Acircumflex">
          -32 callsubr
          61 -21 -57 callgsubr
          182 161 -94 callsubr
          endchar
        </CharString>
        <CharString name="Acircumflexacute">
          -32 callsubr
          61 -21 318 -101 callsubr
          182 161 -94 callsubr
          -27 270 -104 callgsubr
        </CharString>
        <CharString name="Acircumflexdotbelow">
          -32 callsubr
          61 -21 133 -20 hstemhm
          365 114 hintmask 11111000
          -107 callsubr
          182 161 -94 callsubr
          hintmask 00000100
          -82 -876 -101 callgsubr
        </CharString>
        <CharString name="Acircumflexgrave">
          -32 callsubr
          61 -21 -57 callgsubr
          182 161 -70 callgsubr
        </CharString>
        <CharString name="Acircumflexhookabove">
          -32 callsubr
          61 -21 336 -101 callsubr
          182 161 -94 callsubr
          76 271 -107 callgsubr
        </CharString>
        <CharString name="Acircumflextilde">
          -32 callsubr
          61 -21 173 54 -34 54 -48 54 -34 54 -106 callsubr
          hintmask 00010001
          182 161 -94 callsubr
          45 253 8 callsubr
        </CharString>
        <CharString name="Adblgrave">
          -32 callsubr
          71 -21 190 -101 callsubr
          137 173 -95 callsubr
        </CharString>
        <CharString name="Adieresis">
          -32 callsubr
          40 104 hstemhm
          259 116 callgsubr
          hintmask 11100000
          -107 callsubr
          hintmask 00011100
          -29 196 -73 callgsubr
        </CharString>
        <CharString name="Adotbelow">
          -32 callsubr
          hstemhm
          365 114 hintmask 11100000
          -107 callsubr
          hintmask 00010000
          88 -731 -101 callgsubr
        </CharString>
        <CharString name="Agrave">
          -32 callsubr
          71 -21 165 -101 callsubr
          105 185 -76 callgsubr
        </CharString>
        <CharString name="Ahookabove">
          -32 callsubr
          81 -21 203 -101 callsubr
          138 303 -107 callgsubr
        </CharString>
        <CharString name="Alpha">
          -32 callsubr
          hstem
          -107 callsubr
          endchar
        </CharString>
        <CharString name="Amacron">
          -32 callsubr
          60 38 -106 callsubr
          hintmask 00010000
          230 165 -19 callgsubr
        </CharString>
        <CharString name="Aogonek">
          119 callgsubr
          hstemhm
          391 282 -158 282 hintmask 11110100
          -12 callgsubr
          hintmask 00001000
          -103 5 -3 112 93 60 rrcurveto
          hintmask 01100100
          48 66 -2 -1 10 hvcurveto
          -278 263 rmoveto
          -256 hlineto
          hintmask 00101000
          128 325 rlineto
          endchar
        </CharString>
        <CharString name="Aogonekacute">
          119 callgsubr
          98 callgsubr
          391 282 -158 282 hintmask 11110001
          -12 callgsubr
          hintmask 00000010
          -103 5 -3 112 93 60 rrcurveto
          hintmask 01100001
          48 66 -2 -1 10 hvcurveto
          -278 263 rmoveto
          -256 hlineto
          hintmask 00100010
          128 325 rlineto
          hintmask 00001100
          181 272 -104 callgsubr
        </CharString>
        <CharString name="Aring">
          -30 callsubr
          35 106 35 hstemhm
          313 42 134 42 hintmask 11100000
          -107 callsubr
          hintmask 00111100
          98 213 -55 callgsubr
        </CharString>
        <CharString name="Aringacute">
          -30 callsubr
          136 callsubr
          hstemhm
          313 42 67 42 25 42 hintmask 11100000
          -107 callsubr
          hintmask 00111111
          98 213 -25 callsubr
        </CharString>
        <CharString name="Atilde">
          -32 callsubr
          40 54 -34 54 -48 54 -34 54 -106 callsubr
          hintmask 00000010
          215 225 9 callgsubr
        </CharString>
        <CharString name="B">
          -21 callgsubr
        </CharString>
        <CharString name="Beta">
          -21 callgsubr
        </CharString>
        <CharString name="C">
          78 callgsubr
          hstem
          70 107 531 36 vstem
          -80 callsubr
          -203 176 -159 207 177 114 132 122 hvcurveto
          endchar
        </CharString>
        <CharString name="Cacute">
          78 callgsubr
          61 -21 165 -20 hstemhm
          70 107 531 36 hintmask 11001100
          -80 callsubr
          -203 176 -159 207 177 114 132 122 hvcurveto
          hintmask 00110000
          -145 626 -104 callgsubr
        </CharString>
        <CharString name="Ccaron">
          78 callgsubr
          51 -21 133 -20 hstemhm
          70 107 531 36 hintmask 11001100
          -80 callsubr
          -203 176 -159 207 177 114 132 122 hvcurveto
          hintmask 00110000
          -144 616 -61 callsubr
        </CharString>
        <CharString name="Ccedilla">
          816 -166 36 0 36 74 36 651 36 hstemhm
          70 107 424 107 0 36 hintmask 01111010
          -80 callsubr
          -190 155 -152 190 -18 hvcurveto
          -76 vlineto
          43 51 0 -36 hvcurveto
          hintmask 10000100
          90 callgsubr
          -57 hvcurveto
          41 vlineto
          hintmask 00000010
          160 14 101 124 115 vvcurveto
          endchar
        </CharString>
        <CharString name="Ccircumflex">
          78 callgsubr
          51 -21 133 -20 hstemhm
          70 107 531 36 hintmask 11001100
          -80 callsubr
          -203 176 -159 207 177 114 132 122 hvcurveto
          hintmask 00110000
          -144 515 -94 callsubr
          endchar
        </CharString>
        <CharString name="Cdotaccent">
          78 callgsubr
          50 115 hstemhm
          70 107 215 114 202 36 hintmask 11010100
          -80 callsubr
          -203 176 -159 207 177 114 132 122 hvcurveto
          hintmask 00101000
          -238 576 -101 callgsubr
        </CharString>
        <CharString name="Chi">
          -38 callgsubr
        </CharString>
        <CharString name="D">
          133 callgsubr
          434 103 hintmask 11101000
          -41 callgsubr
          hintmask 01011000
          -47 -1 8 31 hvcurveto
          533 74 callgsubr
        </CharString>
        <CharString name="Dcaron">
          860 130 callsubr
          71 -21 133 -20 96 callgsubr
          hintmask 11001010
          -41 callgsubr
          hintmask 01000110
          -47 -1 8 31 hvcurveto
          533 1 callgsubr
          hintmask 00110000
          -173 514 -61 callsubr
        </CharString>
        <CharString name="Dcroat">
          -15 callgsubr
        </CharString>
        <CharString name="Ddotbelow">
          133 callgsubr
          53 114 267 103 hintmask 11100100
          -41 callgsubr
          hintmask 01010100
          -47 -1 8 31 hvcurveto
          533 1 callgsubr
          hintmask 00001000
          -267 -479 -101 callgsubr
        </CharString>
        <CharString name="Delta">
          939 0 82 631 -20 hstem
          876 10 rmoveto
          0 0 3 -7 11 vhcurveto
          -368 666 rlineto
          18 -10 -3 5 -20 hhcurveto
          -12 -10 -3 -16 -9 hvcurveto
          -369 -670 rlineto
          -7 -11 0 -3 0 vvcurveto
          -10 8 0 16 vhcurveto
          767 hlineto
          16 8 0 10 hvcurveto
          -147 72 rmoveto
          -588 hlineto
          294 533 rlineto
          endchar
        </CharString>
        <CharString name="Dlinebelow">
          860 -161 38 123 36 611 110 callsubr
          hintmask 01110100
          -41 callgsubr
          hintmask 00101100
          -47 -1 8 31 hvcurveto
          533 1 callgsubr
          hintmask 10000000
          -125 -497 -19 callgsubr
        </CharString>
        <CharString name="E">
          -10 callgsubr
          -26 callsubr
          hintmask 11111010
          -102 callsubr
          hintmask 10110100
          -89 callsubr
          627 hlineto
          hintmask 00000010
          endchar
        </CharString>
        <CharString name="Eacute">
          -10 callgsubr
          85 -21 165 -96 callsubr
          -149 860 -104 callgsubr
        </CharString>
        <CharString name="Ebreve">
          -10 callgsubr
          64 45 133 -96 callsubr
          -132 921 -100 callsubr
          endchar
        </CharString>
        <CharString name="Ecaron">
          -10 callgsubr
          75 -21 133 -71 callgsubr
          850 -61 callsubr
        </CharString>
        <CharString name="Ecircumflex">
          -10 callgsubr
          75 -21 133 -71 callgsubr
          749 -94 callsubr
          endchar
        </CharString>
        <CharString name="Ecircumflexacute">
          -10 callgsubr
          75 -21 318 -71 callgsubr
          749 -94 callsubr
          -27 270 -104 callgsubr
        </CharString>
        <CharString name="Ecircumflexdotbelow">
          -10 callgsubr
          75 -21 133 -20 70 callgsubr
          hintmask 1110010101000000
          -102 callsubr
          hintmask 1010010010000000
          -89 callsubr
          627 hlineto
          hintmask 0001100001000000
          -148 749 -94 callsubr
          hintmask 0000001000000000
          -82 -876 -101 callgsubr
        </CharString>
        <CharString name="Ecircumflexgrave">
          -10 callgsubr
          75 -21 133 -71 callgsubr
          749 -70 callgsubr
        </CharString>
        <CharString name="Ecircumflexhookabove">
          -10 callgsubr
          75 -21 336 -71 callgsubr
          749 -94 callsubr
          76 271 -107 callgsubr
        </CharString>
        <CharString name="Ecircumflextilde">
          -10 callgsubr
          75 -21 173 54 -34 54 -48 54 -34 54 -26 callsubr
          hintmask 1110000011010000
          -102 callsubr
          hintmask 1010000010100000
          -89 callsubr
          627 hlineto
          hintmask 0000000000010000
          hintmask 0001000100000000
          -148 749 -94 callsubr
          45 253 -79 callsubr
        </CharString>
        <CharString name="Edblgrave">
          -10 callgsubr
          85 -21 190 -96 callsubr
          -162 761 -95 callsubr
        </CharString>
        <CharString name="Edieresis">
          -10 callgsubr
          54 104 46 callgsubr
          -33 116 callgsubr
          -76 34 158 34 -3 34 hintmask 1110100101000000
          -102 callsubr
          hintmask 1010100010000000
          -89 callsubr
          627 hlineto
          hintmask 0000000001000000
          hintmask 0001011000000000
          -359 784 -73 callgsubr
        </CharString>
        <CharString name="Edotaccent">
          -10 callgsubr
          74 115 70 callgsubr
          hintmask 1110101010000000
          -102 callsubr
          hintmask 1010100100000000
          -75 callsubr
          hintmask 0001010000000000
          -242 810 -101 callgsubr
        </CharString>
        <CharString name="Edotbelow">
          -10 callgsubr
          70 callgsubr
          hintmask 11110101
          -102 callsubr
          hintmask 10110010
          -89 callsubr
          627 hlineto
          hintmask 00000001
          hintmask 00001000
          -242 -143 -101 callgsubr
        </CharString>
        <CharString name="Egrave">
          -10 callgsubr
          85 -21 165 -96 callsubr
          -225 773 -76 callgsubr
        </CharString>
        <CharString name="Ehookabove">
          -10 callgsubr
          95 -21 203 -96 callsubr
          -192 891 -107 callgsubr
        </CharString>
        <CharString name="Emacron">
          -10 callgsubr
          74 38 -26 callsubr
          hintmask 11101101
          -102 callsubr
          hintmask 10101010
          -89 callsubr
          627 hlineto
          hintmask 00000001
          hintmask 00010000
          -100 753 -19 callgsubr
        </CharString>
        <CharString name="Eng">
          843 -20 96 -76 36 611 36 -14 34 hstemhm
          51 108 0 95 0 108 cntrmask 00001110
          hintmask 00011110
          801 342 rmoveto
          195 -146 166 -191 -83 -76 -34 -54 -51 vhcurveto
          hintmask 01101110
          68 vlineto
          -3 -16 -15 -1 -16 hhcurveto
          -156 4 rlineto
          -36 26 vlineto
          82 0 -12 -34 hvcurveto
          -519 vlineto
          -34 0 -12 -82 vhcurveto
          -26 -36 hlineto
          155 4 156 -4 rlineto
          36 -26 vlineto
          -82 0 12 34 hvcurveto
          479 vlineto
          hintmask 10011110
          66 42 80 42 88 hhcurveto
          148 81 -162 -165 -131 0 -148 -83 -39 hvcurveto
          4 vlineto
          27 -21 21 -27 -26 -22 -21 -27 -27 22 -21 26 160 79 181 181 vhcurveto
          endchar
        </CharString>
        <CharString name="Eogonek">
          768 -232 58 174 12 callsubr
          -26 callsubr
          hintmask 01111101
          -102 callsubr
          hintmask 11011010
          -89 callsubr
          461 hlineto
          -45 -34 -33 -47 -1 -50 rrcurveto
          -54 callsubr
          -103 5 -2 109 93 60 rrcurveto
          119 hlineto
          hintmask 00000001
          endchar
        </CharString>
        <CharString name="Eogonekacute">
          768 -232 58 174 12 callsubr
          85 -21 165 -1 callgsubr
          hintmask 0111001101000000
          -102 callsubr
          hintmask 1101001010000000
          -89 callsubr
          461 hlineto
          -45 -34 -33 -47 -1 -50 rrcurveto
          -54 callsubr
          -103 5 -2 109 93 60 rrcurveto
          119 hlineto
          hintmask 0000000001000000
          hintmask 0000110000000000
          -149 860 -104 callgsubr
        </CharString>
        <CharString name="Epsilon">
          -10 callgsubr
          -26 callsubr
          hintmask 11111010
          -102 callsubr
          hintmask 10110100
          -89 callsubr
          627 hlineto
          hintmask 00000010
          endchar
        </CharString>
        <CharString name="Ereversed">
          -10 callgsubr
          hstemhm
          56 34 -3 34 158 34 217 95 hintmask 11101110
          728 hmoveto
          36 -24 vlineto
          -77 -2 11 34 hvcurveto
          517 vlineto
          35 2 10 77 vhcurveto
          24 36 -611 hlineto
          -30 -230 rlineto
          34 hlineto
          140 18 29 54 164 hhcurveto
          150 hlineto
          47 1 -8 -31 hvcurveto
          -233 -101 vlineto
          -101 -15 30 87 hvcurveto
          -34 -270 34 hlineto
          87 15 30 101 vhcurveto
          101 -260 hlineto
          -31 -1 -8 -47 vhcurveto
          -158 hlineto
          hintmask 10010000
          -185 -23 76 151 -26 hvcurveto
          -34 hlineto
          45 -263 rlineto
          endchar
        </CharString>
        <CharString name="Eta">
          843 0 36 301 36 274 36 hstem
          159 95 334 95 vstem
          -90 callsubr
          endchar
        </CharString>
        <CharString name="Eth">
          -15 callgsubr
        </CharString>
        <CharString name="Etilde">
          -10 callgsubr
          54 54 -34 54 -48 54 -34 54 -26 callsubr
          hintmask 1110000110100000
          -102 callsubr
          hintmask 1010000101000000
          -89 callsubr
          627 hlineto
          hintmask 0000000000100000
          hintmask 0000001000000000
          -115 813 -93 callgsubr
        </CharString>
        <CharString name="Euro">
          694 -20 36 248 36 84 36 247 36 hstem
          124 108 vstem
          632 -8 rmoveto
          149 vlineto
          7 -5 5 -7 vhcurveto
          -12 hlineto
          -6 -5 -4 -6 -1 hvcurveto
          -72 -9 -60 -55 -73 hhcurveto
          -67 -61 37 55 -38 hvcurveto
          -32 46 -14 54 -6 56 rrcurveto
          281 hlineto
          5 5 121 callgsubr
          -288 hlineto
          -1 42 1 42 rlineto
          322 hlineto
          6 4 121 callgsubr
          -323 hlineto
          6 55 14 54 32 46 rrcurveto
          55 38 61 37 67 hhcurveto
          73 60 -54 -72 9 hvcurveto
          -6 1 5 -5 6 hhcurveto
          12 hlineto
          7 5 5 7 hvcurveto
          149 vlineto
          7 -5 5 -7 vhcurveto
          -4 hlineto
          -3 -3 -1 -2 -2 hvcurveto
          -41 -41 rlineto
          28 -34 -45 16 -47 hhcurveto
          -87 -81 -41 -65 -57 hvcurveto
          -44 -51 -28 -61 -13 -65 rrcurveto
          -55 106 callgsubr
          54 hlineto
          -1 -14 -1 -14 -14 vvcurveto
          -14 1 -14 1 -14 vhcurveto
          -50 106 callgsubr
          59 hlineto
          13 -66 28 -61 44 -50 rrcurveto
          -66 57 81 -41 87 hhcurveto
          47 45 16 28 34 hvcurveto
          41 -40 rlineto
          -3 2 3 -1 3 hhcurveto
          4 hlineto
          7 5 5 7 hvcurveto
          endchar
        </CharString>
        <CharString name="F">
          737 0 36 286 36 285 36 hstem
          159 95 211 34 149 34 vstem
          682 449 rmoveto
          -30 230 rlineto
          -596 53 callgsubr
          240 97 vlineto
          100 14 -30 -87 145 callgsubr
          -14 -31 -100 vhcurveto
          -97 246 hlineto
          31 1 8 47 vhcurveto
          140 hlineto
          161 27 -54 -140 18 hvcurveto
          endchar
        </CharString>
        <CharString name="G">
          884 -20 108 callsubr
          hintmask 01000100
          -28 callgsubr
          hintmask 10111000
          100 0 -13 -33 hvcurveto
          -64 vlineto
          -22 0 -39 -57 -28 vhcurveto
          -25 -49 -56 0 -13 hhcurveto
          -113 -185 65 261 266 190 59 99 97 120 -65 -173 26 hvcurveto
          hintmask 00000100
          34 callgsubr
          hintmask 10111000
          -82 callgsubr
          hintmask 01000100
          44 10 0 67 vhcurveto
          endchar
        </CharString>
        <CharString name="Gacute">
          47 callgsubr
          61 -21 165 -84 callgsubr
          -230 620 -104 callgsubr
        </CharString>
        <CharString name="Gamma">
          706 0 36 607 36 hstem
          159 95 vstem
          651 449 rmoveto
          -30 230 rlineto
          -565 53 callgsubr
          522 vlineto
          31 1 8 47 vhcurveto
          121 hlineto
          152 25 -56 -138 17 hvcurveto
          endchar
        </CharString>
        <CharString name="Gbreve">
          47 callgsubr
          40 45 133 -84 callgsubr
          -213 681 -100 callsubr
          endchar
        </CharString>
        <CharString name="Gcaron">
          47 callgsubr
          51 -21 133 -84 callgsubr
          -229 610 -61 callsubr
        </CharString>
        <CharString name="Gcedilla">
          884 112 callgsubr
          108 callsubr
          hintmask 00010001
          -28 callgsubr
          hintmask 00101110
          100 0 -13 -33 hvcurveto
          -64 vlineto
          -22 0 -39 -57 -28 vhcurveto
          -25 -49 -56 0 -13 hhcurveto
          -113 -185 65 261 266 190 59 99 97 120 -65 -173 26 hvcurveto
          hintmask 00000001
          34 callgsubr
          hintmask 00101110
          -82 callgsubr
          hintmask 11010001
          44 10 0 67 vhcurveto
          -333 -382 -98 callsubr
        </CharString>
        <CharString name="Gcircumflex">
          47 callgsubr
          51 -21 133 -84 callgsubr
          -229 509 -94 callsubr
          endchar
        </CharString>
        <CharString name="Gcommaaccent">
          884 112 callgsubr
          108 callsubr
          hintmask 00010001
          -28 callgsubr
          hintmask 00101110
          100 0 -13 -33 hvcurveto
          -64 vlineto
          -22 0 -39 -57 -28 vhcurveto
          -25 -49 -56 0 -13 hhcurveto
          -113 -185 65 261 266 190 59 99 97 120 -65 -173 26 hvcurveto
          hintmask 00000001
          34 callgsubr
          hintmask 00101110
          -82 callgsubr
          hintmask 00010001
          44 10 0 67 vhcurveto
          hintmask 11000000
          -333 -382 -98 callsubr
        </CharString>
        <CharString name="Gdotaccent">
          47 callgsubr
          50 115 hstemhm
          70 107 208 114 151 0 callgsubr
          hintmask 10101010
          100 0 -13 -33 hvcurveto
          -64 vlineto
          -22 0 -39 -57 -28 vhcurveto
          -25 -49 -56 0 -13 hhcurveto
          -113 -185 65 261 266 190 59 99 97 120 -65 -173 26 hvcurveto
          hintmask 00000001
          34 callgsubr
          hintmask 10101010
          -62 callgsubr
          hintmask 00010100
          -323 570 -101 callgsubr
        </CharString>
        <CharString name="H">
          843 0 36 301 36 274 36 hstem
          159 95 334 95 vstem
          -90 callsubr
          endchar
        </CharString>
        <CharString name="H_uni0303">
          843 0 36 301 36 274 124 callgsubr
          334 95 hintmask 1110000110000000
          -90 callsubr
          hintmask 0000001000000000
          -29 809 -93 callgsubr
        </CharString>
        <CharString name="Hbar">
          66 callsubr
          122 36 116 87 callgsubr
          414 103 36 -103 71 -96 callgsubr
          -71 -334 71 -96 callgsubr
          -71 -103 -36 103 -414 -53 callsubr
          150 4 151 -49 callsubr
          256 334 -256 -53 callsubr
          150 4 rlineto
          -47 369 rmoveto
          -334 122 334 hlineto
          endchar
        </CharString>
        <CharString name="Hbrevebelow">
          843 137 callgsubr
          73 36 301 36 274 36 46 callgsubr
          334 95 hintmask 00111110
          -90 callsubr
          hintmask 11000000
          -46 -57 -100 callsubr
          endchar
        </CharString>
        <CharString name="Hcircumflex">
          103 callgsubr
          113 callsubr
          159 95 334 95 hintmask 11100110
          -90 callsubr
          hintmask 00011000
          -62 745 -94 callsubr
          endchar
        </CharString>
        <CharString name="Hdieresis">
          103 callgsubr
          50 104 46 callgsubr
          5 116 callgsubr
          3 95 hintmask 11101001
          -90 callsubr
          hintmask 00010110
          -273 780 -73 callgsubr
        </CharString>
        <CharString name="Hdotbelow">
          103 callgsubr
          46 callgsubr
          111 114 109 95 hintmask 11110100
          -90 callsubr
          hintmask 00001000
          -156 -147 -101 callgsubr
        </CharString>
        <CharString name="I">
          45 callgsubr
          hstem
          159 95 vstem
          362 hmoveto
          -97 callgsubr
          endchar
        </CharString>
        <CharString name="I_J">
          955 -20 28 -8 36 -28 28 23 110 404 28 46 36 46 callgsubr
          183 111 58 111 0 91 hintmask 0100111001000000
          362 hmoveto
          -97 callgsubr
          679 643 rmoveto
          36 vlineto
          -5 -73 -4 -49 hhcurveto
          -175 4 rlineto
          -36 37 vlineto
          97 0 -13 -33 hvcurveto
          -452 vlineto
          hintmask 0011000110000000
          -90 -54 -51 -57 -31 -53 12 38 -29 vhcurveto
          37 3 18 24 29 vvcurveto
          32 -23 23 -32 -31 -25 -20 -37 vhcurveto
          hintmask 1000110001000000
          -74 75 -58 98 92 86 54 82 17 vhcurveto
          9 callsubr
          endchar
        </CharString>
        <CharString name="Iacute">
          45 callgsubr
          81 -21 165 -20 46 callgsubr
          hintmask 11001000
          362 hmoveto
          -97 callgsubr
          hintmask 00110000
          151 856 -104 callgsubr
        </CharString>
        <CharString name="Ibreve">
          45 callgsubr
          60 127 callgsubr
          hintmask 11001000
          362 hmoveto
          -97 callgsubr
          hintmask 00110000
          168 917 -100 callsubr
          endchar
        </CharString>
        <CharString name="Icaron">
          45 callgsubr
          113 callsubr
          159 95 hintmask 11001000
          362 hmoveto
          -97 callgsubr
          hintmask 00110000
          152 846 -61 callsubr
        </CharString>
        <CharString name="Icircumflex">
          45 callgsubr
          113 callsubr
          159 95 hintmask 11001000
          362 hmoveto
          -97 callgsubr
          hintmask 00110000
          152 745 -94 callsubr
          endchar
        </CharString>
        <CharString name="Idblgrave">
          45 callgsubr
          81 -21 190 -20 46 callgsubr
          hintmask 11001000
          362 hmoveto
          -97 callgsubr
          hintmask 00111000
          138 757 -95 callsubr
        </CharString>
        <CharString name="Idieresis">
          45 callgsubr
          50 104 hstemhm
          44 103 12 95 13 103 hintmask 11001000
          362 hmoveto
          -97 callgsubr
          hintmask 00110100
          -59 780 -73 callgsubr
        </CharString>
        <CharString name="Idieresisacute">
          45 callgsubr
          50 104 80 -21 165 -20 hstemhm
          44 103 12 95 13 103 hintmask 11000010
          362 hmoveto
          -97 callgsubr
          hintmask 00111101
          -59 780 rmoveto
          -102 callgsubr
          223 hmoveto
          -102 callgsubr
          -13 229 -104 callgsubr
        </CharString>
        <CharString name="Idotaccent">
          45 callgsubr
          70 115 hstemhm
          150 114 -105 95 hintmask 11001000
          362 hmoveto
          -97 callgsubr
          hintmask 00110000
          58 806 -101 callgsubr
        </CharString>
        <CharString name="Idotbelow">
          45 callgsubr
          hstemhm
          150 114 -105 95 hintmask 11010000
          362 hmoveto
          -97 callgsubr
          hintmask 00100000
          58 -147 -101 callgsubr
        </CharString>
        <CharString name="Igrave">
          45 callgsubr
          81 -21 165 -20 46 callgsubr
          hintmask 11001000
          362 hmoveto
          -97 callgsubr
          hintmask 00110000
          75 769 -76 callgsubr
        </CharString>
        <CharString name="Ihookabove">
          45 callgsubr
          91 -21 203 -20 46 callgsubr
          hintmask 11001000
          362 hmoveto
          -97 callgsubr
          hintmask 00110000
          108 887 -107 callgsubr
        </CharString>
        <CharString name="Imacron">
          45 callgsubr
          70 38 46 callgsubr
          hintmask 11010000
          362 hmoveto
          -97 callgsubr
          hintmask 00100000
          200 749 -19 callgsubr
        </CharString>
        <CharString name="Imacron.alt">
          45 callgsubr
          70 38 46 callgsubr
          hintmask 11010000
          362 hmoveto
          -97 callgsubr
          hintmask 00100000
          105 749 49 callgsubr
        </CharString>
        <CharString name="Iogonek">
          140 callgsubr
          hstem
          159 95 vstem
          362 29 callsubr
          25 51 15 29 22 24 27 17 109 -3 rcurveline
          -97 callgsubr
          2 hlineto
          -41 -29 -47 -59 -1 -47 109 callsubr
        </CharString>
        <CharString name="Iogonekacute">
          140 callgsubr
          81 -21 165 -20 46 callgsubr
          hintmask 11100100
          362 29 callsubr
          25 51 15 29 22 24 27 17 109 -3 rcurveline
          -97 callgsubr
          2 hlineto
          -41 -29 -47 -59 -1 -47 27 callgsubr
          hintmask 00011000
          -5 990 -104 callgsubr
        </CharString>
        <CharString name="Iota">
          45 callgsubr
          hstem
          159 95 vstem
          362 hmoveto
          -97 callgsubr
          endchar
        </CharString>
        <CharString name="Itilde">
          413 0 36 611 124 callgsubr
          hintmask 11000010
          362 hmoveto
          -97 callgsubr
          hintmask 00000100
          185 809 -82 callsubr
        </CharString>
        <CharString name="J">
          82 callgsubr
          83 callgsubr
          hintmask 00110010
          514 647 rmoveto
          36 vlineto
          -5 -73 -4 -49 hhcurveto
          -175 4 rlineto
          -36 37 vlineto
          97 0 -13 -33 hvcurveto
          -452 vlineto
          hintmask 11001100
          -90 -54 -51 -57 -31 -53 12 38 -29 vhcurveto
          37 3 18 24 29 vvcurveto
          32 -23 23 -32 -31 -25 -20 -37 -74 75 -58 98 92 86 54 82 17 vhcurveto
          hintmask 00110010
          9 callsubr
          endchar
        </CharString>
        <CharString name="J_uni030C.cap">
          583.33333 -20 28 51 110 303 -21 122 28 -4 86 -36 36 83 callgsubr
          hintmask 0001010010000000
          -13 callgsubr
          hintmask 0001010010000000
          9 callsubr
          136 -46 152 callgsubr
          hintmask 0010100000000000
          -18 12 -25 32 18 12 12 0 -21 0 -63 -58 -53 vhcurveto
          -3 -3 -2 -3 -3 vvcurveto
          -5 5 -7 5 vhcurveto
          hintmask 0001000000000000
          10 64 60 90 hvcurveto
          endchar
        </CharString>
        <CharString name="Jacute">
          82 callgsubr
          81 -21 165 -20 83 callgsubr
          hintmask 0011000010000000
          -13 callgsubr
          hintmask 0011000010000000
          9 callsubr
          hintmask 0000110000000000
          -1 213 -104 callgsubr
        </CharString>
        <CharString name="Jcircumflex">
          82 callgsubr
          71 -21 133 -20 83 callgsubr
          hintmask 0011000010000000
          -13 callgsubr
          hintmask 0011000010000000
          9 callsubr
          hintmask 0000110000000000
          102 vmoveto
          -92 callgsubr
          endchar
        </CharString>
        <CharString name="K">
          874 130 callsubr
          hstem
          159 95 355 95 vstem
          -81 callsubr
          endchar
        </CharString>
        <CharString name="Kappa">
          874 130 callsubr
          hstem
          159 95 355 95 vstem
          -81 callsubr
          endchar
        </CharString>
        <CharString name="Kcedilla">
          874 52 callsubr
          hstem
          159 95 355 95 vstem
          -81 callsubr
          -335 -142 -98 callsubr
        </CharString>
        <CharString name="Kcommaaccent">
          874 52 callsubr
          46 callgsubr
          355 95 hintmask 00111100
          -81 callsubr
          hintmask 11000000
          -335 -142 -98 callsubr
        </CharString>
        <CharString name="L">
          91 callsubr
          hstem
          159 95 vstem
          -85 callsubr
          endchar
        </CharString>
        <CharString name="L_uni0303">
          706 0 36 611 124 callgsubr
          hintmask 11000010
          -85 callsubr
          hintmask 00000100
          -229 813 -82 callsubr
        </CharString>
        <CharString name="Lacute">
          91 callsubr
          81 -21 165 -20 46 callgsubr
          hintmask 11001000
          -85 callsubr
          hintmask 00110000
          -263 860 -104 callgsubr
        </CharString>
        <CharString name="Lambda">
          782 0 36 677 -20 hstem
          736 hmoveto
          36 vlineto
          -64 -15 0 40 -15 hvcurveto
          -224 616 rlineto
          20 -7 -11 1 -9 hhcurveto
          -20 -3 -8 -15 -5 hvcurveto
          -215 -589 -19 -53 -41 -11 -43 -1 rlinecurve
          -36 vlineto
          3 31 31 1 31 hhcurveto
          119 -4 rlineto
          36 vlineto
          -52 1 -22 24 24 vvcurveto
          6 0 2 5 12 vhcurveto
          171 470 180 -493 rlineto
          5 -13 0 -2 -3 vvcurveto
          -28 -55 0 -27 vhcurveto
          -36 vlineto
          150 4 rlineto
          41 72 -3 -1 11 hvcurveto
          endchar
        </CharString>
        <CharString name="Lcaron">
          706 0 36 436 -21 146 86 -36 36 46 callgsubr
          hintmask 10011000
          -85 callsubr
          -81 601 rmoveto
          40 callsubr
        </CharString>
        <CharString name="Lcedilla">
          706 52 callsubr
          hstem
          159 95 vstem
          -85 callsubr
          -221 -142 -98 callsubr
        </CharString>
        <CharString name="Lcommaaccent">
          706 52 callsubr
          46 callgsubr
          hintmask 00111000
          -85 callsubr
          hintmask 11000000
          -221 -142 -98 callsubr
        </CharString>
        <CharString name="Ldot">
          706 0 36 312 115 184 36 hstem
          159 95 249 114 vstem
          -85 callsubr
          -4 405 -101 callgsubr
        </CharString>
        <CharString name="Ldotbelow">
          91 callsubr
          46 callgsubr
          42 114 hintmask 11100000
          -85 callsubr
          hintmask 00010000
          -211 -143 -101 callgsubr
        </CharString>
        <CharString name="Ldotbelowmacron">
          91 callsubr
          70 38 46 callgsubr
          42 114 hintmask 11011000
          -85 callsubr
          -211 -143 -100 callgsubr
          hintmask 00100000
          9 896 -19 callgsubr
        </CharString>
        <CharString name="Lslash">
          91 callsubr
          hstem
          159 95 vstem
          -11 callsubr
          308 vlineto
          181 133 -23 29 -158 -116 rlineto
          172 vlineto
          33 0 13 94 vhcurveto
          35 36 hlineto
          -175 -4 -152 4 rlineto
          -36 24 vlineto
          77 2 -10 -35 hvcurveto
          -243 vlineto
          -91 -68 22 -29 69 51 rlineto
          -232 10 callsubr
          endchar
        </CharString>
        <CharString name="M">
          1028 130 callsubr
          hstem
          165 38 34 38 503 84 vstem
          -60 callgsubr
          endchar
        </CharString>
        <CharString name="Mdotbelow">
          1028 130 callsubr
          hstemhm
          165 38 34 38 182 114 207 84 hintmask 11110100
          -60 callgsubr
          hintmask 00001000
          -249 -147 -101 callgsubr
        </CharString>
        <CharString name="Mu">
          1028 130 callsubr
          hstem
          165 38 34 38 503 84 vstem
          -60 callgsubr
          endchar
        </CharString>
        <CharString name="N">
          25 callsubr
          hstem
          159 38 448 38 vstem
          -97 callsubr
          endchar
        </CharString>
        <CharString name="Nacute">
          25 callsubr
          81 -21 165 -20 hstemhm
          159 38 448 38 hintmask 11001100
          -97 callsubr
          hintmask 00110000
          -214 213 -104 callgsubr
        </CharString>
        <CharString name="Ncaron">
          25 callsubr
          113 callsubr
          159 38 448 38 hintmask 11001100
          -97 callsubr
          hintmask 00110000
          -213 203 -61 callsubr
        </CharString>
        <CharString name="Ncedilla">
          843 52 callsubr
          hstem
          159 38 448 38 vstem
          -97 callsubr
          -317 -789 -98 callsubr
        </CharString>
        <CharString name="Ncommaaccent">
          843 52 callsubr
          hstemhm
          159 38 448 38 hintmask 00111100
          -97 callsubr
          hintmask 11000000
          -317 -789 -98 callsubr
        </CharString>
        <CharString name="Ndotaccent">
          25 callsubr
          50 115 143 callsubr
          hintmask 11010100
          -97 callsubr
          hintmask 00101000
          -307 143 -101 callgsubr
        </CharString>
        <CharString name="Ndotbelow">
          25 callsubr
          143 callsubr
          hintmask 11101000
          -97 callsubr
          hintmask 00010000
          -307 -790 -101 callgsubr
        </CharString>
        <CharString name="Ntilde">
          25 callsubr
          50 -23 callsubr
          159 38 448 38 hintmask 11000011
          -97 callsubr
          hintmask 00000100
          -180 166 -82 callsubr
        </CharString>
        <CharString name="Nu">
          25 callsubr
          hstem
          159 38 448 38 vstem
          -97 callsubr
          endchar
        </CharString>
        <CharString name="O">
          14 callsubr
          hstem
          70 107 522 107 vstem
          -103 callgsubr
          endchar
        </CharString>
        <CharString name="OE">
          -48 callsubr
        </CharString>
        <CharString name="OE.dup">
          -48 callsubr
        </CharString>
        <CharString name="Oacute">
          14 callsubr
          61 -21 165 -93 callsubr
          -110 506 -104 callgsubr
        </CharString>
        <CharString name="Obreve">
          14 callsubr
          40 45 133 -93 callsubr
          -93 567 -100 callsubr
          endchar
        </CharString>
        <CharString name="Ocaron">
          14 callsubr
          51 -21 133 -93 callsubr
          -109 496 -61 callsubr
        </CharString>
        <CharString name="Ocircumflex">
          14 callsubr
          51 -21 133 -93 callsubr
          -109 395 -94 callsubr
          endchar
        </CharString>
        <CharString name="Ocircumflexacute">
          14 callsubr
          51 -21 318 -93 callsubr
          -109 395 -94 callsubr
          -27 270 -104 callgsubr
        </CharString>
        <CharString name="Ocircumflexdotbelow">
          14 callsubr
          51 -21 133 -20 150 callgsubr
          hintmask 11111010
          -103 callgsubr
          -109 395 -94 callsubr
          hintmask 00000100
          -82 -876 -101 callgsubr
        </CharString>
        <CharString name="Ocircumflexgrave">
          14 callsubr
          51 -21 133 -93 callsubr
          -109 395 -70 callgsubr
        </CharString>
        <CharString name="Ocircumflexhookabove">
          14 callsubr
          51 -21 336 -93 callsubr
          -109 395 -94 callsubr
          76 271 -107 callgsubr
        </CharString>
        <CharString name="Ocircumflextilde">
          14 callsubr
          51 -21 28 callgsubr
          70 107 522 107 hintmask 1100000110000000
          -103 callgsubr
          hintmask 0010001000000000
          -109 395 -94 callsubr
          45 253 -93 callgsubr
        </CharString>
        <CharString name="Odblgrave">
          14 callsubr
          61 -21 190 -93 callsubr
          -123 407 -95 callsubr
        </CharString>
        <CharString name="Odieresis">
          14 callsubr
          30 104 hstemhm
          70 107 99 116 callgsubr
          97 107 hintmask 11010010
          -103 callgsubr
          hintmask 00101100
          -320 430 -73 callgsubr
        </CharString>
        <CharString name="Odotbelow">
          14 callsubr
          150 callgsubr
          hintmask 11101000
          -103 callgsubr
          hintmask 00010000
          -203 -497 -101 callgsubr
        </CharString>
        <CharString name="Ograve">
          14 callsubr
          61 -21 165 -93 callsubr
          -186 419 -76 callgsubr
        </CharString>
        <CharString name="Ohookabove">
          14 callsubr
          71 -21 203 -93 callsubr
          -153 537 -107 callgsubr
        </CharString>
        <CharString name="Ohorn">
          77 callsubr
          95 -20 64 callgsubr
          hintmask 00101000
          -38 callsubr
          hintmask 11010100
          -87 callsubr
          endchar
        </CharString>
        <CharString name="Ohornacute">
          77 callsubr
          61 -21 55 -20 130 -20 64 callgsubr
          hintmask 00010010
          -38 callsubr
          hintmask 11000101
          -87 callsubr
          hintmask 00101000
          -140 505 -104 callgsubr
        </CharString>
        <CharString name="Ohorndotbelow">
          77 callsubr
          95 -20 hstemhm
          69 107 206 114 135 115 -48 107 hintmask 00100100
          -38 callsubr
          hintmask 11010010
          -87 callsubr
          hintmask 00001000
          -202 -498 -101 callgsubr
        </CharString>
        <CharString name="Ohorngrave">
          77 callsubr
          61 -21 55 -20 130 -20 64 callgsubr
          hintmask 00010010
          -38 callsubr
          hintmask 11000101
          -87 callsubr
          hintmask 00101000
          -185 418 -76 callgsubr
        </CharString>
        <CharString name="Ohornhookabove">
          77 callsubr
          71 -21 45 -20 178 -20 64 callgsubr
          hintmask 00010010
          -38 callsubr
          hintmask 11000101
          -87 callsubr
          hintmask 00101000
          -152 536 -107 callgsubr
        </CharString>
        <CharString name="Ohorntilde">
          77 callsubr
          30 54 -34 54 -48 54 -34 54 64 callgsubr
          hintmask 0000000100000000
          -38 callsubr
          hintmask 1100001010000000
          -87 callsubr
          hintmask 0000010000000000
          -75 458 rmoveto
          -20 20 rlineto
          hintmask 0010000000000000
          -31 -29 -29 -15 -28 hhcurveto
          hintmask 0001000000000000
          -26 -30 15 5 -8 hvcurveto
          hintmask 0000010000000000
          17 -36 -21 9 -22 hhcurveto
          hintmask 0001000000000000
          -41 -15 -16 -64 -63 hvcurveto
          hintmask 0010000000000000
          20 -20 rlineto
          hintmask 0000010000000000
          31 29 29 15 28 93 callgsubr
          26 30 -15 -5 8 hvcurveto
          hintmask 0010000000000000
          -17 36 21 -9 22 93 callgsubr
          41 15 16 64 63 hvcurveto
          endchar
        </CharString>
        <CharString name="Ohungarumlaut">
          14 callsubr
          61 -21 190 -93 callsubr
          -258 539 -74 callsubr
        </CharString>
        <CharString name="Omacron">
          14 callsubr
          50 38 41 callsubr
          hintmask 11011000
          -103 callgsubr
          hintmask 00100000
          -61 399 -19 callgsubr
        </CharString>
        <CharString name="Omega">
          -28 callsubr
        </CharString>
        <CharString name="Omicron">
          14 callsubr
          hstem
          70 107 522 107 vstem
          -103 callgsubr
          endchar
        </CharString>
        <CharString name="Oogonek">
          877 -20 33 -32 32 658 32 41 callsubr
          hintmask 01110000
          13 callgsubr
          hintmask 10111000
          31 callsubr
          endchar
        </CharString>
        <CharString name="Oogonekacute">
          877 -20 33 -32 32 658 32 61 -21 165 -20 41 callsubr
          hintmask 01100100
          13 callgsubr
          hintmask 10100110
          31 callsubr
          hintmask 00011000
          -110 506 -104 callgsubr
        </CharString>
        <CharString name="Orogate">
          877 70 107 247 28 247 107 vstem
          27 callsubr
          195 -157 162 -197 8 vhcurveto
          175 -28 -175 vlineto
          -198 -8 -156 -162 -195 vvcurveto
          -192 156 -159 198 -7 vhcurveto
          -174 28 174 vlineto
          198 7 156 159 192 vvcurveto
          -107 16 rmoveto
          -246 -144 -95 -117 -117 -144 95 246 232 147 85 114 114 147 -85 -232 vhcurveto
          endchar
        </CharString>
        <CharString name="Oslash">
          75 callgsubr
          hstem
          70 95 546 95 vstem
          -59 callsubr
          endchar
        </CharString>
        <CharString name="Oslash.dup">
          75 callgsubr
          hstem
          70 95 546 95 vstem
          -59 callsubr
          endchar
        </CharString>
        <CharString name="Oslashacute">
          75 callgsubr
          42 -21 165 -20 hstemhm
          70 95 546 95 hintmask 1111100110000000
          -59 callsubr
          hintmask 0000011000000000
          -122 521 -104 callgsubr
        </CharString>
        <CharString name="Otilde">
          14 callsubr
          30 -23 callsubr
          70 107 522 107 hintmask 11000011
          -103 callgsubr
          hintmask 00000100
          -76 459 -82 callsubr
        </CharString>
        <CharString name="P">
          -7 callsubr
        </CharString>
        <CharString name="Phi">
          816 0 36 101 31 347 31 101 36 hstem
          70 103 187 88 193 103 vstem
          744 341 rmoveto
          108 -137 84 -159 11 vhcurveto
          57 63 callsubr
          -58 vlineto
          -175 -14 -115 -91 -96 vvcurveto
          -100 120 -88 170 -14 vhcurveto
          61 callsubr
          57 vlineto
          164 12 132 86 104 vvcurveto
          -384 -173 rmoveto
          -83 8 -104 37 128 vvcurveto
          132 108 34 79 8 vhcurveto
          281 -173 rmoveto
          -132 -109 -36 -84 -6 vhcurveto
          347 vlineto
          91 -7 102 -40 -126 vvcurveto
          endchar
        </CharString>
        <CharString name="Pi">
          843 0 36 607 87 callgsubr
          517 vlineto
          34 2 11 77 vhcurveto
          24 36 -730 89 callsubr
          150 4 151 -49 callsubr
          562 334 -562 -53 callsubr
          150 4 rlineto
          endchar
        </CharString>
        <CharString name="Psi">
          877 0 36 485 31 95 36 hstem
          149 88 154 88 160 88 vstem
          806 538 rmoveto
          14 -13 0 -15 vhcurveto
          -38 hlineto
          -90 -11 -91 -64 hvcurveto
          -1 -76 -27 -128 -132 -23 rrcurveto
          431 63 callsubr
          -431 vlineto
          -149 33 -5 147 68 vvcurveto
          12 -1 122 -100 vhcurveto
          -37 hlineto
          -15 -14 0 -14 -12 12 -2 3 hvcurveto
          63 -7 1 -91 -7 vvcurveto
          -42 1 -86 64 -71 vhcurveto
          37 -41 61 -31 79 -8 rrcurveto
          61 callsubr
          58 vlineto
          114 12 45 45 24 25 46 46 18 83 1 43 rrcurveto
          34 1 30 15 32 vhcurveto
          15 29 18 3 18 3 rrcurveto
          7 5 6 7 hvcurveto
          endchar
        </CharString>
        <CharString name="Q">
          877 -194 107 67 32 -18 32 97 28 520 32 hstemhm
          70 103 174 28 328 103 -22 28 hintmask 1000000010000000
          812 -8 rmoveto
          8 0 14 -14 -12 -1 -11 -8 -1 vhcurveto
          -59 -7 -52 -23 -39 hhcurveto
          -53 -25 41 55 -26 hvcurveto
          hintmask 0100110100000000
          126 50 98 127 152 vvcurveto
          200 -164 165 -204 -205 -163 -165 -200 -196 163 -162 205 vhcurveto
          hintmask 1011111010000000
          12 40 0 14 50 hvcurveto
          -100 23 21 -88 93 hhcurveto
          105 30 124 62 hvcurveto
          -109 347 rmoveto
          -177 -82 -82 -58 -33 vhcurveto
          50 -25 -34 54 -65 hhcurveto
          -52 -40 -38 -47 -14 4 -15 7 -11 hvcurveto
          -88 30 -97 91 192 vvcurveto
          234 142 98 123 vhcurveto
          hintmask 0101001100000000
          123 142 -98 -234 hvcurveto
          -173 -309 rmoveto
          -7 -17 -35 -11 -40 hhcurveto
          -53 -10 39 16 29 26 27 38 51 24 -37 -56 16 hvcurveto
          endchar
        </CharString>
        <CharString name="R">
          22 callgsubr
          39 callgsubr
          hintmask 0010111100000000
          -88 callsubr
          hintmask 0101010000000000
          -68 callsubr
          hintmask 1001110110000000
          -78 callgsubr
          endchar
        </CharString>
        <CharString name="Racute">
          22 callgsubr
          81 -21 165 -20 39 callgsubr
          hintmask 0010100111000000
          -88 callsubr
          hintmask 0101000100000000
          -68 callsubr
          hintmask 1001100101100000
          -78 callgsubr
          hintmask 0000011000000000
          -10 358 -104 callgsubr
        </CharString>
        <CharString name="Rcaron">
          22 callgsubr
          71 -21 133 -20 39 callgsubr
          hintmask 0010100111000000
          -88 callsubr
          hintmask 0101000100000000
          -68 callsubr
          hintmask 1001100101100000
          -78 callgsubr
          hintmask 0000011000000000
          -9 348 -61 callsubr
        </CharString>
        <CharString name="Rcedilla">
          829 112 callgsubr
          40 callgsubr
          39 callgsubr
          hintmask 0000101111000000
          -88 callsubr
          hintmask 0001010100000000
          -68 callsubr
          hintmask 1110011101100000
          -78 callgsubr
          -113 -644 -98 callsubr
        </CharString>
        <CharString name="Rcommaaccent">
          829 112 callgsubr
          40 callgsubr
          39 callgsubr
          hintmask 0000101111000000
          -88 callsubr
          hintmask 0001010100000000
          -68 callsubr
          hintmask 0010011101100000
          -78 callgsubr
          hintmask 1100000000000000
          -113 -644 -98 callsubr
        </CharString>
        <CharString name="Rdblgrave">
          22 callgsubr
          81 -21 190 -20 39 callgsubr
          hintmask 0010100111000000
          -88 callsubr
          hintmask 0101000100000000
          -68 callsubr
          hintmask 1001100101100000
          -78 callgsubr
          hintmask 0000011010000000
          -54 259 -95 callsubr
        </CharString>
        <CharString name="Rdotaccent">
          22 callgsubr
          70 115 74 callsubr
          hintmask 0010101011000000
          -88 callsubr
          hintmask 0101001000000000
          -68 callsubr
          hintmask 1001101001100000
          -78 callgsubr
          hintmask 0000010100000000
          -103 308 -101 callgsubr
        </CharString>
        <CharString name="Rdotbelow">
          22 callgsubr
          74 callsubr
          hintmask 0010110110000000
          -88 callsubr
          hintmask 0101010000000000
          -68 callsubr
          hintmask 1001110011000000
          -78 callgsubr
          hintmask 0000001000000000
          -103 -645 -101 callgsubr
        </CharString>
        <CharString name="Rdotbelowmacron">
          22 callgsubr
          70 38 74 callsubr
          hintmask 0010101011000000
          -88 callsubr
          hintmask 0101001000000000
          -68 callsubr
          hintmask 1001101101100000
          -78 callgsubr
          -103 -645 -100 callgsubr
          hintmask 0000010000000000
          142 896 -19 callgsubr
        </CharString>
        <CharString name="Rho">
          -7 callsubr
        </CharString>
        <CharString name="S">
          72 callgsubr
          62 callsubr
          hintmask 01111000
          560 185 rmoveto
          -90 callgsubr
          hintmask 10010100
          -80 callgsubr
          endchar
        </CharString>
        <CharString name="S_S">
          1262 97 callgsubr
          62 callsubr
          141 64 318 64 -20 64 hintmask 0111100000000000
          560 185 rmoveto
          -90 callgsubr
          hintmask 1111011100000000
          -80 callgsubr
          631 hmoveto
          -90 callgsubr
          hintmask 1000001010000000
          -80 callgsubr
          endchar
        </CharString>
        <CharString name="Sacute">
          72 callgsubr
          61 -21 165 -20 62 callsubr
          hintmask 01100110
          560 185 rmoveto
          -90 callgsubr
          hintmask 10000101
          -80 callgsubr
          hintmask 00011000
          -94 675 -104 callgsubr
        </CharString>
        <CharString name="Scaron">
          72 callgsubr
          51 -21 133 -20 62 callsubr
          hintmask 01100110
          560 185 rmoveto
          -90 callgsubr
          hintmask 10000101
          -80 callgsubr
          hintmask 00011000
          -93 665 -61 callsubr
        </CharString>
        <CharString name="Scedilla">
          631 -166 36 0 36 74 36 -32 32 460 36 159 32 hstemhm
          70 64 178 64 76 64 -20 64 hintmask 0000111110000000
          560 185 rmoveto
          -90 callgsubr
          hintmask 0010001001000000
          23 -23 21 -32 -45 vvcurveto
          -70 -58 -71 -96 -97 -134 38 151 -7 vhcurveto
          16 -1 0 6 -16 hhcurveto
          -17 0 -7 -20 hvcurveto
          -194 vlineto
          -17 0 -9 14 8 2 3 9 6 vhcurveto
          9 12 20 32 8 13 rrcurveto
          hintmask 0101000100000000
          44 -39 51 -18 49 -8 rrcurveto
          -78 vlineto
          44 51 0 -36 hvcurveto
          hintmask 1010000001000000
          90 callgsubr
          -58 hvcurveto
          40 vlineto
          128 4 83 97 104 vvcurveto
          endchar
        </CharString>
        <CharString name="Scircumflex">
          72 callgsubr
          51 -21 133 -20 62 callsubr
          hintmask 01100110
          560 185 rmoveto
          -90 callgsubr
          hintmask 10000101
          -80 callgsubr
          hintmask 00011000
          -93 564 -94 callsubr
          endchar
        </CharString>
        <CharString name="Sdotbelow">
          72 callgsubr
          hstemhm
          70 64 125 114 79 64 -20 64 hintmask 01110100
          560 185 rmoveto
          -90 callgsubr
          hintmask 10010010
          -80 callgsubr
          hintmask 00001000
          -187 -328 -101 callgsubr
        </CharString>
        <CharString name="Sigma">
          816 0 48 599 36 hstem
          744 242 rmoveto
          -34 hlineto
          -21 -174 -88 -9 -71 -7 rrcurveto
          -3 -35 -6 -1 -42 hhcurveto
          -299 hlineto
          268 276 rlineto
          12 11 0 2 5 vvcurveto
          5 -6 7 -1 2 vhcurveto
          -224 291 rlineto
          252 hlineto
          165 73 -24 -170 23 -19 callsubr
          -615 hlineto
          -25 -4 -1 -25 hvcurveto
          273 -356 -260 -268 rlineto
          -11 -12 -2 -1 -6 vvcurveto
          -14 13 0 16 vhcurveto
          615 hlineto
          endchar
        </CharString>
        <CharString name="T">
          816 0 36 603 37 -36 36 57 callsubr
          hintmask 11010000
          -73 callsubr
          endchar
        </CharString>
        <CharString name="T_uni0303">
          84 callgsubr
          57 54 -34 54 -48 54 -34 54 57 callsubr
          hintmask 11000001
          -73 callsubr
          hintmask 00000010
          -140 367 9 callgsubr
        </CharString>
        <CharString name="T_uni0308">
          84 callgsubr
          57 104 hstemhm
          245 103 12 95 13 103 hintmask 00100000
          -45 callgsubr
          hintmask 11000100
          -73 callsubr
          hintmask 00011010
          -384 338 -73 callgsubr
        </CharString>
        <CharString name="Tau">
          816 0 36 603 37 -36 36 57 callsubr
          hintmask 11010000
          -73 callsubr
          endchar
        </CharString>
        <CharString name="Tcaron">
          84 callgsubr
          78 -21 133 -20 57 callsubr
          hintmask 11000100
          -73 callsubr
          hintmask 00011000
          -173 404 -61 callsubr
        </CharString>
        <CharString name="Tcedilla">
          816 -200 34 72 34 60 155 callgsubr
          -81 68 26 92 hintmask 00001000
          -45 callgsubr
          hintmask 00110100
          20 29 0 -1 10 hvcurveto
          22 -4 0 -11 -23 vvcurveto
          -519 vlineto
          -33 0 -13 -104 vhcurveto
          -42 -36 hlineto
          hintmask 11100011
          3 39 68 1 53 hhcurveto
          -98 vlineto
          43 51 7 callsubr
          50 -60 20 -58 hvcurveto
          64 vlineto
          51 68 -1 -3 40 hvcurveto
          36 -42 vlineto
          hintmask 00010100
          -104 0 13 33 148 callgsubr
          23 0 11 22 4 vhcurveto
          hintmask 00001000
          1 10 29 0 20 hhcurveto
          56 43 0 -20 35 hvcurveto
          45 -27 7 -64 1 -5 9 -78 rcurveline
          endchar
        </CharString>
        <CharString name="Tdotbelow">
          84 callgsubr
          hstemhm
          351 114 -105 6 callsubr
          hintmask 11001000
          -73 callsubr
          hintmask 00010000
          -267 -589 -101 callgsubr
        </CharString>
        <CharString name="Theta">
          877 -20 30 292 82 291 28 hstem
          70 100 63 34 342 34 63 100 vstem
          80 callsubr
          -196 163 -162 205 205 163 162 196 vhcurveto
          -100 1 rmoveto
          -236 -148 -93 -120 -121 -147 94 235 235 144 101 124 124 144 -101 -235 vhcurveto
          -63 -71 rmoveto
          150 -34 -34 -342 34 -34 -150 34 34 342 -34 vlineto
          endchar
        </CharString>
        <CharString name="Thorn">
          706 1 35 142 36 305 36 92 35 hstem
          162 88 283 103 vstem
          636 366 rmoveto
          89 -82 100 -157 vhcurveto
          -147 45 hlineto
          27 1 13 31 4 vhcurveto
          3 20 23 0 28 hhcurveto
          35 vlineto
          -147 -3 -147 3 rlineto
          -35 vlineto
          25 30 0 -3 20 hvcurveto
          28 -5 0 -15 -24 vvcurveto
          -517 vlineto
          -27 -1 -13 -31 -4 vhcurveto
          -3 -20 -23 0 -28 hhcurveto
          -35 vlineto
          147 3 147 -3 rlineto
          35 vlineto
          -25 -30 0 3 -20 hvcurveto
          -28 5 0 15 24 vvcurveto
          95 159 vlineto
          126 101 87 101 hvcurveto
          -103 1 rmoveto
          -73 -58 -80 -103 vhcurveto
          -122 305 128 hlineto
          124 31 -104 -48 hvcurveto
          endchar
        </CharString>
        <CharString name="Tlinebelow">
          816 -161 38 123 155 callgsubr
          hintmask 00010000
          -45 callgsubr
          hintmask 01101000
          20 29 0 -1 10 hvcurveto
          22 -4 0 -11 -23 vvcurveto
          -519 vlineto
          -33 0 -13 -104 vhcurveto
          -42 -36 hlineto
          4 49 93 0 52 hhcurveto
          52 92 0 -4 49 hvcurveto
          36 -42 vlineto
          -104 0 13 33 148 callgsubr
          23 0 11 22 4 vhcurveto
          hintmask 00010000
          1 10 29 0 20 hhcurveto
          56 43 0 -20 35 hvcurveto
          45 -27 7 -64 1 -5 9 -78 rcurveline
          hintmask 10000000
          -125 -607 -19 callgsubr
        </CharString>
        <CharString name="U">
          18 callsubr
          hstem
          159 95 393 36 vstem
          -105 callgsubr
          endchar
        </CharString>
        <CharString name="U_uni032F">
          843 -210 -21 133 45 33 36 631 36 46 callgsubr
          393 36 hintmask 00111100
          -105 callgsubr
          hintmask 11000000
          -172 -878 -40 callgsubr
        </CharString>
        <CharString name="Uacute">
          18 callsubr
          81 -21 165 -20 46 callgsubr
          393 36 hintmask 11001100
          -105 callgsubr
          hintmask 00110000
          -189 213 -104 callgsubr
        </CharString>
        <CharString name="Ubreve">
          18 callsubr
          60 127 callgsubr
          393 36 hintmask 11001100
          -105 callgsubr
          hintmask 00110000
          -172 274 -100 callsubr
          endchar
        </CharString>
        <CharString name="Ucaron">
          18 callsubr
          113 callsubr
          159 95 393 36 hintmask 11001100
          -105 callgsubr
          hintmask 00110000
          -188 203 -61 callsubr
        </CharString>
        <CharString name="Ucircumflex">
          18 callsubr
          113 callsubr
          159 95 393 36 hintmask 11001100
          -105 callgsubr
          hintmask 00110000
          -188 102 -94 callsubr
          endchar
        </CharString>
        <CharString name="Udblgrave">
          18 callsubr
          81 -21 190 -20 46 callgsubr
          393 36 hintmask 11001100
          -105 callgsubr
          hintmask 00110000
          -202 114 -95 callsubr
        </CharString>
        <CharString name="Udieresis">
          83 callsubr
          46 callgsubr
          30 116 callgsubr
          37 36 hintmask 11010010
          -105 callgsubr
          hintmask 00101100
          -12 callsubr
          endchar
        </CharString>
        <CharString name="Udieresisacute">
          83 callsubr
          80 -21 165 -20 46 callgsubr
          30 116 callgsubr
          37 36 hintmask 1100010010000000
          -105 callgsubr
          hintmask 0011101100000000
          -12 callsubr
          -13 229 -104 callgsubr
        </CharString>
        <CharString name="Udieresiscaron">
          83 callsubr
          70 -21 133 -20 46 callgsubr
          30 116 callgsubr
          37 36 hintmask 1100010010000000
          -105 callgsubr
          hintmask 0011101100000000
          -12 callsubr
          -12 219 -61 callsubr
        </CharString>
        <CharString name="Udieresisgrave">
          83 callsubr
          80 -21 165 -20 46 callgsubr
          30 116 callgsubr
          37 36 hintmask 1100010010000000
          -105 callgsubr
          hintmask 0011101100000000
          -12 callsubr
          -89 142 -76 callgsubr
        </CharString>
        <CharString name="Udotbelow">
          18 callsubr
          46 callgsubr
          136 114 143 36 hintmask 11101000
          -105 callgsubr
          hintmask 00010000
          -282 -790 -101 callgsubr
        </CharString>
        <CharString name="Ugrave">
          18 callsubr
          81 -21 165 -20 46 callgsubr
          393 36 hintmask 11001100
          -105 callgsubr
          hintmask 00110000
          -265 126 -76 callgsubr
        </CharString>
        <CharString name="Uhookabove">
          18 callsubr
          91 -21 203 -20 46 callgsubr
          393 36 hintmask 11001100
          -105 callgsubr
          hintmask 00110000
          -232 244 -107 callgsubr
        </CharString>
        <CharString name="Uhorn">
          26 callsubr
          115 -20 hstemhm
          158 95 332 36 -11 36 0 36 9 115 hintmask 0000110001100000
          -47 callgsubr
          hintmask 0100101101000000
          -52 callgsubr
          hintmask 0010001000000000
          -49 callgsubr
          hintmask 0110001000000000
          11 -4 6 -12 -12 vvcurveto
          -386 vlineto
          -67 31 -63 51 -46 vhcurveto
          hintmask 1000000010000000
          33 callgsubr
          hintmask 0000000001100000
          17 callgsubr
          endchar
        </CharString>
        <CharString name="Uhornacute">
          26 callsubr
          81 -21 55 -20 130 -79 callgsubr
          -239 133 -104 callgsubr
        </CharString>
        <CharString name="Uhorndotbelow">
          26 callsubr
          115 -20 hstemhm
          158 95 112 114 106 36 -11 36 0 36 9 115 hintmask 0000110000110000
          -47 callgsubr
          hintmask 0100101010100000
          -52 callgsubr
          hintmask 0010001000000000
          -49 callgsubr
          hintmask 0110001000000000
          11 -4 6 -12 -12 vvcurveto
          -386 vlineto
          -67 31 -63 51 -46 vhcurveto
          hintmask 1000000001000000
          33 callgsubr
          hintmask 0000000000110000
          17 callgsubr
          hintmask 0000000100000000
          -327 -870 -101 callgsubr
        </CharString>
        <CharString name="Uhorngrave">
          26 callsubr
          81 -21 55 -20 130 -79 callgsubr
          -285 46 -76 callgsubr
        </CharString>
        <CharString name="Uhornhookabove">
          26 callsubr
          91 -21 45 -20 178 -79 callgsubr
          -252 164 -107 callgsubr
        </CharString>
        <CharString name="Uhorntilde">
          26 callsubr
          50 -23 callsubr
          158 95 332 36 -11 36 0 36 9 115 hintmask 0000100000001100
          -47 callgsubr
          hintmask 0100100001101000
          -52 callgsubr
          hintmask 0010000001000000
          -49 callgsubr
          hintmask 0110000001000000
          11 -4 6 -12 -12 vvcurveto
          -386 vlineto
          -67 31 -63 51 -46 vhcurveto
          hintmask 1000000000010000
          33 callgsubr
          hintmask 0000000000001100
          17 callgsubr
          hintmask 0000000010000000
          -175 86 -34 callgsubr
        </CharString>
        <CharString name="Uhungarumlaut">
          18 callsubr
          81 -21 190 -20 46 callgsubr
          393 36 hintmask 11001100
          -105 callgsubr
          hintmask 00110000
          -337 246 -74 callsubr
        </CharString>
        <CharString name="Umacron">
          18 callsubr
          70 38 46 callgsubr
          393 36 hintmask 11011000
          -105 callgsubr
          hintmask 00100000
          -140 106 -19 callgsubr
        </CharString>
        <CharString name="Uogonek">
          843 -232 58 154 36 631 36 hstem
          159 95 393 36 vstem
          786 647 rmoveto
          36 vlineto
          -3 -40 -41 -1 -40 hhcurveto
          -40 -41 138 callgsubr
          103 0 -45 -27 hvcurveto
          -343 vlineto
          -138 -106 -78 -104 -59 -124 31 180 vhcurveto
          375 -96 callgsubr
          -372 vlineto
          -132 107 -100 131 -16 vhcurveto
          -33 -31 -29 -45 -1 -37 rrcurveto
          -54 callsubr
          -72 3 -21 53 25 51 9 18 12 15 14 14 rrcurveto
          135 2 109 108 139 vvcurveto
          346 vlineto
          27 0 45 103 vhcurveto
          endchar
        </CharString>
        <CharString name="Upsilon">
          877 0 36 587 80 hstem
          70 37 284 95 283 37 vstem
          806 552 rmoveto
          64 -52 87 -94 -119 -78 -108 -141 -24 vhcurveto
          -1 hlineto
          147 -27 -78 102 -117 hhcurveto
          -95 -51 -87 -64 -7 0 -13 18 16 1 8 12 1 hvcurveto
          60 7 74 11 28 hhcurveto
          128 48 -156 -120 hvcurveto
          -265 vlineto
          -33 0 -13 -94 vhcurveto
          -35 -36 hlineto
          2 23 129 2 24 hhcurveto
          177 -4 rlineto
          36 -35 vlineto
          -94 0 13 33 hvcurveto
          265 vlineto
          119 47 157 128 34 68 -14 -57 7 vhcurveto
          -12 1 1 -8 16 hhcurveto
          18 0 13 7 hvcurveto
          endchar
        </CharString>
        <CharString name="Uring">
          18 callsubr
          30 35 106 35 46 callgsubr
          84 42 134 42 91 36 hintmask 11001001
          -105 callgsubr
          hintmask 00110110
          -272 154 -55 callgsubr
        </CharString>
        <CharString name="Utilde">
          843 -20 36 631 124 callgsubr
          393 36 hintmask 11000011
          -105 callgsubr
          hintmask 00000100
          -155 166 -82 callsubr
        </CharString>
        <CharString name="V">
          843 1 -21 631 36 0 36 hstemhm
          hintmask 00100000
          811 647 rmoveto
          36 vlineto
          -3 -29 -39 -1 -29 -40 -74 4 -6 hhcurveto
          -36 vlineto
          37 32 -16 -31 -7 -2 -7 -3 -7 hvcurveto
          -207 -483 -216 507 rlineto
          -6 12 0 2 3 vvcurveto
          27 52 0 27 vhcurveto
          36 vlineto
          -149 -4 rlineto
          -50 -75 4 -3 hhcurveto
          -36 17 vlineto
          hintmask 11000000
          54 17 -5 -31 13 hvcurveto
          260 -608 rlineto
          -16 7 3 -7 19 hhcurveto
          10 10 0 21 9 hvcurveto
          248 580 13 31 24 34 76 1 rlinecurve
          endchar
        </CharString>
        <CharString name="W">
          153 callgsubr
          hstem
          -91 callsubr
          endchar
        </CharString>
        <CharString name="Wacute">
          153 callgsubr
          81 -21 165 -20 hstemhm
          hintmask 11100000
          -91 callsubr
          hintmask 00011000
          -395 213 -104 callgsubr
        </CharString>
        <CharString name="Wcircumflex">
          153 callgsubr
          113 callsubr
          hintmask 11100000
          -91 callsubr
          hintmask 00011000
          -394 102 -94 callsubr
          endchar
        </CharString>
        <CharString name="Wdieresis">
          153 callgsubr
          50 104 hstemhm
          413 116 callgsubr
          hintmask 11100100
          -91 callsubr
          hintmask 00011100
          -605 41 callgsubr
        </CharString>
        <CharString name="Wgrave">
          153 callgsubr
          81 -21 165 -20 hstemhm
          hintmask 11100000
          -91 callsubr
          hintmask 00011000
          -471 126 -76 callgsubr
        </CharString>
        <CharString name="X">
          -38 callgsubr
        </CharString>
        <CharString name="Xi">
          754 0 75 97 -20 131 -21 52 75 52 -20 115 -21 86 75 hstemhm
          54 34 -28 34 68 34 361 34 68 34 -28 34 hintmask 0000011010010000
          693 515 rmoveto
          -9 161 rlineto
          -615 hlineto
          -9 -161 rlineto
          34 hlineto
          1 15 2 47 10 14 rrcurveto
          10 6 55 0 19 hhcurveto
          379 hlineto
          12 60 0 -7 7 hvcurveto
          11 -12 2 -50 1 -17 rrcurveto
          40 -343 rmoveto
          hintmask 1111100101101000
          -34 hlineto
          -1 -17 -2 -56 -11 -14 rrcurveto
          -10 -6 -66 0 -12 hhcurveto
          -381 hlineto
          -31 -49 0 12 -6 hvcurveto
          -9 19 -2 49 -1 17 rrcurveto
          -34 hlineto
          9 -172 rlineto
          627 hlineto
          -99 262 rmoveto
          179 -34 -52 -361 52 -34 -179 34 52 361 -52 vlineto
          endchar
        </CharString>
        <CharString name="Y">
          25 callsubr
          hstem
          375 91 vstem
          -95 callgsubr
          endchar
        </CharString>
        <CharString name="Yacute">
          25 callsubr
          81 -21 165 -20 hstemhm
          375 91 hintmask 11001000
          -95 callgsubr
          hintmask 00110000
          -246 213 -104 callgsubr
        </CharString>
        <CharString name="Ycircumflex">
          25 callsubr
          113 callsubr
          375 91 hintmask 11001000
          -95 callgsubr
          hintmask 00110000
          -245 102 -94 callsubr
          endchar
        </CharString>
        <CharString name="Ydieresis">
          25 callsubr
          50 104 hstemhm
          259 103 13 91 16 103 hintmask 11001000
          -95 callgsubr
          hintmask 00110100
          -456 41 callgsubr
        </CharString>
        <CharString name="Ydotbelow">
          25 callsubr
          hstemhm
          365 114 -104 91 hintmask 11010000
          -95 callgsubr
          hintmask 00100000
          -339 -790 -101 callgsubr
        </CharString>
        <CharString name="Ygrave">
          25 callsubr
          81 -21 165 -20 hstemhm
          375 91 hintmask 11001000
          -95 callgsubr
          hintmask 00110000
          -322 126 -76 callgsubr
        </CharString>
        <CharString name="Yhookabove">
          25 callsubr
          91 -21 203 -20 hstemhm
          375 91 hintmask 11001000
          -95 callgsubr
          hintmask 00111000
          -289 244 -107 callgsubr
        </CharString>
        <CharString name="Ytilde">
          25 callsubr
          50 -23 callsubr
          375 91 hintmask 11000010
          -95 callgsubr
          hintmask 00000100
          -212 166 -82 callsubr
        </CharString>
        <CharString name="Z">
          77 callgsubr
          hstem
          -72 callgsubr
          endchar
        </CharString>
        <CharString name="Zacute">
          77 callgsubr
          81 -21 165 -20 hstemhm
          hintmask 11000000
          -72 callgsubr
          hintmask 00110000
          -113 860 -104 callgsubr
        </CharString>
        <CharString name="Zcaron">
          77 callgsubr
          113 callsubr
          hintmask 11000000
          -72 callgsubr
          hintmask 00110000
          -112 850 -61 callsubr
        </CharString>
        <CharString name="Zdotaccent">
          77 callgsubr
          70 115 hstemhm
          290 114 hintmask 11000000
          -72 callgsubr
          hintmask 00110000
          -206 810 -101 callgsubr
        </CharString>
        <CharString name="Zdotbelow">
          77 callgsubr
          hstemhm
          290 114 hintmask 11000000
          -72 callgsubr
          hintmask 00100000
          -206 -143 -101 callgsubr
        </CharString>
        <CharString name="Zeta">
          77 callgsubr
          hstem
          -72 callgsubr
          endchar
        </CharString>
        <CharString name="a">
          -37 callsubr
          11 callsubr
          hintmask 01111100
          544 90 rmoveto
          -106 callgsubr
          hintmask 10000000
          -48 callgsubr
          hintmask 01000100
          -67 callsubr
          hintmask 10011000
          -69 callsubr
          endchar
        </CharString>
        <CharString name="aacute">
          -37 callsubr
          81 -21 192 -98 callgsubr
          65 417 -91 callgsubr
        </CharString>
        <CharString name="abreve">
          -37 callsubr
          67 45 133 -98 callgsubr
          20 callsubr
          endchar
        </CharString>
        <CharString name="abreveacute">
          -37 callsubr
          67 45 318 -20 callsubr
          20 callsubr
          -55 137 -104 callgsubr
        </CharString>
        <CharString name="abrevedotbelow">
          -37 callsubr
          67 45 133 -20 hstemhm
          45 84 99 114 15 79 74 34 hintmask 0110010110000000
          544 90 rmoveto
          -106 callgsubr
          hintmask 1000000000000000
          -48 callgsubr
          hintmask 0100000010000000
          -67 callsubr
          hintmask 1001111100000000
          -69 callsubr
          20 callsubr
          hintmask 0000001000000000
          -110 -834 -101 callgsubr
        </CharString>
        <CharString name="abrevegrave">
          -37 callsubr
          67 45 133 -98 callgsubr
          95 451 -39 callsubr
        </CharString>
        <CharString name="abrevehookabove">
          -37 callsubr
          67 45 336 -98 callgsubr
          20 callsubr
          -59 138 -107 callgsubr
        </CharString>
        <CharString name="abrevetilde">
          -37 callsubr
          67 141 callsubr
          45 84 228 79 74 34 hintmask 0110000011100000
          544 90 rmoveto
          -106 callgsubr
          hintmask 1000000000000000
          -48 callgsubr
          hintmask 0100000000100000
          -67 callsubr
          hintmask 1000000011000000
          -69 callsubr
          hintmask 0001000100000000
          20 callsubr
          17 120 -79 callsubr
        </CharString>
        <CharString name="acaron">
          -37 callsubr
          89 -21 176 -98 callgsubr
          80 436 -58 callgsubr
        </CharString>
        <CharString name="acircumflex">
          -37 callsubr
          89 -21 176 -98 callgsubr
          80 288 -65 callgsubr
          endchar
        </CharString>
        <CharString name="acircumflexacute">
          -37 callsubr
          89 -21 318 -20 callsubr
          80 callgsubr
          -27 270 -104 callgsubr
        </CharString>
        <CharString name="acircumflexdotbelow">
          -37 callsubr
          89 -21 176 -20 hstemhm
          45 84 99 114 15 79 74 34 hintmask 0110010110000000
          544 90 rmoveto
          -106 callgsubr
          hintmask 1000000000000000
          -48 callgsubr
          hintmask 0100000010000000
          -67 callsubr
          hintmask 1001111100000000
          -69 callsubr
          80 288 -65 callgsubr
          hintmask 0000001000000000
          -82 -657 -101 callgsubr
        </CharString>
        <CharString name="acircumflexgrave">
          -37 callsubr
          89 -21 133 -20 callsubr
          79 290 -70 callgsubr
        </CharString>
        <CharString name="acircumflexhookabove">
          -37 callsubr
          89 -21 336 -20 callsubr
          80 callgsubr
          76 271 -107 callgsubr
        </CharString>
        <CharString name="acircumflextilde">
          -37 callsubr
          89 -21 28 callgsubr
          45 84 228 79 74 34 hintmask 0110000011100000
          544 90 rmoveto
          -106 callgsubr
          hintmask 1000000000000000
          -48 callgsubr
          hintmask 0100000000100000
          -67 callsubr
          hintmask 1000000011000000
          -69 callsubr
          hintmask 0001000101000000
          80 callgsubr
          45 253 -79 callsubr
        </CharString>
        <CharString name="acute">
          569 527 131 callgsubr
          hstem
          422 657 -91 callgsubr
        </CharString>
        <CharString name="acute.cap">
          569 511 -21 165 -20 hstem
          435 607 -104 callgsubr
        </CharString>
        <CharString name="acute.dup">
          569 527 131 callgsubr
          hstem
          422 657 -91 callgsubr
        </CharString>
        <CharString name="acute.ts1">
          569 530 85 callgsubr
          441 658 rmoveto
          22 -19 19 -22 -24 -13 -23 -16 -15 vhcurveto
          -113 -128 15 -18 rlineto
          -2 3 2 -3 4 hhcurveto
          5 5 5 3 4 hvcurveto
          127 91 rlineto
          18 13 23 11 26 vvcurveto
          endchar
        </CharString>
        <CharString name="adblgrave">
          -37 callsubr
          82 -21 190 -98 callgsubr
          65 285 -95 callsubr
        </CharString>
        <CharString name="adieresis">
          -37 callsubr
          104 104 hstemhm
          45 84 10 103 86 103 -74 79 74 34 hintmask 0110110110000000
          544 90 rmoveto
          -106 callgsubr
          hintmask 1000000000000000
          -48 callgsubr
          hintmask 0100000010000000
          -67 callsubr
          hintmask 1000100100000000
          -69 callsubr
          hintmask 0001011000000000
          -115 361 -61 callgsubr
        </CharString>
        <CharString name="adotbelow">
          -37 callsubr
          hstemhm
          45 84 99 114 15 79 74 34 hintmask 01110110
          544 90 rmoveto
          -106 callgsubr
          hintmask 10000000
          -48 callgsubr
          hintmask 01000010
          -67 callsubr
          hintmask 10011100
          -69 callsubr
          hintmask 00001000
          -15 -383 -101 callgsubr
        </CharString>
        <CharString name="ae">
          -51 callgsubr
        </CharString>
        <CharString name="ae.dup">
          -51 callgsubr
        </CharString>
        <CharString name="aeacute">
          816 -10 28 205 28 -25 28 -26 26 46 92 26 28 81 131 callgsubr
          hstemhm
          58 84 235 70 -66 66 258 70 hintmask 0001000000100000
          775 120 rmoveto
          4 -2 10 -15 -13 -2 -6 -9 -3 vhcurveto
          -79 -27 -66 -18 -36 hhcurveto
          -11 -153 0 206 hvcurveto
          300 hlineto
          hintmask 1100110010010000
          22 6 0 23 96 -52 99 -132 -75 -56 -36 -39 -36 hvcurveto
          31 -20 -57 44 -95 hhcurveto
          -92 -70 -34 -63 -32 22 -17 26 27 20 20 27 17 -8 21 -27 8 hvcurveto
          25 37 56 0 7 hhcurveto
          60 58 -39 -82 hvcurveto
          -44 vlineto
          -46 -2 -78 -3 -69 -25 rrcurveto
          -68 -26 -49 -40 -60 vvcurveto
          -85 102 -22 72 87 70 33 52 31 vhcurveto
          -54 46 69 -31 69 hhcurveto
          124 47 107 23 147 callsubr
          hintmask 1001010010010000
          -256 hlineto
          130 10 84 34 47 hhcurveto
          109 5 -136 -28 1 hvcurveto
          -324 -121 rmoveto
          -70 -71 -45 -70 -54 -44 34 45 vhcurveto
          hintmask 0010000001000000
          34 23 87 203 8 vhcurveto
          -14 0 -26 9 -31 vhcurveto
          hintmask 0000000000100000
          3 -8 1 -8 -6 vvcurveto
          hintmask 0000001100000000
          164 524 -91 callgsubr
        </CharString>
        <CharString name="agrave">
          -37 callsubr
          81 -21 192 -98 callgsubr
          -4 292 -64 callgsubr
        </CharString>
        <CharString name="ahookabove">
          -37 callsubr
          76 -21 203 -98 callgsubr
          35 399 -107 callgsubr
        </CharString>
        <CharString name="amacron">
          -37 callsubr
          137 38 11 callsubr
          hintmask 01101110
          544 90 rmoveto
          -106 callgsubr
          hintmask 10000000
          -48 callgsubr
          hintmask 01000010
          -67 callsubr
          hintmask 10001100
          -69 callsubr
          hintmask 00010000
          127 343 -19 callgsubr
        </CharString>
        <CharString name="ampersand">
          877 -20 36 379 36 255 28 hstemhm
          54 91 42 72 -30 34 144 34 331 34 hintmask 01101010
          813 93 callsubr
          -3 -29 -37 -1 -29 -46 -77 4 -4 hhcurveto
          -36 vlineto
          37 24 -15 -23 -10 -4 -9 0 hvcurveto
          -2 -3 -47 -70 -34 -46 -43 -59 -28 -26 -13 -13 -7 8 -124 135 -47 115 rrcurveto
          81 83 57 59 61 vvcurveto
          53 -27 79 -74 -70 -83 -57 -108 vhcurveto
          hintmask 11010101
          -86 29 -80 13 -34 vhcurveto
          -107 -99 rlineto
          -37 -35 -31 -29 -55 vvcurveto
          -90 92 -61 109 102 71 53 20 26 vhcurveto
          -43 58 65 -30 73 hhcurveto
          82 72 55 86 2 hvcurveto
          -34 hlineto
          -75 -3 -68 -30 -48 hhcurveto
          -64 -55 52 28 -30 hvcurveto
          64 63 59 89 46 69 25 36 26 41 89 1 rrcurveto
          -406 187 rmoveto
          -48 -45 -57 -71 -69 vhcurveto
          hintmask 00101010
          -29 76 -3 72 19 vvcurveto
          70 41 41 41 54 12 -73 -31 vhcurveto
          21 -508 rmoveto
          hintmask 10010100
          -34 -49 -57 -24 -59 hhcurveto
          -81 -37 80 64 74 28 25 69 63 hvcurveto
          61 -130 105 -100 20 -18 rrcurveto
          endchar
        </CharString>
        <CharString name="anglearc">
          877 -97 -21 738 -20 hstem
          622 48 vstem
          806 24 rmoveto
          11 -7 9 -9 3 vhcurveto
          -142 46 rlineto
          15 51 7 53 54 vvcurveto
          54 -7 53 -15 51 vhcurveto
          142 46 rlineto
          9 3 7 9 11 vvcurveto
          16 -16 12 -16 -5 vhcurveto
          -141 -47 -21 56 -30 53 -38 48 rlinecurve
          5 -5 -7 4 -7 hhcurveto
          -13 -11 -11 -13 -6 2 -5 3 -4 hvcurveto
          35 -43 27 -48 19 -51 -501 -165 rcurveline
          -9 -3 -7 -9 -11 vvcurveto
          -11 7 -9 9 -3 vhcurveto
          501 -165 -19 -51 -27 -48 -35 -43 rlinecurve
          -3 -4 -2 -5 -6 vvcurveto
          -13 11 -11 13 7 7 4 5 5 vhcurveto
          38 48 30 53 21 56 141 -47 rcurveline
          16 -5 16 12 16 vvcurveto
          -184 227 rmoveto
          -48 -7 -48 -13 -46 vhcurveto
          -431 142 431 142 rlineto
          13 -46 7 -48 -48 vvcurveto
          endchar
        </CharString>
        <CharString name="angleleft">
          446 144 callsubr
          376 -226 rmoveto
          13 -9 16 -5 11 vhcurveto
          -74 180 -75 180 -7 18 -8 17 -7 18 rlinecurve
          -3 7 -6 9 8 vvcurveto
          3 3 4 1 4 vhcurveto
          8 20 129 311 34 81 rlineto
          6 16 13 20 16 vvcurveto
          13 -11 12 -13 vhcurveto
          0 -4 0 -2 -1 vhcurveto
          -13 -3 -5 -11 -4 -11 -9 -21 rcurveline
          -147 -357 -27 -63 rlineto
          -4 -10 -7 -12 -12 vvcurveto
          -10 6 -10 4 -9 vhcurveto
          57 -149 71 -146 56 -150 rrcurveto
          -13 4 9 -13 15 hhcurveto
          13 11 12 12 hvcurveto
          endchar
        </CharString>
        <CharString name="angleright">
          446 144 callsubr
          315 251 rmoveto
          10 -6 11 -4 9 vhcurveto
          -102 246 -73 176 -5 12 rlineto
          14 -6 -6 22 -18 hhcurveto
          0 -5 0 -2 -1 vhcurveto
          -13 -4 -5 -9 -10 vvcurveto
          -11 6 -12 4 -10 vhcurveto
          150 -363 8 -19 8 -18 7 -19 rlinecurve
          3 -7 7 -10 -8 vvcurveto
          -3 -2 -4 -2 -3 vhcurveto
          -8 -19 -161 -390 rlineto
          -6 -17 -15 -23 -16 vvcurveto
          -13 11 -12 14 vhcurveto
          1 hlineto
          21 1 6 27 7 16 58 141 rcurveline
          117 282 rlineto
          4 10 7 12 12 vvcurveto
          endchar
        </CharString>
        <CharString name="aogonek">
          -37 callsubr
          11 callsubr
          hintmask 01111100
          548 16 callsubr
          -103 5 1 104 93 60 rrcurveto
          -1 4 3 1 4 hhcurveto
          0 99 0 95 vvcurveto
          -106 callgsubr
          hintmask 10011000
          25 callgsubr
          endchar
        </CharString>
        <CharString name="aogonekacute">
          -37 callsubr
          81 131 callgsubr
          11 callsubr
          hintmask 01100111
          548 16 callsubr
          -103 5 1 104 93 60 rrcurveto
          -1 4 3 1 4 hhcurveto
          0 99 0 95 vvcurveto
          -106 callgsubr
          hintmask 10000110
          25 callgsubr
          hintmask 00011000
          65 417 -91 callgsubr
        </CharString>
        <CharString name="aring">
          -37 callsubr
          80 35 106 35 hstemhm
          45 84 47 42 134 42 -37 79 74 34 hintmask 0110010011000000
          544 90 rmoveto
          -106 callgsubr
          hintmask 1000000000000000
          -48 callgsubr
          hintmask 0100000001000000
          -67 callsubr
          hintmask 1000010010000000
          -69 callsubr
          hintmask 0001101100000000
          -5 374 -55 callgsubr
        </CharString>
        <CharString name="aringacute">
          -37 callsubr
          80 136 callsubr
          hstemhm
          45 84 47 42 67 42 25 42 -37 79 74 34 hintmask 0110001000110000
          544 90 rmoveto
          -106 callgsubr
          hintmask 1000000000000000
          -48 callgsubr
          hintmask 0100000000010000
          -67 callsubr
          hintmask 1000001000100000
          -69 callsubr
          hintmask 0001100111000000
          -5 374 -78 callsubr
          3 226 rmoveto
          hintmask 0000010010100000
          25 4 -19 23 -25 hhcurveto
          -12 -9 -6 -8 -9 hvcurveto
          -155 -121 19 -30 86 43 68 30 21 12 rlinecurve
          18 8 10 5 3 19 rrcurveto
          endchar
        </CharString>
        <CharString name="asciicircum">
          556 583 -21 123 59 hstem
          -5 566 vstem
          561 584 rmoveto
          -283 160 -283 -160 11 -22 271 123 272 -123 rlineto
          endchar
        </CharString>
        <CharString name="asciitilde">
          556 193 43 -25 43 -8 43 -25 43 hstemhm
          hintmask 10010000
          555 290 60 callsubr
          hintmask 01000000
          42 callsubr
          hintmask 00100000
          20 10 20 11 17 14 rrcurveto
          endchar
        </CharString>
        <CharString name="asciitilde.low">
          556 0 43 -25 43 -8 43 -25 43 hstemhm
          0 555 hintmask 10010000
          555 97 60 callsubr
          hintmask 01001000
          42 callsubr
          hintmask 00101000
          20 10 20 11 17 14 rrcurveto
          endchar
        </CharString>
        <CharString name="asterisk">
          569 340 -21 431 -20 hstemhm
          253 61 -60 61 hintmask 00010000
          488 442 rmoveto
          19 -11 5 -15 6 vhcurveto
          -147 62 147 63 rlineto
          15 6 11 5 19 vvcurveto
          14 -12 18 -19 -9 -2 -1 -8 -11 vhcurveto
          -136 -91 rlineto
          hintmask 01100000
          15 150 rlineto
          18 2 -4 23 -28 hhcurveto
          -12 -19 -8 -22 -4 1 -13 1 -5 hvcurveto
          14 -139 -135 91 rlineto
          9 -13 -5 0 -5 hhcurveto
          -19 -12 -18 -14 -19 11 -5 15 -6 hvcurveto
          147 -62 -147 -63 rlineto
          -15 -6 -11 -5 -19 vvcurveto
          0 0 -32 38 vhcurveto
          151 100 rlineto
          hintmask 10010000
          -15 -155 rlineto
          -5 vlineto
          -8 -4 10 -23 24 hhcurveto
          12 19 8 22 4 -1 13 -1 5 hvcurveto
          -14 139 135 -91 rlineto
          -9 13 5 0 5 hhcurveto
          19 12 18 14 hvcurveto
          endchar
        </CharString>
        <CharString name="asterisk.math">
          569 57 -21 430 -20 hstemhm
          252 64 -56 39 hintmask 00100000
          487 160 rmoveto
          26 -27 5 -18 7 vhcurveto
          -42 18 -43 16 -41 19 41 19 43 16 42 18 rrcurveto
          18 7 27 5 26 vvcurveto
          18 -14 16 -17 -20 -26 -25 -12 -17 vhcurveto
          hintmask 00010000
          -94 -63 rlineto
          hintmask 11100000
          54 17 57 52 vvcurveto
          17 -2 -15 10 -15 hhcurveto
          -19 -13 -14 -18 -10 3 -10 1 -9 hvcurveto
          9 -90 rlineto
          1 -13 3 -13 -13 vvcurveto
          -126 85 rlineto
          6 -9 -10 9 -12 hhcurveto
          -17 -14 -16 -18 -26 27 -5 18 -7 hvcurveto
          42 -18 43 -16 41 -19 -41 -19 -43 -16 -42 -18 rrcurveto
          -18 -7 -27 -5 -26 vvcurveto
          -18 14 -16 17 20 26 25 12 17 vhcurveto
          94 63 rlineto
          -13 -3 -13 -1 -13 vhcurveto
          -9 -90 rlineto
          -1 -9 -3 -10 -10 vvcurveto
          -18 13 -14 19 15 15 10 17 2 vhcurveto
          hintmask 00010000
          53 -17 59 51 vvcurveto
          126 -85 rlineto
          -6 9 10 -9 12 hhcurveto
          17 14 16 18 hvcurveto
          endchar
        </CharString>
        <CharString name="at">
          877 -10 28 109 28 384 28 109 28 hstemhm
          70 34 113 79 284 79 0 79 34 34 hintmask 1111110110000000
          806 72 rmoveto
          12 -11 0 -15 vhcurveto
          -9 hlineto
          -16 -2 0 -7 -15 hvcurveto
          -51 -124 -114 -8 -57 hhcurveto
          -202 -137 159 170 181 149 148 185 165 169 -126 -212 -116 -21 -67 -57 -23 -12 23 40 hvcurveto
          238 vlineto
          25 0 2 -28 vhcurveto
          -37 hlineto
          74 -54 -67 10 -36 hhcurveto
          -119 -101 -97 -123 -124 102 -96 118 90 52 65 3 3 hvcurveto
          -60 14 71 -8 23 hhcurveto
          96 20 114 101 214 -175 148 -193 -204 -164 -161 -196 -184 149 -173 225 187 150 63 8 17 hvcurveto
          4 2 4 4 5 vvcurveto
          -226 195 rmoveto
          -18 0 -2 -12 -17 vhcurveto
          -49 -32 -50 -26 -47 hhcurveto
          -78 -65 84 108 108 65 84 78 39 52 -19 -53 36 hvcurveto
          hintmask 0000001000000000
          14 -20 0 -1 -19 vvcurveto
          endchar
        </CharString>
        <CharString name="atilde">
          -37 callsubr
          106 54 -34 54 -48 54 -34 54 11 callsubr
          hintmask 0110000111000000
          544 90 rmoveto
          -106 callgsubr
          hintmask 1000000000000000
          -48 callgsubr
          hintmask 0100000001000000
          -67 callsubr
          hintmask 1000000110000000
          -69 callsubr
          hintmask 0000001000000000
          112 392 -93 callgsubr
        </CharString>
        <CharString name="b">
          631 -10 28 395 28 206 133 callsubr
          294 91 hintmask 01101000
          100 callgsubr
          313 vlineto
          hintmask 11110100
          91 callgsubr
          -589 34 vlineto
          20 callgsubr
        </CharString>
        <CharString name="backslash">
          585 750 -20 hstem
          506 -225 rmoveto
          0 0 6 -5 12 vhcurveto
          -372 932 rlineto
          13 -5 -5 12 -17 hhcurveto
          -10 -14 -8 -17 0 0 -6 5 -12 hvcurveto
          372 -932 rlineto
          -13 5 5 -12 17 hhcurveto
          10 14 8 17 hvcurveto
          endchar
        </CharString>
        <CharString name="baht">
          799 -36 36 0 36 305 28 278 36 0 36 hstemhm
          60 103 0 88 122 36 189 100 -73 103 hintmask 0000110110000000
          728 183 rmoveto
          87 -88 74 -122 13 vhcurveto
          98 18 82 61 77 vvcurveto
          90 -105 80 -139 vhcurveto
          -45 36 hlineto
          10 -8 8 -10 -10 -8 -8 -10 vhcurveto
          -36 -313 vlineto
          hintmask 0101010100000000
          -36 24 vlineto
          77 2 -10 -35 hvcurveto
          -521 -77 callgsubr
          313 hlineto
          hintmask 1011000101000000
          -36 103 callsubr
          36 75 vlineto
          141 103 88 95 hvcurveto
          -130 330 rmoveto
          -71 -67 -73 -115 vhcurveto
          -7 278 38 hlineto
          hintmask 0111001110000000
          99 52 -71 -63 hvcurveto
          -225 -144 rmoveto
          -122 239 hlineto
          31 1 8 47 vhcurveto
          74 hlineto
          252 -462 rmoveto
          -74 -66 -75 -110 vhcurveto
          -40 305 55 hlineto
          hintmask 0110001101000000
          106 55 -86 -70 hvcurveto
          -252 -149 rmoveto
          -74 hlineto
          -47 -1 8 31 hvcurveto
          266 122 vlineto
          endchar
        </CharString>
        <CharString name="bar">
          339 750 -20 hstem
          145 49 vstem
          194 -213 rmoveto
          36 callgsubr
          endchar
        </CharString>
        <CharString name="bigcircle">
          60 callgsubr
          587 -66 callsubr
          endchar
        </CharString>
        <CharString name="blanksymbol">
          631 -10 28 395 28 -7 28 11 47 16 47 64 47 hstemhm
          49 75 -57 91 -34 75 294 91 hintmask 0100110010000000
          100 callgsubr
          155 vlineto
          113 96 108 callgsubr
          -3 vhcurveto
          -90 -76 rlineto
          111 vlineto
          hintmask 0011011000000000
          91 callgsubr
          -69 vlineto
          -69 -58 rlineto
          -4 -3 -2 -5 -6 vvcurveto
          hintmask 0010000100000000
          -10 8 -8 10 4 4 2 2 4 vhcurveto
          hintmask 0001000010000000
          45 39 rlineto
          -473 vlineto
          hintmask 1100000101000000
          34 hlineto
          20 callgsubr
        </CharString>
        <CharString name="braceleft">
          88 callsubr
          -236 rmoveto
          13 -10 1 -5 vhcurveto
          -120 6 -23 67 -1 26 rrcurveto
          257 vlineto
          -1 46 -35 46 -82 24 rrcurveto
          118 35 0 63 48 vvcurveto
          180 vlineto
          59 0 25 37 28 vhcurveto
          28 21 35 11 38 2 rrcurveto
          13 1 8 0 13 vvcurveto
          14 -10 0 -14 -114 -97 -48 -78 -1 vhcurveto
          -234 vlineto
          -23 0 -35 -28 -25 vhcurveto
          -39 -33 -39 -8 -33 -2 rrcurveto
          -13 -1 -8 0 -13 vvcurveto
          -13 10 -1 5 vhcurveto
          110 -6 27 -59 5 -20 rrcurveto
          3 -12 0 -2 -35 vvcurveto
          -204 vlineto
          -35 0 -39 59 -38 vhcurveto
          -26 42 70 -10 41 hhcurveto
          14 10 0 14 hvcurveto
          endchar
        </CharString>
        <CharString name="braceright">
          88 callsubr
          250 rmoveto
          13 -10 1 -5 vhcurveto
          -117 6 -26 70 -1 27 rrcurveto
          222 vlineto
          52 0 35 -59 38 vhcurveto
          27 -42 -73 9 -38 hhcurveto
          -15 -10 0 -14 -13 10 -1 5 hvcurveto
          124 -6 20 -71 1 -22 rrcurveto
          -257 vlineto
          1 -48 39 -45 78 -23 rrcurveto
          -118 -34 0 -65 -47 vvcurveto
          -180 vlineto
          -63 0 -18 -36 -30 vhcurveto
          -19 -16 -36 -16 -48 -3 rrcurveto
          -13 -1 -8 0 -13 vvcurveto
          -14 10 0 15 111 100 46 80 1 vhcurveto
          234 vlineto
          31 0 87 148 8 vhcurveto
          0 11 1 13 vvcurveto
          endchar
        </CharString>
        <CharString name="bracketleft">
          323 -250 49 902 49 hstem
          136 49 vstem
          290 -250 rmoveto
          49 -105 902 105 49 -154 -1000 vlineto
          endchar
        </CharString>
        <CharString name="bracketright">
          323 -250 49 902 49 hstem
          137 49 vstem
          186 -250 rmoveto
          1000 -154 -49 105 -902 -105 -49 vlineto
          endchar
        </CharString>
        <CharString name="breve">
          569 513 45 133 -20 hstem
          452 691 -100 callsubr
          endchar
        </CharString>
        <CharString name="breve.cap">
          569 490 45 133 -20 hstem
          452 668 -100 callsubr
          endchar
        </CharString>
        <CharString name="breve.ts1">
          692 516 45 134 -20 hstem
          117 28 401 28 vstem
          574 695 rmoveto
          -28 hlineto
          -102 -126 -32 -78 -84 -113 40 94 vhcurveto
          -28 hlineto
          -116 121 -63 108 108 120 64 115 vhcurveto
          endchar
        </CharString>
        <CharString name="brokenbar">
          339 750 -20 hstem
          145 49 vstem
          194 343 rmoveto
          370 vlineto
          13 0 24 -24 -25 0 -23 -14 vhcurveto
          -370 vlineto
          -12 12 -6 13 12 12 6 12 vhcurveto
          -556 vmoveto
          370 vlineto
          12 -12 6 -12 -13 -12 -6 -12 vhcurveto
          -370 vlineto
          44 callgsubr
          endchar
        </CharString>
        <CharString name="bullet">
          877 73 296 hstem
          291 296 73 callsubr
          endchar
        </CharString>
        <CharString name="c">
          18 callgsubr
          hstemhm
          46 91 224 95 hintmask 11001100
          -26 callgsubr
          hintmask 00100000
          13 48 0 -15 36 hvcurveto
          hintmask 11010110
          -18 -8 -10 -16 -20 vvcurveto
          -27 19 -20 28 27 21 17 32 89 -139 0 -28 76 callsubr
          -126 107 -100 131 149 35 118 12 vhcurveto
          endchar
        </CharString>
        <CharString name="cacute">
          18 callgsubr
          81 -21 192 -42 callsubr
          -52 537 -91 callgsubr
        </CharString>
        <CharString name="caron">
          569 92 callsubr
          437 676 -58 callgsubr
        </CharString>
        <CharString name="caron.cap">
          114 callsubr
          133 -20 hstem
          436 597 -61 callsubr
        </CharString>
        <CharString name="caron.ts1">
          692 571 -21 157 -20 hstem
          554 680 rmoveto
          -18 27 -46 -22 -131 -70 -14 -5 -176 92 -14 5 -6 -7 -12 -20 208 -130 17 8 rlineto
          endchar
        </CharString>
        <CharString name="ccaron">
          18 callgsubr
          89 -21 176 -42 callsubr
          -37 556 -58 callgsubr
        </CharString>
        <CharString name="ccedilla">
          18 callgsubr
          hstemhm
          46 91 176 95 -47 95 hintmask 11001100
          -26 callgsubr
          hintmask 00100000
          13 48 0 -15 36 hvcurveto
          hintmask 00010001
          -18 -8 -10 -16 -20 vvcurveto
          hintmask 00100010
          -27 19 -20 28 vhcurveto
          hintmask 00010101
          27 21 17 32 89 -139 0 -28 76 callsubr
          -113 87 -93 112 -17 hvcurveto
          -87 vlineto
          44 50 7 callsubr
          hvcurveto
          hintmask 00000010
          50 -60 20 -58 vhcurveto
          52 vlineto
          125 14 30 103 11 vvcurveto
          endchar
        </CharString>
        <CharString name="ccircumflex">
          18 callgsubr
          89 -21 176 -42 callsubr
          -37 408 -65 callgsubr
          endchar
        </CharString>
        <CharString name="cdotaccent">
          18 callgsubr
          99 115 hstemhm
          46 91 85 114 25 95 hintmask 1100101000000000
          -9 callsubr
          hintmask 1101001010000000
          -18 -8 -10 -16 -20 vvcurveto
          -27 19 -20 28 27 21 17 32 89 -139 0 -28 76 callsubr
          -126 107 -100 131 149 35 118 12 vhcurveto
          hintmask 0000010100000000
          -132 482 -101 callgsubr
        </CharString>
        <CharString name="cedilla">
          28 callsubr
        </CharString>
        <CharString name="cedilla.dup">
          28 callsubr
        </CharString>
        <CharString name="cent">
          18 callgsubr
          hstemhm
          46 91 124 36 64 95 -24 36 hintmask 1010101010000000
          104 callsubr
          12 -13 0 -4 -13 -1 -3 -14 -5 vhcurveto
          -62 -22 -52 -31 -61 hhcurveto
          392 vlineto
          18 42 -2 -13 32 hvcurveto
          hintmask 1101011100000000
          -18 -8 -10 -16 -20 vvcurveto
          -27 19 -20 28 27 21 17 32 82 -118 6 -41 1 vhcurveto
          21 vlineto
          9 -8 9 -10 -10 -8 -9 -9 vhcurveto
          -22 vlineto
          -133 -13 -82 -108 -108 vvcurveto
          -119 95 -95 120 -11 vhcurveto
          -27 103 callsubr
          26 vlineto
          hintmask 0100011010000000
          138 7 33 111 12 vvcurveto
          -207 -94 rmoveto
          -61 15 -63 55 121 vvcurveto
          112 49 68 75 14 vhcurveto
          endchar
        </CharString>
        <CharString name="cent.oldstyle">
          508 -10 32 195 91 0 91 -44 91 -34 32 -30 32 hstemhm
          46 91 155 36 33 95 -24 36 hintmask 1010100101000000
          104 callsubr
          12 -13 0 -4 -13 -1 -3 -14 -5 vhcurveto
          -62 -22 -53 -31 -61 hhcurveto
          -18 -20 4 8 -20 hvcurveto
          90 378 19 -1 23 -4 19 -8 rlinecurve
          hintmask 0101000010000000
          -18 -8 -10 -16 -20 vvcurveto
          -27 19 -20 28 27 21 17 32 vhcurveto
          hintmask 0000100000000000
          63 -70 18 -50 6 vhcurveto
          4 18 rlineto
          12 3 -9 11 -11 hhcurveto
          -9 -7 -6 -8 -2 hvcurveto
          hintmask 1101001001000000
          -6 -25 rlineto
          -10 hlineto
          76 callsubr
          -96 62 -80 87 -34 hvcurveto
          -9 -38 rlineto
          -11 -3 9 -11 11 hhcurveto
          9 7 6 8 2 hvcurveto
          8 36 rlineto
          -4 18 18 -2 19 hhcurveto
          149 35 118 12 hvcurveto
          -176 294 rmoveto
          -86 -362 rlineto
          -39 30 -30 52 83 vvcurveto
          hintmask 0000010100000000
          127 62 70 93 vhcurveto
          endchar
        </CharString>
        <CharString name="centigrade">
          1061 -19 36 219 20 182 49 -37 37 47 20 65 49 -33 49 -16 36 -19 20 hstemhm
          315 107 534 35 hintmask 1101000101100000
          991 230 rmoveto
          6 vlineto
          11 -4 9 -13 -21 5 -18 -14 -2 vhcurveto
          -122 -11 -111 -85 -121 hhcurveto
          -78 -79 32 57 -54 hvcurveto
          -59 63 -21 87 84 vvcurveto
          76 15 77 45 62 vhcurveto
          71 51 89 42 87 hhcurveto
          125 97 -99 -119 21 hvcurveto
          -14 2 -4 -19 23 hhcurveto
          16 2 7 10 hvcurveto
          hintmask 0000000010100000
          251 vlineto
          hintmask 0000000100000000
          9 -1 10 -12 vhcurveto
          hintmask 0000010000000000
          -25 -35 -85 -12 hhcurveto
          hintmask 0000001010000000
          -5 -10 11 5 -5 hvcurveto
          42 -52 -64 28 -68 hhcurveto
          hintmask 1000100101100000
          -7 -8 0 -1 -7 hvcurveto
          -123 -15 -110 -45 -74 -110 rrcurveto
          -37 -56 -21 -67 -67 vvcurveto
          -204 180 -159 204 147 130 95 154 15 vhcurveto
          -737 330 rmoveto
          hintmask 0010101000000000
          64 -51 60 -75 vhcurveto
          -8 hlineto
          -61 -10 -51 -46 -67 vvcurveto
          -63 51 -60 75 vhcurveto
          8 hlineto
          62 10 50 47 65 vvcurveto
          -49 2 rmoveto
          -39 -34 -35 -39 -1 vhcurveto
          -39 -29 30 37 -7 hvcurveto
          6 vlineto
          39 34 35 39 1 vhcurveto
          39 29 -30 -37 7 hvcurveto
          endchar
        </CharString>
        <CharString name="circumflex">
          569 92 callsubr
          437 528 -65 callgsubr
          endchar
        </CharString>
        <CharString name="circumflex.cap">
          114 callsubr
          133 -20 hstem
          436 496 -94 callsubr
          endchar
        </CharString>
        <CharString name="circumflex.dup">
          569 92 callsubr
          437 528 -65 callgsubr
          endchar
        </CharString>
        <CharString name="colon">
          323 0 115 201 82 callsubr
          373 -18 callsubr
          -316 vmoveto
          53 callsubr
        </CharString>
        <CharString name="colonmonetary">
          78 callgsubr
          hstem
          70 107 254 36 241 36 vstem
          744 234 rmoveto
          11 -1 8 -16 -6 -10 0 -13 -1 vhcurveto
          -161 -8 -136 -63 -99 hhcurveto
          651 vlineto
          98 -1 117 -66 26 -171 rrcurveto
          34 callgsubr
          18 0 6 20 hvcurveto
          234 vlineto
          17 0 9 -14 -4 -5 0 -12 -8 vhcurveto
          -53 -76 -40 40 -64 44 -89 4 rlinecurve
          16 vlineto
          10 -9 8 -9 -10 -8 -8 -10 vhcurveto
          -17 vlineto
          -200 -11 -161 -157 -192 vvcurveto
          -196 163 -154 198 -11 vhcurveto
          -17 vlineto
          -10 8 -8 10 9 9 8 10 vhcurveto
          16 vlineto
          169 7 108 128 119 vvcurveto
          -313 -216 rmoveto
          -108 14 -146 77 232 vvcurveto
          241 153 70 101 13 vhcurveto
          endchar
        </CharString>
        <CharString name="comma">
          323 -173 -21 194 115 hstem
          104 28 71 28 vstem
          231 6 rmoveto
          60 -23 49 -47 -35 -22 -27 -31 -24 16 -33 42 25 16 16 0 -28 0 -84 -78 -71 vhcurveto
          -4 -4 -3 -3 -5 vvcurveto
          -6 7 -9 7 13 86 79 121 vhcurveto
          endchar
        </CharString>
        <CharString name="copyleft">
          60 callgsubr
          587 -66 callsubr
          -107 hmoveto
          98 -86 80 -103 -47 -34 -23 -21 -21 vhcurveto
          -26 38 rlineto
          6 -4 -2 0 -2 hhcurveto
          -7 0 -5 -8 hvcurveto
          -115 vlineto
          -10 0 -3 9 3 4 0 6 1 vhcurveto
          85 13 58 32 49 hhcurveto
          46 96 -27 -134 -128 -90 -32 -53 -49 -67 31 80 -4 hvcurveto
          6 -5 0 -3 -8 0 -4 -5 -60 56 -65 87 102 87 78 100 vhcurveto
          endchar
        </CharString>
        <CharString name="copyright">
          60 callgsubr
          587 -66 callsubr
          -147 -53 rmoveto
          5 -1 4 -8 -3 -5 0 -6 vhcurveto
          -80 -4 -67 -31 -49 hhcurveto
          -52 -91 32 128 134 96 27 46 49 58 -33 -84 13 hvcurveto
          -6 1 4 0 4 hhcurveto
          9 0 3 10 hvcurveto
          115 vlineto
          8 0 5 -7 -2 -3 0 -6 -4 vhcurveto
          -26 -38 rlineto
          21 -20 -34 23 -48 hhcurveto
          -103 -85 -80 -98 -100 86 -78 102 87 57 65 60 hvcurveto
          endchar
        </CharString>
        <CharString name="copyright.alt">
          717 -143 48 310 48 124 48 91 48 hstem
          0 48 621 48 vstem
          717 215 rmoveto
          220 -138 139 -220 -220 -139 -139 -220 -220 139 -138 220 220 138 138 220 vhcurveto
          -48 hmoveto
          -190 -120 -120 -190 -191 -120 120 190 191 120 120 191 190 120 -120 -191 vhcurveto
          -112 -68 rmoveto
          7 -1 5 -10 -4 -6 0 -8 -1 vhcurveto
          -101 -5 -85 -40 -63 hhcurveto
          -67 -116 41 164 171 123 34 59 62 75 -41 -109 16 hvcurveto
          -7 1 6 0 4 hhcurveto
          12 0 4 12 hvcurveto
          148 vlineto
          10 0 6 -9 -3 -3 0 -8 -5 vhcurveto
          -33 -48 rlineto
          27 -27 -43 29 -61 hhcurveto
          -132 -109 -102 -126 -127 111 -101 130 112 72 84 76 hvcurveto
          endchar
        </CharString>
        <CharString name="currency">
          877 27 48 350 48 hstem
          215 48 351 48 vstem
          699 -10 rmoveto
          17 18 -16 16 -10 10 -77 77 rcurveline
          31 38 18 48 53 vvcurveto
          53 -19 49 -31 38 vhcurveto
          77 77 10 9 17 17 -17 17 rlinecurve
          -18 18 -16 -16 -10 -10 -77 -77 rcurveline
          30 -39 -48 18 -52 hhcurveto
          -53 -49 -18 -30 -38 hvcurveto
          -78 78 -9 9 -17 17 -17 -17 rlinecurve
          -18 -18 17 -16 10 -10 77 -78 rcurveline
          -30 -38 -19 -49 -53 vvcurveto
          -53 18 -48 31 -38 vhcurveto
          -77 -77 -10 -9 -17 -17 17 -17 rlinecurve
          18 -18 16 16 10 10 77 77 rcurveline
          -31 39 48 -18 54 hhcurveto
          53 48 18 31 39 hvcurveto
          76 -77 10 -9 17 -17 17 17 rlinecurve
          -85 260 rmoveto
          -97 -79 -78 -96 -97 -79 78 97 97 79 78 97 96 79 -78 -97 vhcurveto
          endchar
        </CharString>
        <CharString name="cwm">
          0 endchar
        </CharString>
        <CharString name="cwmascender">
          0 endchar
        </CharString>
        <CharString name="cwmcapital">
          0 endchar
        </CharString>
        <CharString name="d">
          55 callgsubr
          206 36 -36 47 hstemhm
          356 75 0 75 0 75 cntrmask 0000000111000000
          hintmask 0100001111000000
          54 callsubr
          hintmask 1010110111000000
          -8 callgsubr
          hintmask 0100000111000000
          115 vmoveto
          hintmask 1011100111000000
          -33 callsubr
          endchar
        </CharString>
        <CharString name="dagger">
          524 392 77 0 77 158 -20 hstemhm
          223 77 hintmask 01110000
          445 431 rmoveto
          105 callgsubr
          1 14 1 29 10 60 rrcurveto
          9 46 5 42 24 vvcurveto
          9 0 37 -39 -38 0 -38 -8 -23 5 -40 9 -49 vhcurveto
          10 -60 1 -29 1 -14 101 callgsubr
          hvcurveto
          hintmask 10010000
          -13 6 -26 36 22 30 8 7 23 vhcurveto
          30 8 16 2 8 1 -1 -17 -1 -13 -9 -41 rrcurveto
          -15 -68 0 -7 -53 vvcurveto
          -109 7 -167 14 -141 vhcurveto
          -12 1 3 -4 13 hhcurveto
          7 9 0 13 2 hvcurveto
          15 133 6 153 134 vvcurveto
          53 0 7 -15 68 vhcurveto
          -9 41 -1 13 -1 17 87 callsubr
        </CharString>
        <CharString name="daggerdbl">
          524 -16 77 378 76 189 -20 hstem
          223 77 vstem
          445 477 rmoveto
          21 -15 17 -24 -23 -26 -6 -6 -22 vhcurveto
          -37 -11 -4 0 -20 -2 2 22 1 12 11 50 rrcurveto
          7 32 5 32 22 vvcurveto
          44 -33 0 -5 -15 -24 -6 -38 -28 8 -38 4 -19 vhcurveto
          11 -53 1 -7 2 -25 -18 2 -6 1 -35 10 rrcurveto
          8 -31 -23 4 -19 hhcurveto
          -24 -15 -17 -21 -20 11 -18 32 20 23 5 7 23 hvcurveto
          37 10 7 1 18 2 -2 -22 -1 -12 -11 -50 rrcurveto
          -7 -32 -5 -32 -22 vvcurveto
          -44 33 0 5 15 24 6 38 28 -8 38 -4 19 vhcurveto
          -11 53 -1 7 -2 25 18 -2 6 -1 35 -10 rrcurveto
          -11 41 16 -1 12 hhcurveto
          29 14 15 23 hvcurveto
          -454 vmoveto
          105 callgsubr
          2 26 1 6 8 41 rrcurveto
          7 32 8 38 27 vvcurveto
          44 -33 0 -5 -15 -24 -6 -38 -27 8 -38 7 -32 vhcurveto
          8 -41 1 -6 2 -26 101 callgsubr
          -13 6 -26 36 22 30 8 7 23 hvcurveto
          30 8 16 2 8 1 -2 -26 -1 -6 -8 -41 rrcurveto
          -7 -32 -8 -38 -27 vvcurveto
          -44 33 0 5 15 24 6 38 27 -8 38 -7 32 vhcurveto
          -8 41 -1 6 -2 26 87 callsubr
        </CharString>
        <CharString name="dblbracketleft">
          462 -249 49 902 49 hstem
          136 49 89 49 vstem
          429 -249 rmoveto
          49 -106 902 106 49 -293 -1000 vlineto
          138 49 rmoveto
          -89 902 89 hlineto
          endchar
        </CharString>
        <CharString name="dblbracketright">
          462 -249 49 902 49 hstem
          138 49 89 49 vstem
          325 -249 rmoveto
          1000 -292 -49 105 -902 -105 -49 vlineto
          243 49 rmoveto
          -89 902 89 hlineto
          endchar
        </CharString>
        <CharString name="dblgrave.ts1">
          569 531 -21 191 -20 hstem
          237 527 47 callsubr
          213 17 47 callsubr
          endchar
        </CharString>
        <CharString name="dblverticalbar">
          483 750 -20 hstem
          145 49 95 49 vstem
          194 -213 rmoveto
          36 callgsubr
          144 hmoveto
          36 callgsubr
          endchar
        </CharString>
        <CharString name="dcaron">
          55 callgsubr
          42 -21 146 86 -47 126 callgsubr
          hintmask 0100000010001000
          54 callsubr
          hintmask 1010100101100000
          -8 callgsubr
          hintmask 0100000000001000
          115 vmoveto
          hintmask 1011100011010000
          -33 callsubr
          215 293 152 callgsubr
          hintmask 0000011000000000
          -18 12 -25 32 18 12 12 0 -21 0 -63 -58 -53 vhcurveto
          -3 -3 -2 -3 -3 vvcurveto
          -5 5 -7 5 10 64 60 90 vhcurveto
          endchar
        </CharString>
        <CharString name="dcroat">
          55 callgsubr
          86 36 0 28 85 callsubr
          hstemhm
          356 75 0 75 0 75 cntrmask 0000000001110000
          hintmask 0100010011110000
          581 76 callgsubr
          435 75 36 -75 131 vlineto
          hintmask 0000001101110000
          -150 -67 callgsubr
          -28 -179 vlineto
          hintmask 1010110001110000
          -36 179 -143 vlineto
          36 -37 -48 21 -55 hhcurveto
          -133 -112 -100 -126 -125 106 -100 127 82 49 44 18 17 hvcurveto
          -62 vlineto
          hintmask 0100000001110000
          115 vmoveto
          hintmask 1011100001110000
          -33 callsubr
          endchar
        </CharString>
        <CharString name="ddotbelow">
          55 callgsubr
          206 36 -36 47 hstemhm
          46 91 122 114 -17 75 -16 91 0 75 hintmask 0100001000010000
          54 callsubr
          hintmask 1010110101000000
          -8 callgsubr
          hintmask 0100000000010000
          115 vmoveto
          hintmask 1011100100100000
          -33 callsubr
          hintmask 0000000010000000
          -54 -462 -101 callgsubr
        </CharString>
        <CharString name="degree">
          427 376 48 211 48 hstem
          60 48 211 48 vstem
          367 530 rmoveto
          84 -69 69 -84 -85 -69 -69 -84 -85 69 -69 85 84 69 69 85 vhcurveto
          -48 hmoveto
          -59 -47 -47 -58 -59 -47 47 59 58 47 47 59 58 47 -47 -58 vhcurveto
          endchar
        </CharString>
        <CharString name="diameter">
          877 -98 48 602 48 hstem
          89 48 602 48 vstem
          806 595 rmoveto
          13 -11 11 -13 -7 -6 -3 -4 -4 vhcurveto
          -98 -98 rlineto
          54 -61 -80 32 -88 hhcurveto
          -193 -156 -156 -193 -88 33 -80 53 -62 hvcurveto
          -98 -98 rlineto
          -4 -4 -3 -6 -7 vvcurveto
          -13 11 -11 13 7 6 3 4 4 vhcurveto
          98 98 rlineto
          -53 61 80 -32 88 hhcurveto
          193 156 156 193 88 -32 80 -54 61 hvcurveto
          98 98 rlineto
          4 4 3 6 7 vvcurveto
          -67 -344 rmoveto
          -166 -135 -135 -166 -74 -68 27 44 -53 vhcurveto
          424 425 rlineto
          45 -52 27 -69 -74 vvcurveto
          -106 229 rmoveto
          -424 -425 rlineto
          -45 53 -27 68 75 vvcurveto
          166 135 135 166 75 68 -27 -45 52 vhcurveto
          endchar
        </CharString>
        <CharString name="died">
          569 -4 -21 363 54 -48 42 217 -20 hstemhm
          244 80 -73 64 -57 64 hintmask 01000000
          521 359 rmoveto
          11 vlineto
          13 -3 9 -16 vhcurveto
          hintmask 00100010
          -64 -64 -6 -64 hhcurveto
          61 3 62 9 60 vhcurveto
          hintmask 00011000
          1 5 1 6 5 vvcurveto
          9 -4 7 -10 2 vhcurveto
          -44 hlineto
          -10 -12 -2 -14 -15 4 -17 1 -15 hvcurveto
          hintmask 00100010
          6 -51 3 -52 -51 vvcurveto
          hintmask 01000000
          -61 -62 6 -61 hhcurveto
          -16 -3 -9 -13 hvcurveto
          -10 vlineto
          -11 2 -11 16 vhcurveto
          hintmask 00100010
          61 62 6 62 hhcurveto
          hintmask 00000100
          -7 -244 rlineto
          hintmask 10001000
          -3 -35 -4 -35 -35 vvcurveto
          -9 3 -9 9 -2 vhcurveto
          49 hlineto
          11 8 5 12 hvcurveto
          hintmask 00100100
          50 -7 52 -2 50 vhcurveto
          -5 200 rlineto
          hintmask 01000000
          64 66 -6 64 hhcurveto
          15 2 10 11 hvcurveto
          endchar
        </CharString>
        <CharString name="dieresis">
          569 550 104 hstem
          139 103 86 103 vstem
          -32 callgsubr
          endchar
        </CharString>
        <CharString name="dieresis.cap">
          569 480 104 hstem
          122 116 callgsubr
          vstem
          5 callsubr
          endchar
        </CharString>
        <CharString name="dieresis.dup">
          569 550 104 hstem
          139 103 86 103 vstem
          -32 callgsubr
          endchar
        </CharString>
        <CharString name="dieresis.ts1">
          569 566 108 hstem
          123 108 vstem
          231 619 rmoveto
          26 -20 29 -32 vhcurveto
          -3 -4 -1 -3 hhcurveto
          -30 -4 -16 -22 -27 vvcurveto
          -29 24 -25 30 vhcurveto
          7 hlineto
          25 7 22 18 28 vvcurveto
          214 1 rmoveto
          23 -19 31 -33 vhcurveto
          -3 -4 -1 -3 hhcurveto
          -27 -4 -18 -22 -26 vvcurveto
          -27 20 -28 32 34 21 27 27 vhcurveto
          endchar
        </CharString>
        <CharString name="discount">
          569 22 -21 601 135 14 -20 hstemhm
          108 135 82 135 hintmask 10101000
          499 727 rmoveto
          13 -11 11 -13 vhcurveto
          0 -4 0 -2 -1 vhcurveto
          -16 -4 -7 -20 -7 -13 -301 -554 rcurveline
          -42 -78 rlineto
          -10 -16 -17 -23 -16 vvcurveto
          -13 10 -12 14 vhcurveto
          3 hlineto
          19 2 7 23 8 14 66 123 rcurveline
          242 445 39 72 rlineto
          8 14 14 19 14 vvcurveto
          -39 -645 rmoveto
          -35 -26 -26 -33 -6 vhcurveto
          -7 hlineto
          -40 -29 31 38 35 26 26 33 6 hvcurveto
          7 hlineto
          40 29 -31 -38 hvcurveto
          -217 586 rmoveto
          hintmask 01010000
          -35 -29 -31 -37 vhcurveto
          -4 hlineto
          -40 -25 36 33 35 29 31 37 hvcurveto
          4 hlineto
          40 25 -36 -33 hvcurveto
          endchar
        </CharString>
        <CharString name="divide">
          877 16 115 95 49 95 115 hstem
          380 115 cntrmask 11100000
          806 251 32 callgsubr
          -311 176 -18 callsubr
          -354 vmoveto
          53 callsubr
        </CharString>
        <CharString name="divorced">
          569 -83 -21 140 54 164 55 -54 54 103 54 -54 55 139 -20 hstemhm
          146 40 78 40 78 40 cntrmask 0000000111000000
          hintmask 0000010111000000
          771 251 rmoveto
          99 -70 117 -129 vhcurveto
          hintmask 0101101111000000
          -4 -5 -1 -4 hhcurveto
          -110 -14 -67 -98 -103 vvcurveto
          -101 67 -114 125 116 81 106 109 vhcurveto
          -585 hmoveto
          107 -75 108 -119 vhcurveto
          -11 hlineto
          -116 -12 -68 -102 -104 vvcurveto
          -8 vlineto
          -106 4 83 -98 113 hhcurveto
          11 hlineto
          113 11 65 105 99 vvcurveto
          138 -334 rmoveto
          51 -7 54 -2 51 vhcurveto
          -5 276 rlineto
          77 5 78 8 77 vhcurveto
          1 3 0 3 3 vvcurveto
          9 -5 5 -9 2 vhcurveto
          -46 hlineto
          -4 -3 0 -1 -3 hvcurveto
          -8 -3 -2 -7 -7 -6 2 -6 -5 vvcurveto
          1 -9 rlineto
          6 -69 5 -70 -69 vvcurveto
          -45 vlineto
          hintmask 1110100111000000
          -19 -1 -18 -18 vvcurveto
          -52 vlineto
          -91 -3 -98 -9 -90 vhcurveto
          -1 -3 0 -4 -3 vvcurveto
          -9 4 -6 10 -2 vhcurveto
          46 hlineto
          16 4 8 13 hvcurveto
          393 335 rmoveto
          -37 -8 -38 -22 -31 vhcurveto
          -37 -27 -44 -19 -45 hhcurveto
          -89 -51 71 78 -9 hvcurveto
          5 -1 5 5 vvcurveto
          83 62 75 89 80 65 -59 -101 vhcurveto
          -571 3 rmoveto
          -6 0 -5 -1 -6 vhcurveto
          -79 -7 -53 -69 -87 hhcurveto
          -92 -55 73 89 77 45 83 100 hvcurveto
          hintmask 0001000111000000
          87 63 -72 -85 hvcurveto
          endchar
        </CharString>
        <CharString name="dlinebelow">
          631 -161 38 113 28 -18 36 16 28 239 36 58 28 206 126 callgsubr
          hintmask 0010000100010000
          54 callsubr
          hintmask 0101011011000000
          -8 callgsubr
          hintmask 0010000000010000
          115 vmoveto
          hintmask 0101110010100000
          -33 callsubr
          hintmask 1000000000000000
          88 -480 -19 callgsubr
        </CharString>
        <CharString name="dollar">
          569 -35 -21 46 37 110 95 76 106 -9 106 -35 95 96 35 48 -20 hstemhm
          70 57 139 36 139 57 cntrmask 0000000011100000
          hintmask 0000101011100000
          498 197 rmoveto
          39 -12 56 -48 49 vhcurveto
          -47 46 -45 9 -44 9 rrcurveto
          262 vlineto
          hintmask 0000010111100000
          60 -2 71 -23 24 -71 rrcurveto
          -47 -7 -31 -17 -28 21 -19 26 15 33 6 46 98 -73 72 -123 6 hvcurveto
          46 -36 -47 vlineto
          hintmask 1110101011100000
          -117 -9 -79 -88 -95 vvcurveto
          -75 45 -43 15 -16 vhcurveto
          41 -40 48 -11 47 -10 rrcurveto
          -289 vlineto
          -98 6 -45 53 -13 51 rrcurveto
          27 28 11 36 33 -26 15 -21 -9 -39 -3 -49 -42 14 -49 30 -33 hvcurveto
          45 -49 53 -11 45 -5 rrcurveto
          8 -1 1 -1 -17 vvcurveto
          -28 36 47 vlineto
          122 11 74 97 98 vvcurveto
          -232 217 rmoveto
          -138 26 -1 84 17 vvcurveto
          55 48 62 91 9 vhcurveto
          hintmask 0101000011100000
          175 -500 rmoveto
          -67 -54 -64 -85 -9 vhcurveto
          281 vlineto
          122 -22 17 -86 -33 vvcurveto
          endchar
        </CharString>
        <CharString name="dollar.oldstyle">
          692 0 37 159 37 159 37 hstemhm
          69 58 -58 95 -90 36 155 36 90 36 100 95 -57 57 cntrmask 1110000000000000
          hintmask 1110000101000000
          622 186 rmoveto
          10 vlineto
          117 -105 56 -90 23 vhcurveto
          272 vlineto
          54 -5 79 -25 20 -62 rrcurveto
          hintmask 1111001110000000
          -34 -19 -20 -28 -27 20 -20 27 37 11 29 25 97 -74 46 -73 17 hvcurveto
          -16 4 -16 4 -16 1 rrcurveto
          51 -36 -47 -90 47 -36 -54 vlineto
          -80 -14 -109 -59 -7 -100 rrcurveto
          -9 vlineto
          -102 93 -60 103 -23 vhcurveto
          -297 vlineto
          hintmask 1110010000000000
          -64 7 -70 33 -21 65 rrcurveto
          hintmask 1110100000000000
          32 22 17 30 27 -20 21 -27 -36 -12 -28 -26 hvcurveto
          hintmask 1110011101000000
          -14 3 -14 2 -12 vhcurveto
          6 -21 28 -73 84 -43 73 -5 rlinecurve
          -52 36 48 vlineto
          39 -2 51 3 rlineto
          -49 36 55 vlineto
          97 15 92 80 6 91 rrcurveto
          -231 214 rmoveto
          -90 20 rlineto
          247 90 vlineto
          -126 -238 rmoveto
          hintmask 1111001101000000
          -59 13 -79 34 67 vvcurveto
          70 94 40 44 7 vhcurveto
          300 -493 rmoveto
          -69 -82 -51 -56 -10 vhcurveto
          257 vlineto
          66 -11 72 -51 -65 vvcurveto
          -174 -137 rmoveto
          -2 -17 -13 -1 -20 hhcurveto
          -16 -24 3 0 hvcurveto
          293 vlineto
          90 -20 rlineto
          endchar
        </CharString>
        <CharString name="dong">
          631 -36 36 hstem
          552 35 rmoveto
          34 vlineto
          -64 -7 7 46 hvcurveto
          413 71 35 -71 124 vlineto
          -143 -10 rlineto
          -35 vlineto
          64 7 -6 -47 hvcurveto
          -26 -170 -35 170 -135 vlineto
          34 -35 -45 20 -53 hhcurveto
          -126 -106 -95 -120 -119 100 -95 121 78 46 42 17 17 hvcurveto
          -59 vlineto
          146 -43 rmoveto
          10 -8 8 -10 vhcurveto
          -472 hlineto
          56 callgsubr
          472 hlineto
          10 8 8 10 hvcurveto
          -146 152 rmoveto
          -44 -25 -49 -38 -61 hhcurveto
          -53 -38 31 28 -19 hvcurveto
          -19 28 -12 38 61 vvcurveto
          22 0 71 39 45 vhcurveto
          43 38 47 8 27 hhcurveto
          46 41 -21 -34 26 hvcurveto
          12 -15 0 -1 -18 vvcurveto
          endchar
        </CharString>
        <CharString name="dotaccent">
          323 545 115 hstem
          135 callsubr
          602 -101 callgsubr
        </CharString>
        <CharString name="dotaccent.alt">
          323 135 callsubr
          556 -101 callgsubr
        </CharString>
        <CharString name="dotaccent.cap">
          323 480 115 hstem
          135 callsubr
          537 -101 callgsubr
        </CharString>
        <CharString name="dotlessi">
          3 callsubr
          130 callgsubr
          hintmask 10101000
          274 hmoveto
          36 vlineto
          -58 -10 0 42 hvcurveto
          363 vlineto
          hintmask 01001000
          -45 callsubr
          hintmask 10010000
          -51 callsubr
          endchar
        </CharString>
        <CharString name="dotlessj">
          33 callsubr
          hstemhm
          -27 95 25 75 0 75 hintmask 00110010
          243 -1 callsubr
          hintmask 11001100
          -31 callsubr
          vhcurveto
          hintmask 00000010
          81 68 63 95 hvcurveto
          endchar
        </CharString>
        <CharString name="e">
          -23 callgsubr
          hstem
          39 91 268 70 vstem
          -105 callsubr
          endchar
        </CharString>
        <CharString name="eacute">
          -23 callgsubr
          81 -21 192 -92 callsubr
          -7 403 -91 callgsubr
        </CharString>
        <CharString name="ebreve">
          -23 callgsubr
          67 45 133 -92 callsubr
          23 437 -100 callsubr
          endchar
        </CharString>
        <CharString name="ecaron">
          -23 callgsubr
          89 -21 176 -92 callsubr
          8 422 -58 callgsubr
        </CharString>
        <CharString name="ecircumflex">
          -23 callgsubr
          89 -21 176 -92 callsubr
          8 274 -65 callgsubr
          endchar
        </CharString>
        <CharString name="ecircumflexacute">
          -23 callgsubr
          89 -21 318 -92 callsubr
          81 callgsubr
          -27 270 -104 callgsubr
        </CharString>
        <CharString name="ecircumflexdotbelow">
          -23 callgsubr
          89 -21 176 -20 128 callgsubr
          hintmask 11111101
          -105 callsubr
          8 274 -65 callgsubr
          hintmask 00000010
          -82 -657 -101 callgsubr
        </CharString>
        <CharString name="ecircumflexgrave">
          -23 callgsubr
          89 -21 133 -92 callsubr
          7 276 -70 callgsubr
        </CharString>
        <CharString name="ecircumflexhookabove">
          -23 callgsubr
          89 -21 336 -92 callsubr
          81 callgsubr
          76 271 -107 callgsubr
        </CharString>
        <CharString name="ecircumflextilde">
          -23 callgsubr
          89 -21 28 callgsubr
          39 91 268 70 hintmask 1110000011000000
          -105 callsubr
          hintmask 0001000100000000
          81 callgsubr
          45 253 -79 callsubr
        </CharString>
        <CharString name="edblgrave">
          -23 callgsubr
          82 -21 190 -92 callsubr
          -7 271 -95 callsubr
        </CharString>
        <CharString name="edieresis">
          -23 callgsubr
          104 104 hstemhm
          39 91 -22 103 86 103 -2 70 hintmask 11101001
          -105 callsubr
          hintmask 00010110
          -187 347 -61 callgsubr
        </CharString>
        <CharString name="edotaccent">
          -23 callgsubr
          99 115 128 callgsubr
          hintmask 11101010
          -105 callsubr
          hintmask 00010100
          -87 348 -101 callgsubr
        </CharString>
        <CharString name="edotbelow">
          -23 callgsubr
          128 callgsubr
          hintmask 11110100
          -105 callsubr
          hintmask 00001000
          -87 -397 -101 callgsubr
        </CharString>
        <CharString name="egrave">
          -23 callgsubr
          81 -21 192 -92 callsubr
          -76 278 -64 callgsubr
        </CharString>
        <CharString name="ehookabove">
          -23 callgsubr
          76 -21 203 -92 callsubr
          -37 385 -107 callgsubr
        </CharString>
        <CharString name="eight">
          569 -20 32 623 29 hstemhm
          54 71 callsubr
          514 -77 callsubr
        </CharString>
        <CharString name="eight.oldstyle">
          624 -20 32 623 29 hstemhm
          82 71 callsubr
          542 -77 callsubr
        </CharString>
        <CharString name="eight.prop">
          624 -20 32 623 29 hstemhm
          82 71 callsubr
          542 -77 callsubr
        </CharString>
        <CharString name="eight.taboldstyle">
          569 -20 32 623 29 hstemhm
          54 71 callsubr
          514 -77 callsubr
        </CharString>
        <CharString name="ellipsis">
          756 0 115 hstem
          105 115 101 115 101 115 cntrmask 01110000
          220 57 -18 callsubr
          216 hmoveto
          -46 callgsubr
          216 hmoveto
          53 callsubr
        </CharString>
        <CharString name="emacron">
          -23 callgsubr
          137 38 hstemhm
          39 91 268 70 hintmask 11101100
          -105 callsubr
          hintmask 00010000
          55 329 -19 callgsubr
        </CharString>
        <CharString name="emdash">
          1139 252 28 hstem
          16 1106 vstem
          1122 252 rmoveto
          28 -1106 -28 vlineto
          endchar
        </CharString>
        <CharString name="emdash.alt">
          770 253 28 hstem
          753 253 rmoveto
          28 -737 -28 vlineto
          endchar
        </CharString>
        <CharString name="endash">
          569 252 28 hstem
          8 552 vstem
          560 252 rmoveto
          28 -552 -28 vlineto
          endchar
        </CharString>
        <CharString name="eng">
          573 -214 80 134 107 callsubr
          hintmask 00010010
          515 79 rmoveto
          224 vlineto
          87 -43 51 -107 78 callsubr
          vhcurveto
          -1 97 hlineto
          hintmask 01101000
          -76 callsubr
          hintmask 10010100
          105 83 49 66 70 9 -55 -51 vhcurveto
          -228 vlineto
          -98 0 -112 -49 -37 vhcurveto
          19 -4 -16 15 -20 hhcurveto
          -22 -18 -18 -22 -23 18 -17 22 hvcurveto
          hintmask 00000010
          124 44 150 143 hvcurveto
          endchar
        </CharString>
        <CharString name="eogonek">
          105 callsubr
          hstemhm
          39 91 268 70 hintmask 00111110
          104 callsubr
          4 -2 10 -15 -13 -2 -6 -10 -3 vhcurveto
          -81 -31 -76 -15 -36 hhcurveto
          -47 -45 21 38 -30 hvcurveto
          -37 47 -1 61 39 vvcurveto
          310 hlineto
          21 7 0 22 88 -49 108 -149 -131 -100 -104 -123 hvcurveto
          hintmask 11000000
          -127 111 -102 133 vhcurveto
          -40 -29 -34 -42 -1 -50 rrcurveto
          69 callgsubr
          hintmask 00111010
          50 callgsubr
          endchar
        </CharString>
        <CharString name="eogonekacute">
          105 callsubr
          81 -21 192 71 callgsubr
          268 70 hintmask 0011100110000000
          104 callsubr
          4 -2 10 -15 -13 -2 -6 -10 -3 vhcurveto
          -81 -31 -76 -15 -36 hhcurveto
          -47 -45 21 38 -30 hvcurveto
          -37 47 -1 61 39 vvcurveto
          310 hlineto
          21 7 0 22 88 -49 108 -149 -131 -100 -104 -123 hvcurveto
          hintmask 1100000000000000
          -127 111 -102 133 vhcurveto
          -40 -29 -34 -42 -1 -50 rrcurveto
          69 callgsubr
          hintmask 0011100010000000
          50 callgsubr
          hintmask 0000011000000000
          -7 403 -91 callgsubr
        </CharString>
        <CharString name="equal">
          877 116 49 171 49 hstem
          70 736 vstem
          806 361 32 callgsubr
          -221 vmoveto
          25 -23 0 -15 vhcurveto
          -660 hlineto
          -15 -23 0 -25 -24 24 0 13 hvcurveto
          662 hlineto
          129 callgsubr
        </CharString>
        <CharString name="ereversed">
          -23 callgsubr
          hstem
          39 70 268 91 vstem
          468 219 rmoveto
          123 -100 104 -131 -149 -49 -108 -88 -22 7 0 21 vhcurveto
          310 hlineto
          -39 -1 -61 -37 -47 vhcurveto
          -38 -30 -45 -21 -47 hhcurveto
          -36 -76 15 81 -31 hvcurveto
          10 -3 -2 6 -13 hhcurveto
          -15 -2 -10 -4 -22 50 -108 135 133 111 102 127 hvcurveto
          -92 35 rmoveto
          -267 hlineto
          25 1 4 139 123 hhcurveto
          38 90 -23 -141 11 hvcurveto
          endchar
        </CharString>
        <CharString name="estimated">
          761 -9 31 320 26 303 28 hstem
          39 107 vstem
          721 122 rmoveto
          9 -1 -8 4 -8 hhcurveto
          -15 -5 -16 -11 -8 hvcurveto
          -77 -57 -111 -9 -81 hhcurveto
          -95 -93 49 83 -48 hvcurveto
          -33 56 -12 67 65 vvcurveto
          557 hlineto
          12 6 5 13 hvcurveto
          6 vlineto
          166 -92 167 -232 -184 -174 -143 -208 -203 171 -154 209 104 132 13 101 59 vhcurveto
          3 5 4 6 6 vvcurveto
          -96 246 rmoveto
          -479 hlineto
          3 19 0 20 3 20 rrcurveto
          120 17 84 124 145 hhcurveto
          62 59 -26 -49 40 hvcurveto
          37 -46 17 -60 8 -58 2 -21 0 -22 2 -21 rrcurveto
          endchar
        </CharString>
</ttFont>
